999
dxfrw 0.6.3
  0
SECTION
  2
HEADER
  9
$ACADVER
  1
AC1021
  9
$DWGCODEPAGE
  3
ANSI_1252
  9
$INSBASE
 10
0
 20
0
 30
0
  9
$EXTMIN
 10
-0.05026755164019647
 20
-0.05026801420732596
 30
0
  9
$EXTMAX
 10
72.13261752467049
 20
72.1326165246705
 30
0
  9
$LIMMIN
 10
0
 20
0
  9
$LIMMAX
 10
420
 20
297
  9
$ORTHOMODE
 70
    0
  9
$REGENMODE
 70
    1
  9
$FILLMODE
 70
    1
  9
$QTEXTMODE
 70
    0
  9
$MIRRTEXT
 70
    0
  9
$LTSCALE
 40
1
  9
$ATTMODE
 70
    0
  9
$TEXTSIZE
 40
2.5
  9
$TRACEWID
 40
15.68
  9
$TEXTSTYLE
  7
STANDARD
  9
$CLAYER
  8
0
  9
$CELTYPE
  6
BYLAYER
  9
$CECOLOR
 62
  256
  9
$CELTSCALE
 40
1
  9
$DISPSILH
 70
    0
  9
$DIMSCALE
 40
2.5
  9
$DIMASZ
 40
2.5
  9
$DIMEXO
 40
0.625
  9
$DIMDLI
 40
3.75
  9
$DIMRND
 40
0
  9
$DIMDLE
 40
0
  9
$DIMEXE
 40
1.25
  9
$DIMTP
 40
0
  9
$DIMTM
 40
0
  9
$DIMTXT
 40
2.5
  9
$DIMCEN
 40
2.5
  9
$DIMTSZ
 40
0
  9
$DIMTOL
 70
    0
  9
$DIMLIM
 70
    0
  9
$DIMTIH
 70
    0
  9
$DIMTOH
 70
    0
  9
$DIMSE1
 70
    0
  9
$DIMSE2
 70
    0
  9
$DIMTAD
 70
    1
  9
$DIMZIN
 70
    8
  9
$DIMBLK
  1

  9
$DIMASO
 70
    1
  9
$DIMSHO
 70
    1
  9
$DIMPOST
  1

  9
$DIMAPOST
  1

  9
$DIMALT
 70
    0
  9
$DIMALTD
 70
    3
  9
$DIMALTF
 40
0.03937
  9
$DIMLFAC
 40
1
  9
$DIMTOFL
 70
    1
  9
$DIMTVP
 40
0
  9
$DIMTIX
 70
    0
  9
$DIMSOXD
 70
    0
  9
$DIMSAH
 70
    0
  9
$DIMBLK1
  1

  9
$DIMBLK2
  1

  9
$DIMSTYLE
  2
Standard
  9
$DIMCLRD
 70
    0
  9
$DIMCLRE
 70
    0
  9
$DIMCLRT
 70
    0
  9
$DIMTFAC
 40
1
  9
$DIMGAP
 40
0.625
  9
$DIMJUST
 70
    0
  9
$DIMSD1
 70
    0
  9
$DIMSD2
 70
    0
  9
$DIMTOLJ
 70
    0
  9
$DIMTZIN
 70
    8
  9
$DIMALTZ
 70
    0
  9
$DIMALTTZ
 70
    0
  9
$DIMUPT
 70
    0
  9
$DIMDEC
 70
    2
  9
$DIMTDEC
 70
    2
  9
$DIMALTU
 70
    2
  9
$DIMALTTD
 70
    3
  9
$DIMTXSTY
  7
STANDARD
  9
$DIMAUNIT
 70
    0
  9
$DIMADEC
 70
    0
  9
$DIMALTRND
 40
0
  9
$DIMAZIN
 70
    0
  9
$DIMDSEP
 70
   44
  9
$DIMATFIT
 70
    3
  9
$DIMFRAC
 70
    0
  9
$DIMLDRBLK
  1
STANDARD
  9
$DIMLUNIT
 70
    2
  9
$DIMLWD
 70
   -2
  9
$DIMLWE
 70
   -2
  9
$DIMTMOVE
 70
    0
  9
$DIMFXL
 40
1
  9
$DIMFXLON
 70
    0
  9
$DIMJOGANG
 40
0.7854
  9
$DIMTFILL
 70
    0
  9
$DIMTFILLCLR
 70
    0
  9
$DIMARCSYM
 70
    0
  9
$DIMLTYPE
  6

  9
$DIMLTEX1
  6

  9
$DIMLTEX2
  6

  9
$LUNITS
 70
    2
  9
$LUPREC
 70
    4
  9
$SKETCHINC
 40
1
  9
$FILLETRAD
 40
0
  9
$AUNITS
 70
    0
  9
$AUPREC
 70
    2
  9
$MENU
  1
.
  9
$ELEVATION
 40
0
  9
$PELEVATION
 40
0
  9
$THICKNESS
 40
0
  9
$LIMCHECK
 70
    0
  9
$CHAMFERA
 40
0
  9
$CHAMFERB
 40
0
  9
$CHAMFERC
 40
0
  9
$CHAMFERD
 40
0
  9
$SKPOLY
 70
    0
  9
$USRTIMER
 70
    1
  9
$ANGBASE
 50
0
  9
$ANGDIR
 70
    0
  9
$PDMODE
 70
   34
  9
$PDSIZE
 40
0
  9
$PLINEWID
 40
0
  9
$SPLFRAME
 70
    0
  9
$SPLINETYPE
 70
    2
  9
$SPLINESEGS
 70
    8
  9
$HANDSEED
  5
20000
  9
$SURFTAB1
 70
    6
  9
$SURFTAB2
 70
    6
  9
$SURFTYPE
 70
    6
  9
$SURFU
 70
    6
  9
$SURFV
 70
    6
  9
$UCSBASE
  2

  9
$UCSNAME
  2

  9
$UCSORG
 10
0
 20
0
 30
0
  9
$UCSXDIR
 10
1
 20
0
 30
0
  9
$UCSYDIR
 10
0
 20
1
 30
0
  9
$UCSORTHOREF
  2

  9
$UCSORTHOVIEW
 70
    0
  9
$UCSORGTOP
 10
0
 20
0
 30
0
  9
$UCSORGBOTTOM
 10
0
 20
0
 30
0
  9
$UCSORGLEFT
 10
0
 20
0
 30
0
  9
$UCSORGRIGHT
 10
0
 20
0
 30
0
  9
$UCSORGFRONT
 10
0
 20
0
 30
0
  9
$UCSORGBACK
 10
0
 20
0
 30
0
  9
$PUCSBASE
  2

  9
$PUCSNAME
  2

  9
$PUCSORG
 10
0
 20
0
 30
0
  9
$PUCSXDIR
 10
1
 20
0
 30
0
  9
$PUCSYDIR
 10
0
 20
1
 30
0
  9
$PUCSORTHOREF
  2

  9
$PUCSORTHOVIEW
 70
    0
  9
$PUCSORGTOP
 10
0
 20
0
 30
0
  9
$PUCSORGBOTTOM
 10
0
 20
0
 30
0
  9
$PUCSORGLEFT
 10
0
 20
0
 30
0
  9
$PUCSORGRIGHT
 10
0
 20
0
 30
0
  9
$PUCSORGFRONT
 10
0
 20
0
 30
0
  9
$PUCSORGBACK
 10
0
 20
0
 30
0
  9
$USERI1
 70
    0
  9
$USERI2
 70
    0
  9
$USERI3
 70
    0
  9
$USERI4
 70
    0
  9
$USERI5
 70
    0
  9
$USERR1
 40
0
  9
$USERR2
 40
0
  9
$USERR3
 40
0
  9
$USERR4
 40
0
  9
$USERR5
 40
0
  9
$WORLDVIEW
 70
    1
  9
$SHADEDGE
 70
    3
  9
$SHADEDIF
 70
   70
  9
$TILEMODE
 70
    1
  9
$MAXACTVP
 70
   64
  9
$PINSBASE
 10
0
 20
0
 30
0
  9
$PLIMCHECK
 70
    0
  9
$PEXTMIN
 10
0
 20
0
 30
0
  9
$PEXTMAX
 10
0
 20
0
 30
0
  9
$GRIDMODE
 70
    1
  9
$SNAPSTYLE
 70
    0
  9
$PLIMMIN
 10
0
 20
0
  9
$PLIMMAX
 10
297
 20
210
  9
$UNITMODE
 70
    0
  9
$VISRETAIN
 70
    1
  9
$PLINEGEN
 70
    0
  9
$PSLTSCALE
 70
    1
  9
$TREEDEPTH
 70
 3020
  9
$CMLSTYLE
  2
Standard
  9
$CMLJUST
 70
    0
  9
$CMLSCALE
 40
20
  9
$PROXYGRAPHICS
 70
    1
  9
$MEASUREMENT
 70
    1
  9
$CELWEIGHT
370
   -1
  9
$ENDCAPS
280
    0
  9
$JOINSTYLE
280
    0
  9
$LWDISPLAY
290
    0
  9
$INSUNITS
 70
    4
  9
$HYPERLINKBASE
  1

  9
$STYLESHEET
  1

  9
$XEDIT
290
    1
  9
$CEPSNTYPE
380
    0
  9
$PSTYLEMODE
290
    1
  9
$EXTNAMES
290
    1
  9
$PSVPSCALE
 40
1
  9
$OLESTARTUP
290
    0
  9
$SORTENTS
280
  127
  9
$INDEXCTL
280
    0
  9
$HIDETEXT
280
    1
  9
$XCLIPFRAME
290
    0
  9
$HALOGAP
280
    0
  9
$OBSCOLOR
 70
  257
  9
$OBSLTYPE
280
    0
  9
$INTERSECTIONDISPLAY
280
    0
  9
$INTERSECTIONCOLOR
 70
  257
  9
$DIMASSOC
280
    1
  9
$PROJECTNAME
  1

  9
$CAMERADISPLAY
290
    0
  9
$LENSLENGTH
 40
50
  9
$CAMERAHEIGHT
 40
0
  9
$STEPSPERSEC
 40
2
  9
$STEPSIZE
 40
50
  9
$3DDWFPREC
 40
2
  9
$PSOLWIDTH
 40
5
  9
$PSOLHEIGHT
 40
80
  9
$LOFTANG1
 40
1.570796326794897
  9
$LOFTANG2
 40
1.570796326794897
  9
$LOFTMAG1
 40
0
  9
$LOFTMAG2
 40
0
  9
$LOFTPARAM
 70
    7
  9
$LOFTNORMALS
280
    1
  9
$LATITUDE
 40
1
  9
$LONGITUDE
 40
1
  9
$NORTHDIRECTION
 40
0
  9
$TIMEZONE
 70
-8000
  9
$LIGHTGLYPHDISPLAY
280
    1
  9
$TILEMODELIGHTSYNCH
280
    1
  9
$SOLIDHIST
280
    1
  9
$SHOWHIST
280
    1
  9
$DWFFRAME
280
    2
  9
$DGNFRAME
280
    0
  9
$REALWORLDSCALE
290
    1
  9
$INTERFERECOLOR
 62
    1
  9
$CSHADOW
280
    0
  9
$SHADOWPLANELOCATION
 40
0
  0
ENDSEC
  0
SECTION
  2
CLASSES
  0
ENDSEC
  0
SECTION
  2
TABLES
  0
TABLE
  2
VPORT
  5
8
330
0
100
AcDbSymbolTable
 70
    1
  0
VPORT
  5
31
330
2
100
AcDbSymbolTableRecord
100
AcDbViewportTableRecord
  2
*ACTIVE
 70
    0
 10
0
 20
0
 11
1
 21
1
 12
50.39696276928869
 22
48.49192293952176
 13
0
 23
0
 14
10
 24
10
 15
10
 25
10
 16
0
 26
0
 36
1
 17
0
 27
0
 37
0
 40
140.6265765246131
 41
1.272167487684729
 42
50
 43
0
 44
0
 50
0
 51
0
 71
    0
 72
  100
 73
    1
 74
    3
 75
    0
 76
    1
 77
    0
 78
    0
281
    0
 65
    1
110
0
120
0
130
0
111
1
121
0
131
0
112
0
122
1
132
0
 79
    0
146
0
348
10020
 60
    7
 61
    5
292
1
282
    1
141
0
142
0
 63
  250
421
3358443
  0
ENDTAB
  0
TABLE
  2
LTYPE
  5
5
330
0
100
AcDbSymbolTable
 70
    4
  0
LTYPE
  5
14
330
5
100
AcDbSymbolTableRecord
100
AcDbLinetypeTableRecord
  2
ByBlock
 70
    0
  3

 72
   65
 73
    0
 40
0
  0
LTYPE
  5
15
330
5
100
AcDbSymbolTableRecord
100
AcDbLinetypeTableRecord
  2
ByLayer
 70
    0
  3

 72
   65
 73
    0
 40
0
  0
LTYPE
  5
16
330
5
100
AcDbSymbolTableRecord
100
AcDbLinetypeTableRecord
  2
Continuous
 70
    0
  3
Solid line
 72
   65
 73
    0
 40
0
  0
LTYPE
  5
32
330
5
100
AcDbSymbolTableRecord
100
AcDbLinetypeTableRecord
  2
DOT
 70
    0
  3
Dot . . . . . . . . . . . . . . . . . . . . . .
 72
   65
 73
    2
 40
6.35
 49
0
 74
    0
 49
-6.35
 74
    0
  0
LTYPE
  5
33
330
5
100
AcDbSymbolTableRecord
100
AcDbLinetypeTableRecord
  2
DOTTINY
 70
    0
  3
Dot (.15x) .....................................
 72
   65
 73
    2
 40
0.9525
 49
0
 74
    0
 49
-0.9525
 74
    0
  0
LTYPE
  5
34
330
5
100
AcDbSymbolTableRecord
100
AcDbLinetypeTableRecord
  2
DOT2
 70
    0
  3
Dot (.5x) .....................................
 72
   65
 73
    2
 40
3.175
 49
0
 74
    0
 49
-3.175
 74
    0
  0
LTYPE
  5
35
330
5
100
AcDbSymbolTableRecord
100
AcDbLinetypeTableRecord
  2
DOTX2
 70
    0
  3
Dot (2x) .  .  .  .  .  .  .  .  .  .  .  .  .
 72
   65
 73
    2
 40
12.7
 49
0
 74
    0
 49
-12.7
 74
    0
  0
LTYPE
  5
36
330
5
100
AcDbSymbolTableRecord
100
AcDbLinetypeTableRecord
  2
DASHED
 70
    0
  3
Dashed _ _ _ _ _ _ _ _ _ _ _ _ _ _ _ _ _
 72
   65
 73
    2
 40
19.05
 49
12.7
 74
    0
 49
-6.35
 74
    0
  0
LTYPE
  5
37
330
5
100
AcDbSymbolTableRecord
100
AcDbLinetypeTableRecord
  2
DASHEDTINY
 70
    0
  3
Dashed (.15x) _ _ _ _ _ _ _ _ _ _ _ _ _ _ _ _ _
 72
   65
 73
    2
 40
2.8575
 49
1.905
 74
    0
 49
-0.9525
 74
    0
  0
LTYPE
  5
38
330
5
100
AcDbSymbolTableRecord
100
AcDbLinetypeTableRecord
  2
DASHED2
 70
    0
  3
Dashed (.5x) _ _ _ _ _ _ _ _ _ _ _ _ _ _ _ _ _
 72
   65
 73
    2
 40
9.524999999999999
 49
6.35
 74
    0
 49
-3.175
 74
    0
  0
LTYPE
  5
39
330
5
100
AcDbSymbolTableRecord
100
AcDbLinetypeTableRecord
  2
DASHEDX2
 70
    0
  3
Dashed (2x) ____  ____  ____  ____  ____  ___
 72
   65
 73
    2
 40
38.09999999999999
 49
25.4
 74
    0
 49
-12.7
 74
    0
  0
LTYPE
  5
3A
330
5
100
AcDbSymbolTableRecord
100
AcDbLinetypeTableRecord
  2
DASHDOT
 70
    0
  3
Dash dot __ . __ . __ . __ . __ . __ . __ . __
 72
   65
 73
    4
 40
25.4
 49
12.7
 74
    0
 49
-6.35
 74
    0
 49
0
 74
    0
 49
-6.35
 74
    0
  0
LTYPE
  5
3B
330
5
100
AcDbSymbolTableRecord
100
AcDbLinetypeTableRecord
  2
DASHDOTTINY
 70
    0
  3
Dash dot (.15x) _._._._._._._._._._._._._._._.
 72
   65
 73
    4
 40
3.81
 49
1.905
 74
    0
 49
-0.9525
 74
    0
 49
0
 74
    0
 49
-0.9525
 74
    0
  0
LTYPE
  5
3C
330
5
100
AcDbSymbolTableRecord
100
AcDbLinetypeTableRecord
  2
DASHDOT2
 70
    0
  3
Dash dot (.5x) _._._._._._._._._._._._._._._.
 72
   65
 73
    4
 40
12.7
 49
6.35
 74
    0
 49
-3.175
 74
    0
 49
0
 74
    0
 49
-3.175
 74
    0
  0
LTYPE
  5
3D
330
5
100
AcDbSymbolTableRecord
100
AcDbLinetypeTableRecord
  2
DASHDOTX2
 70
    0
  3
Dash dot (2x) ____  .  ____  .  ____  .  ___
 72
   65
 73
    4
 40
50.8
 49
25.4
 74
    0
 49
-12.7
 74
    0
 49
0
 74
    0
 49
-12.7
 74
    0
  0
LTYPE
  5
3E
330
5
100
AcDbSymbolTableRecord
100
AcDbLinetypeTableRecord
  2
DIVIDE
 70
    0
  3
Divide ____ . . ____ . . ____ . . ____ . . ____
 72
   65
 73
    6
 40
31.75
 49
12.7
 74
    0
 49
-6.35
 74
    0
 49
0
 74
    0
 49
-6.35
 74
    0
 49
0
 74
    0
 49
-6.35
 74
    0
  0
LTYPE
  5
3F
330
5
100
AcDbSymbolTableRecord
100
AcDbLinetypeTableRecord
  2
DIVIDETINY
 70
    0
  3
Divide (.15x) __..__..__..__..__..__..__..__.._
 72
   65
 73
    6
 40
4.7625
 49
1.905
 74
    0
 49
-0.9525
 74
    0
 49
0
 74
    0
 49
-0.9525
 74
    0
 49
0
 74
    0
 49
-0.9525
 74
    0
  0
LTYPE
  5
40
330
5
100
AcDbSymbolTableRecord
100
AcDbLinetypeTableRecord
  2
DIVIDE2
 70
    0
  3
Divide (.5x) __..__..__..__..__..__..__..__.._
 72
   65
 73
    6
 40
15.875
 49
6.35
 74
    0
 49
-3.175
 74
    0
 49
0
 74
    0
 49
-3.175
 74
    0
 49
0
 74
    0
 49
-3.175
 74
    0
  0
LTYPE
  5
41
330
5
100
AcDbSymbolTableRecord
100
AcDbLinetypeTableRecord
  2
DIVIDEX2
 70
    0
  3
Divide (2x) ________  .  .  ________  .  .  _
 72
   65
 73
    6
 40
63.5
 49
25.4
 74
    0
 49
-12.7
 74
    0
 49
0
 74
    0
 49
-12.7
 74
    0
 49
0
 74
    0
 49
-12.7
 74
    0
  0
LTYPE
  5
42
330
5
100
AcDbSymbolTableRecord
100
AcDbLinetypeTableRecord
  2
BORDER
 70
    0
  3
Border __ __ . __ __ . __ __ . __ __ . __ __ .
 72
   65
 73
    6
 40
44.45
 49
12.7
 74
    0
 49
-6.35
 74
    0
 49
12.7
 74
    0
 49
-6.35
 74
    0
 49
0
 74
    0
 49
-6.35
 74
    0
  0
LTYPE
  5
43
330
5
100
AcDbSymbolTableRecord
100
AcDbLinetypeTableRecord
  2
BORDERTINY
 70
    0
  3
Border (.15x) __.__.__.__.__.__.__.__.__.__.__.
 72
   65
 73
    6
 40
6.6675
 49
1.905
 74
    0
 49
-0.9525
 74
    0
 49
1.905
 74
    0
 49
-0.9525
 74
    0
 49
0
 74
    0
 49
-0.9525
 74
    0
  0
LTYPE
  5
44
330
5
100
AcDbSymbolTableRecord
100
AcDbLinetypeTableRecord
  2
BORDER2
 70
    0
  3
Border (.5x) __.__.__.__.__.__.__.__.__.__.__.
 72
   65
 73
    6
 40
22.225
 49
6.35
 74
    0
 49
-3.175
 74
    0
 49
6.35
 74
    0
 49
-3.175
 74
    0
 49
0
 74
    0
 49
-3.175
 74
    0
  0
LTYPE
  5
45
330
5
100
AcDbSymbolTableRecord
100
AcDbLinetypeTableRecord
  2
BORDERX2
 70
    0
  3
Border (2x) ____  ____  .  ____  ____  .  ___
 72
   65
 73
    6
 40
88.89999999999999
 49
25.4
 74
    0
 49
-12.7
 74
    0
 49
25.4
 74
    0
 49
-12.7
 74
    0
 49
0
 74
    0
 49
-12.7
 74
    0
  0
LTYPE
  5
46
330
5
100
AcDbSymbolTableRecord
100
AcDbLinetypeTableRecord
  2
CENTER
 70
    0
  3
Center ____ _ ____ _ ____ _ ____ _ ____ _ ____
 72
   65
 73
    4
 40
50.8
 49
31.75
 74
    0
 49
-6.35
 74
    0
 49
6.35
 74
    0
 49
-6.35
 74
    0
  0
LTYPE
  5
47
330
5
100
AcDbSymbolTableRecord
100
AcDbLinetypeTableRecord
  2
CENTERTINY
 70
    0
  3
Center (.15x) ___ _ ___ _ ___ _ ___ _ ___ _ ___
 72
   65
 73
    4
 40
7.619999999999999
 49
4.7625
 74
    0
 49
-0.9525
 74
    0
 49
0.9525
 74
    0
 49
-0.9525
 74
    0
  0
LTYPE
  5
48
330
5
100
AcDbSymbolTableRecord
100
AcDbLinetypeTableRecord
  2
CENTER2
 70
    0
  3
Center (.5x) ___ _ ___ _ ___ _ ___ _ ___ _ ___
 72
   65
 73
    4
 40
28.575
 49
19.05
 74
    0
 49
-3.175
 74
    0
 49
3.175
 74
    0
 49
-3.175
 74
    0
  0
LTYPE
  5
49
330
5
100
AcDbSymbolTableRecord
100
AcDbLinetypeTableRecord
  2
CENTERX2
 70
    0
  3
Center (2x) ________  __  ________  __  _____
 72
   65
 73
    4
 40
101.6
 49
63.5
 74
    0
 49
-12.7
 74
    0
 49
12.7
 74
    0
 49
-12.7
 74
    0
  0
ENDTAB
  0
TABLE
  2
LAYER
  5
2
330
0
100
AcDbSymbolTable
 70
    1
  0
LAYER
  5
10
330
2
100
AcDbSymbolTableRecord
100
AcDbLayerTableRecord
  2
0
 70
    0
 62
    7
  6
CONTINUOUS
370
   -3
390
F
  0
ENDTAB
  0
TABLE
  2
STYLE
  5
3
330
0
100
AcDbSymbolTable
 70
    3
  0
STYLE
  5
4A
330
2
100
AcDbSymbolTableRecord
100
AcDbTextStyleTableRecord
  2
Standard
 70
    0
 40
0
 41
1
 50
0
 71
    0
 42
1
  3
txt
  4

  0
ENDTAB
  0
TABLE
  2
VIEW
  5
6
330
0
100
AcDbSymbolTable
 70
    0
  0
ENDTAB
  0
TABLE
  2
UCS
  5
7
330
0
100
AcDbSymbolTable
 70
    0
  0
ENDTAB
  0
TABLE
  2
APPID
  5
9
330
0
100
AcDbSymbolTable
 70
    1
  0
APPID
  5
12
330
9
100
AcDbSymbolTableRecord
100
AcDbRegAppTableRecord
  2
ACAD
 70
    0
  0
APPID
  5
4B
330
9
100
AcDbSymbolTableRecord
100
AcDbRegAppTableRecord
  2
LibreCad
 70
    0
  0
ENDTAB
  0
TABLE
  2
DIMSTYLE
  5
A
330
0
100
AcDbSymbolTable
 70
    1
100
AcDbDimStyleTable
 71
    1
  0
DIMSTYLE
105
4C
330
A
100
AcDbSymbolTableRecord
100
AcDbDimStyleTableRecord
  2
Standard
 70
    0
 40
2.5
 41
2.5
 42
0.625
 43
0.38
 44
1.25
 45
0
 46
0
 47
0
 48
0
 49
1
140
2.5
141
0.09
142
0
143
25.4
144
1
145
0
146
1
147
0.625
148
0
 71
    0
 72
    0
 73
    0
 74
    1
 75
    0
 76
    0
 77
    0
 78
    8
 79
    0
170
    0
171
    2
172
    0
173
    0
174
    0
175
    0
176
    0
177
    0
178
    0
179
    0
271
    2
272
    4
273
    2
274
    2
275
    0
276
    0
277
    2
278
   44
279
    0
280
    0
281
    0
282
    0
283
    1
284
    0
285
    0
286
    0
288
    0
289
    3
340
STANDARD
341

371
   -2
372
   -2
  0
ENDTAB
  0
TABLE
  2
BLOCK_RECORD
  5
1
330
0
100
AcDbSymbolTable
 70
    2
  0
BLOCK_RECORD
  5
1F
330
1
100
AcDbSymbolTableRecord
100
AcDbBlockTableRecord
  2
*Model_Space
 70
    0
280
    1
281
    0
  0
BLOCK_RECORD
  5
1E
330
1
100
AcDbSymbolTableRecord
100
AcDbBlockTableRecord
  2
*Paper_Space
 70
    0
280
    1
281
    0
  0
ENDTAB
  0
ENDSEC
  0
SECTION
  2
BLOCKS
  0
BLOCK
  5
20
330
1F
100
AcDbEntity
  8
0
100
AcDbBlockBegin
  2
*Model_Space
 70
    0
 10
0
 20
0
 30
0
  3
*Model_Space
  1

  0
ENDBLK
  5
21
330
1F
100
AcDbEntity
  8
0
100
AcDbBlockEnd
  0
BLOCK
  5
1C
330
1B
100
AcDbEntity
  8
0
100
AcDbBlockBegin
  2
*Paper_Space
 70
    0
 10
0
 20
0
 30
0
  3
*Paper_Space
  1

  0
ENDBLK
  5
1D
330
1F
100
AcDbEntity
  8
0
100
AcDbBlockEnd
  0
ENDSEC
  0
SECTION
  2
ENTITIES
  0
LWPOLYLINE
  5
4D
100
AcDbEntity
  8
0
  6
ByLayer
 62
  256
370
   -1
100
AcDbPolyline
 90
  456
 70
    1
 43
0
 10
65.97197300000001
 20
30.817237
 10
64.955344
 20
30.553947
 10
64.10976700000001
 20
30.40880600000001
 10
63.440822
 20
30.350692
 10
62.96327
 20
30.34894500000001
 10
61.81953900000001
 20
30.84567500000001
 10
61.172808
 20
31.061185
 10
60.55474100000001
 20
31.21493400000001
 10
59.969303
 20
31.30975800000001
 10
59.420266
 20
31.34875900000001
 10
58.911227
 20
31.335141
 10
58.445545
 20
31.272422
 10
58.026354
 20
31.16424300000001
 10
57.656561
 20
31.01443200000001
 10
57.338882
 20
30.826958
 10
57.075726
 20
30.606007
 10
56.86922
 20
30.35582300000001
 10
56.70705
 20
30.044902
 10
56.223563
 20
28.59144300000001
 10
55.916909
 20
27.808376
 10
55.580034
 20
27.037826
 10
54.894161
 20
25.66819900000001
 10
54.788978
 20
25.33367400000001
 10
54.758093
 20
25.01074500000001
 10
54.787936
 20
24.66843000000001
 10
54.880005
 20
24.311232
 10
55.035556
 20
23.943817
 10
55.25547400000001
 20
23.57091
 10
55.54041100000001
 20
23.197274
 10
55.890727
 20
22.827699
 10
56.306533
 20
22.467049
 10
56.78755100000001
 20
22.120133
 10
57.333307
 20
21.79181000000001
 10
57.943004
 20
21.48689100000001
 10
59.102985
 20
21.02939200000001
 10
59.43943
 20
20.69047700000001
 10
59.871352
 20
20.176369
 10
60.366635
 20
19.47582500000001
 10
60.899327
 20
18.57078600000001
 10
61.169684
 20
18.03876500000001
 10
61.437832
 20
17.451265
 10
61.698195
 20
16.811118
 10
61.947703
 20
16.11573000000001
 10
62.18294
 20
15.362036
 10
62.397628
 20
14.557177
 10
62.58920500000001
 20
13.69571000000001
 10
62.75294
 20
12.77984
 10
62.87259805506332
 20
11.90267859635461
 42
-0.02639841475759944
 10
60.17966999999999
 20
9.209751999999998
 10
59.30251
 20
9.329409000000005
 10
58.38664
 20
9.493144000000001
 10
57.525173
 20
9.684722000000001
 10
56.720314
 20
9.899410000000003
 10
55.966619
 20
10.134646
 10
55.271231
 20
10.384155
 10
54.631084
 20
10.644517
 10
54.04358500000001
 20
10.912665
 10
53.51156400000001
 20
11.183022
 10
52.60652400000001
 20
11.71571400000001
 10
51.905981
 20
12.210997
 10
51.39187200000001
 20
12.642919
 10
51.05295700000001
 20
12.979364
 10
50.595458
 20
14.139345
 10
50.290539
 20
14.749042
 10
49.96221600000001
 20
15.294799
 10
49.6153
 20
15.775816
 10
49.25465000000001
 20
16.191622
 10
48.88507600000001
 20
16.54193800000001
 10
48.511439
 20
16.82687600000001
 10
48.138533
 20
17.046794
 10
47.771117
 20
17.202345
 10
47.41392
 20
17.294414
 10
47.07160500000001
 20
17.324257
 10
46.748676
 20
17.293372
 10
46.414151
 20
17.188189
 10
45.04452300000001
 20
16.502316
 10
44.273974
 20
16.16544
 10
43.490906
 20
15.858786
 10
42.037448
 20
15.37529900000001
 10
41.726527
 20
15.21313
 10
41.476343
 20
15.006623
 10
41.255392
 20
14.743468
 10
41.067917
 20
14.425789
 10
40.91810700000001
 20
14.055995
 10
40.809928
 20
13.636805
 10
40.747208
 20
13.171123
 10
40.73359
 20
12.662084
 10
40.77259100000001
 20
12.113046
 10
40.867415
 20
11.52760900000001
 10
41.021164
 20
10.909541
 10
41.23667500000001
 20
10.26281
 10
41.733405
 20
9.119078999999999
 10
41.731658
 20
8.641527000000004
 10
41.673543
 20
7.972583
 10
41.528402
 20
7.127006000000002
 10
41.265113
 20
6.110376000000002
 10
41.080088
 20
5.543009000000005
 10
40.854272
 20
4.937975000000002
 10
40.585725
 20
4.301219000000003
 10
40.27044
 20
3.633076000000003
 10
39.903835
 20
2.933796000000001
 10
39.486521
 20
2.212868
 10
39.012838
 20
1.468252
 10
38.480998
 20
0.7048559999999995
 10
37.9453612082907
 20
-1.04182886673243e-06
 42
-0.02639840716351696
 10
34.136988
 20
0
 10
33.60135200000001
 20
0.7048559999999995
 10
33.069512
 20
1.468252
 10
32.595829
 20
2.212868
 10
32.178515
 20
2.933796000000001
 10
31.81191
 20
3.633076000000003
 10
31.496625
 20
4.301219000000003
 10
31.228078
 20
4.937975000000002
 10
31.002262
 20
5.543009000000005
 10
30.817237
 20
6.110376000000002
 10
30.553948
 20
7.127006000000002
 10
30.408807
 20
7.972583
 10
30.350692
 20
8.641527000000004
 10
30.348945
 20
9.119078999999999
 10
30.845675
 20
10.26281
 10
31.061186
 20
10.909541
 10
31.214935
 20
11.52760900000001
 10
31.309759
 20
12.113046
 10
31.34876
 20
12.662084
 10
31.335142
 20
13.171123
 10
31.272422
 20
13.636805
 10
31.164243
 20
14.055995
 10
31.014433
 20
14.425789
 10
30.826958
 20
14.743468
 10
30.606007
 20
15.006623
 10
30.355823
 20
15.21313
 10
30.044902
 20
15.37529900000001
 10
28.591444
 20
15.858786
 10
27.808376
 20
16.16544
 10
27.037827
 20
16.502316
 10
25.668199
 20
17.188189
 10
25.333674
 20
17.293372
 10
25.010745
 20
17.324257
 10
24.66843
 20
17.294414
 10
24.311233
 20
17.202345
 10
23.943817
 20
17.046794
 10
23.570911
 20
16.82687600000001
 10
23.197274
 20
16.54193800000001
 10
22.8277
 20
16.191622
 10
22.46705
 20
15.775816
 10
22.120134
 20
15.294799
 10
21.791811
 20
14.749042
 10
21.486892
 20
14.139345
 10
21.029393
 20
12.979364
 10
20.690478
 20
12.642919
 10
20.176369
 20
12.210997
 10
19.475826
 20
11.71571400000001
 10
18.570786
 20
11.183022
 10
18.038765
 20
10.912665
 10
17.451266
 20
10.644517
 10
16.811119
 20
10.384155
 10
16.115731
 20
10.134646
 10
15.362036
 20
9.899410000000003
 10
14.557177
 20
9.684722000000001
 10
13.69571
 20
9.493144000000001
 10
12.77984
 20
9.329409000000005
 10
11.9026786311493
 20
9.209751813269495
 42
-0.026398414757599
 10
9.209752000000005
 20
11.90267899999999
 10
9.329410000000003
 20
12.77984
 10
9.493145000000002
 20
13.69571000000001
 10
9.684722000000004
 20
14.557177
 10
9.899410000000003
 20
15.362036
 10
10.134647
 20
16.11573000000001
 10
10.384155
 20
16.811118
 10
10.644518
 20
17.451265
 10
10.912666
 20
18.03876500000001
 10
11.183023
 20
18.57078600000001
 10
11.715715
 20
19.47582500000001
 10
12.210998
 20
20.176369
 10
12.64292
 20
20.69047700000001
 10
12.979365
 20
21.02939200000001
 10
14.139346
 20
21.48689100000001
 10
14.749043
 20
21.79181000000001
 10
15.294799
 20
22.120133
 10
15.775817
 20
22.467049
 10
16.191623
 20
22.827699
 10
16.541939
 20
23.197274
 10
16.826876
 20
23.57091
 10
17.046794
 20
23.943817
 10
17.202345
 20
24.311232
 10
17.294414
 20
24.66843000000001
 10
17.324257
 20
25.01074500000001
 10
17.293372
 20
25.33367400000001
 10
17.188189
 20
25.66819900000001
 10
16.502316
 20
27.037826
 10
16.165441
 20
27.808376
 10
15.858787
 20
28.59144300000001
 10
15.3753
 20
30.044902
 10
15.21313
 20
30.35582300000001
 10
15.006624
 20
30.606007
 10
14.743468
 20
30.826958
 10
14.425789
 20
31.01443200000001
 10
14.055996
 20
31.16424300000001
 10
13.636805
 20
31.272422
 10
13.171123
 20
31.335141
 10
12.662084
 20
31.34875900000001
 10
12.113047
 20
31.30975800000001
 10
11.527609
 20
31.21493400000001
 10
10.909542
 20
31.061185
 10
10.262811
 20
30.84567500000001
 10
9.119080000000004
 20
30.34894500000001
 10
8.641528000000001
 20
30.350692
 10
7.972583000000004
 20
30.40880600000001
 10
7.127006000000002
 20
30.553947
 10
6.110377000000003
 20
30.817237
 10
5.543010000000002
 20
31.002261
 10
4.937976000000003
 20
31.22807700000001
 10
4.301219000000003
 20
31.496625
 10
3.633076000000003
 20
31.81191
 10
2.933797000000006
 20
32.178514
 10
2.212868
 20
32.595828
 10
1.468253000000004
 20
33.069512
 10
0.7048570000000041
 20
33.601351
 10
2.131628207280301e-14
 20
34.13698699999995
 42
-0.02639842538626413
 10
0
 20
37.945362
 10
0.7048570000000041
 20
38.48099700000001
 10
1.468253000000004
 20
39.012837
 10
2.212868
 20
39.486521
 10
2.933797000000006
 20
39.903834
 10
3.633076000000003
 20
40.270439
 10
4.301219000000003
 20
40.58572400000001
 10
4.937976000000003
 20
40.854272
 10
5.543010000000002
 20
41.080087
 10
6.110377000000003
 20
41.26511200000001
 10
7.127006000000002
 20
41.52840200000001
 10
7.972583000000004
 20
41.673543
 10
8.641528000000001
 20
41.73165700000001
 10
9.119080000000004
 20
41.733404
 10
10.262811
 20
41.236674
 10
10.909542
 20
41.02116300000001
 10
11.527609
 20
40.867414
 10
12.113047
 20
40.77259
 10
12.662084
 20
40.733589
 10
13.171123
 20
40.74720800000001
 10
13.636805
 20
40.80992700000001
 10
14.055996
 20
40.918106
 10
14.425789
 20
41.067917
 10
14.743468
 20
41.255391
 10
15.006624
 20
41.476342
 10
15.21313
 20
41.726526
 10
15.3753
 20
42.03744700000001
 10
15.858787
 20
43.490906
 10
16.165441
 20
44.27397300000001
 10
16.502316
 20
45.04452200000001
 10
17.188189
 20
46.41415
 10
17.293372
 20
46.748675
 10
17.324257
 20
47.071604
 10
17.294414
 20
47.413919
 10
17.202345
 20
47.771117
 10
17.046794
 20
48.138532
 10
16.826876
 20
48.511439
 10
16.541939
 20
48.88507500000001
 10
16.191623
 20
49.25465000000001
 10
15.775817
 20
49.6153
 10
15.294799
 20
49.96221600000001
 10
14.749043
 20
50.290539
 10
14.139346
 20
50.595457
 10
12.979365
 20
51.052957
 10
12.64292
 20
51.391872
 10
12.210998
 20
51.90598000000001
 10
11.715715
 20
52.606524
 10
11.183023
 20
53.511563
 10
10.912666
 20
54.043584
 10
10.644518
 20
54.63108400000001
 10
10.384155
 20
55.27123
 10
10.134647
 20
55.966619
 10
9.899410000000003
 20
56.720313
 10
9.684722000000004
 20
57.525172
 10
9.493145000000002
 20
58.386639
 10
9.329410000000003
 20
59.30250900000001
 10
9.20975206339023
 20
60.17966953531378
 42
-0.02639842252943274
 10
11.90268
 20
62.87259700000001
 10
12.77984
 20
62.75294
 10
13.69571
 20
62.589205
 10
14.557177
 20
62.39762700000001
 10
15.362036
 20
62.182939
 10
16.115731
 20
61.947702
 10
16.811119
 20
61.69819400000001
 10
17.451266
 20
61.437831
 10
18.038765
 20
61.169683
 10
18.570786
 20
60.89932700000001
 10
19.475826
 20
60.36663500000001
 10
20.176369
 20
59.87135200000001
 10
20.690478
 20
59.439429
 10
21.029393
 20
59.102985
 10
21.486892
 20
57.94300400000001
 10
21.791811
 20
57.333307
 10
22.120134
 20
56.78755
 10
22.46705
 20
56.306532
 10
22.8277
 20
55.89072700000001
 10
23.197274
 20
55.540411
 10
23.570911
 20
55.255473
 10
23.943817
 20
55.03555500000001
 10
24.311233
 20
54.88000400000001
 10
24.66843
 20
54.787935
 10
25.010745
 20
54.758092
 10
25.333674
 20
54.788977
 10
25.668199
 20
54.89416000000001
 10
27.037827
 20
55.58003300000001
 10
27.808376
 20
55.916909
 10
28.591444
 20
56.22356200000001
 10
30.044902
 20
56.70705
 10
30.355823
 20
56.86921900000001
 10
30.606007
 20
57.075725
 10
30.826958
 20
57.33888100000001
 10
31.014433
 20
57.65656000000001
 10
31.164243
 20
58.026354
 10
31.272422
 20
58.44554400000001
 10
31.335142
 20
58.91122600000001
 10
31.34876
 20
59.42026500000001
 10
31.309759
 20
59.96930200000001
 10
31.214935
 20
60.55474
 10
31.061186
 20
61.172808
 10
30.845675
 20
61.819539
 10
30.348945
 20
62.96327
 10
30.350692
 20
63.44082100000001
 10
30.408807
 20
64.10976600000001
 10
30.553948
 20
64.955343
 10
30.817237
 20
65.97197299999999
 10
31.002262
 20
66.53933900000001
 10
31.228078
 20
67.144374
 10
31.496625
 20
67.78112999999999
 10
31.81191
 20
68.44927300000001
 10
32.178515
 20
69.14855299999999
 10
32.595829
 20
69.86948100000001
 10
33.069512
 20
70.61409599999999
 10
33.60135200000001
 20
71.37749199999999
 10
34.13698800000002
 20
72.08234899999999
 42
-0.02639841815457122
 10
37.945362
 20
72.08234899999999
 10
38.480998
 20
71.37749199999999
 10
39.012838
 20
70.61409599999999
 10
39.486521
 20
69.86948100000001
 10
39.903835
 20
69.14855299999999
 10
40.27044
 20
68.44927300000001
 10
40.585725
 20
67.78112999999999
 10
40.854272
 20
67.144374
 10
41.080088
 20
66.53933900000001
 10
41.265113
 20
65.97197299999999
 10
41.528402
 20
64.955343
 10
41.673543
 20
64.10976600000001
 10
41.731658
 20
63.44082100000001
 10
41.733405
 20
62.96327
 10
41.23667500000001
 20
61.819539
 10
41.021164
 20
61.172808
 10
40.867415
 20
60.55474
 10
40.77259100000001
 20
59.96930200000001
 10
40.73359
 20
59.42026500000001
 10
40.747208
 20
58.91122600000001
 10
40.809928
 20
58.44554400000001
 10
40.91810700000001
 20
58.026354
 10
41.067917
 20
57.65656000000001
 10
41.255392
 20
57.33888100000001
 10
41.476343
 20
57.075725
 10
41.726527
 20
56.86921900000001
 10
42.037448
 20
56.70705
 10
43.490906
 20
56.22356200000001
 10
44.273974
 20
55.916909
 10
45.04452300000001
 20
55.58003300000001
 10
46.414151
 20
54.89416000000001
 10
46.748676
 20
54.788977
 10
47.07160500000001
 20
54.758092
 10
47.41392
 20
54.787935
 10
47.771117
 20
54.88000400000001
 10
48.138533
 20
55.03555500000001
 10
48.511439
 20
55.255473
 10
48.88507600000001
 20
55.540411
 10
49.25465000000001
 20
55.89072700000001
 10
49.6153
 20
56.306532
 10
49.96221600000001
 20
56.78755
 10
50.290539
 20
57.333307
 10
50.595458
 20
57.94300400000001
 10
51.05295700000001
 20
59.102985
 10
51.39187200000001
 20
59.439429
 10
51.905981
 20
59.87135200000001
 10
52.60652400000001
 20
60.36663500000001
 10
53.51156400000001
 20
60.89932700000001
 10
54.04358500000001
 20
61.169683
 10
54.631084
 20
61.437831
 10
55.271231
 20
61.69819400000001
 10
55.966619
 20
61.947702
 10
56.720314
 20
62.182939
 10
57.525173
 20
62.39762700000001
 10
58.38664
 20
62.589205
 10
59.30251
 20
62.75294
 10
60.17967040364576
 20
62.87259705506303
 42
-0.02639842252943252
 10
62.87259800000001
 20
60.17967000000002
 10
62.75294
 20
59.30250900000001
 10
62.58920500000001
 20
58.386639
 10
62.397628
 20
57.525172
 10
62.18294
 20
56.720313
 10
61.947703
 20
55.966619
 10
61.698195
 20
55.27123
 10
61.437832
 20
54.63108400000001
 10
61.169684
 20
54.043584
 10
60.899327
 20
53.511563
 10
60.366635
 20
52.606524
 10
59.871352
 20
51.90598000000001
 10
59.43943
 20
51.391872
 10
59.102985
 20
51.052957
 10
57.943004
 20
50.595457
 10
57.333307
 20
50.290539
 10
56.78755100000001
 20
49.96221600000001
 10
56.306533
 20
49.6153
 10
55.890727
 20
49.25465000000001
 10
55.54041100000001
 20
48.88507500000001
 10
55.25547400000001
 20
48.511439
 10
55.035556
 20
48.138532
 10
54.880005
 20
47.771117
 10
54.787936
 20
47.413919
 10
54.758093
 20
47.071604
 10
54.788978
 20
46.748675
 10
54.894161
 20
46.41415
 10
55.580034
 20
45.04452200000001
 10
55.916909
 20
44.27397300000001
 10
56.223563
 20
43.490906
 10
56.70705
 20
42.03744700000001
 10
56.86922
 20
41.726526
 10
57.075726
 20
41.476342
 10
57.338882
 20
41.255391
 10
57.656561
 20
41.067917
 10
58.026354
 20
40.918106
 10
58.445545
 20
40.80992700000001
 10
58.911227
 20
40.74720800000001
 10
59.420266
 20
40.733589
 10
59.969303
 20
40.77259
 10
60.55474100000001
 20
40.867414
 10
61.172808
 20
41.02116300000001
 10
61.81953900000001
 20
41.236674
 10
62.96327
 20
41.733404
 10
63.440822
 20
41.73165700000001
 10
64.10976700000001
 20
41.673543
 10
64.955344
 20
41.52840200000001
 10
65.97197300000001
 20
41.26511200000001
 10
66.53934000000001
 20
41.080087
 10
67.144374
 20
40.854272
 10
67.781131
 20
40.58572400000001
 10
68.449274
 20
40.270439
 10
69.14855299999999
 20
39.903834
 10
69.869482
 20
39.486521
 10
70.614097
 20
39.012837
 10
71.377493
 20
38.48099700000001
 10
72.08234994495635
 20
37.94536204182878
 42
-0.02639842538626413
 10
72.08234999999999
 20
34.13698699999999
 10
71.377493
 20
33.601351
 10
70.614097
 20
33.069512
 10
69.869482
 20
32.595828
 10
69.14855299999999
 20
32.178514
 10
68.449274
 20
31.81191
 10
67.781131
 20
31.496625
 10
67.144374
 20
31.22807700000001
 10
66.53934000000001
 20
31.002261
  0
ENDSEC
  0
SECTION
  2
OBJECTS
  0
DICTIONARY
  5
C
330
0
100
AcDbDictionary
281
    1
  3
ACAD_GROUP
350
D
  0
DICTIONARY
  5
D
330
C
100
AcDbDictionary
281
    1
  0
ENDSEC
  0
EOF
