999
dxfrw 0.6.3
  0
SECTION
  2
HEADER
  9
$ACADVER
  1
AC1021
  9
$DWGCODEPAGE
  3
ANSI_1252
  9
$INSBASE
 10
0
 20
0
 30
0
  9
$EXTMIN
 10
-40.74366543152521
 20
-40.5720038364505
 30
0
  9
$EXTMAX
 10
686.1908866666665
 20
60
 30
0
  9
$LIMMIN
 10
0
 20
0
  9
$LIMMAX
 10
420
 20
297
  9
$ORTHOMODE
 70
    0
  9
$REGENMODE
 70
    1
  9
$FILLMODE
 70
    1
  9
$QTEXTMODE
 70
    0
  9
$MIRRTEXT
 70
    0
  9
$LTSCALE
 40
1
  9
$ATTMODE
 70
    0
  9
$TEXTSIZE
 40
2.5
  9
$TRACEWID
 40
15.68
  9
$TEXTSTYLE
  7
STANDARD
  9
$CLAYER
  8
0
  9
$CELTYPE
  6
BYLAYER
  9
$CECOLOR
 62
  256
  9
$CELTSCALE
 40
1
  9
$DISPSILH
 70
    0
  9
$DIMSCALE
 40
2.5
  9
$DIMASZ
 40
2.5
  9
$DIMEXO
 40
0.625
  9
$DIMDLI
 40
3.75
  9
$DIMRND
 40
0
  9
$DIMDLE
 40
0
  9
$DIMEXE
 40
1.25
  9
$DIMTP
 40
0
  9
$DIMTM
 40
0
  9
$DIMTXT
 40
2.5
  9
$DIMCEN
 40
2.5
  9
$DIMTSZ
 40
0
  9
$DIMTOL
 70
    0
  9
$DIMLIM
 70
    0
  9
$DIMTIH
 70
    0
  9
$DIMTOH
 70
    0
  9
$DIMSE1
 70
    0
  9
$DIMSE2
 70
    0
  9
$DIMTAD
 70
    1
  9
$DIMZIN
 70
    8
  9
$DIMBLK
  1

  9
$DIMASO
 70
    1
  9
$DIMSHO
 70
    1
  9
$DIMPOST
  1

  9
$DIMAPOST
  1

  9
$DIMALT
 70
    0
  9
$DIMALTD
 70
    3
  9
$DIMALTF
 40
0.03937
  9
$DIMLFAC
 40
1
  9
$DIMTOFL
 70
    1
  9
$DIMTVP
 40
0
  9
$DIMTIX
 70
    0
  9
$DIMSOXD
 70
    0
  9
$DIMSAH
 70
    0
  9
$DIMBLK1
  1

  9
$DIMBLK2
  1

  9
$DIMSTYLE
  2
Standard
  9
$DIMCLRD
 70
    0
  9
$DIMCLRE
 70
    0
  9
$DIMCLRT
 70
    0
  9
$DIMTFAC
 40
1
  9
$DIMGAP
 40
0.625
  9
$DIMJUST
 70
    0
  9
$DIMSD1
 70
    0
  9
$DIMSD2
 70
    0
  9
$DIMTOLJ
 70
    0
  9
$DIMTZIN
 70
    8
  9
$DIMALTZ
 70
    0
  9
$DIMALTTZ
 70
    0
  9
$DIMUPT
 70
    0
  9
$DIMDEC
 70
    2
  9
$DIMTDEC
 70
    2
  9
$DIMALTU
 70
    2
  9
$DIMALTTD
 70
    3
  9
$DIMTXSTY
  7
STANDARD
  9
$DIMAUNIT
 70
    0
  9
$DIMADEC
 70
    0
  9
$DIMALTRND
 40
0
  9
$DIMAZIN
 70
    0
  9
$DIMDSEP
 70
   44
  9
$DIMATFIT
 70
    3
  9
$DIMFRAC
 70
    0
  9
$DIMLDRBLK
  1
STANDARD
  9
$DIMLUNIT
 70
    2
  9
$DIMLWD
 70
   -2
  9
$DIMLWE
 70
   -2
  9
$DIMTMOVE
 70
    0
  9
$DIMFXL
 40
1
  9
$DIMFXLON
 70
    0
  9
$DIMJOGANG
 40
0.7854
  9
$DIMTFILL
 70
    0
  9
$DIMTFILLCLR
 70
    0
  9
$DIMARCSYM
 70
    0
  9
$DIMLTYPE
  6

  9
$DIMLTEX1
  6

  9
$DIMLTEX2
  6

  9
$LUNITS
 70
    2
  9
$LUPREC
 70
    4
  9
$SKETCHINC
 40
1
  9
$FILLETRAD
 40
0
  9
$AUNITS
 70
    0
  9
$AUPREC
 70
    2
  9
$MENU
  1
.
  9
$ELEVATION
 40
0
  9
$PELEVATION
 40
0
  9
$THICKNESS
 40
0
  9
$LIMCHECK
 70
    0
  9
$CHAMFERA
 40
0
  9
$CHAMFERB
 40
0
  9
$CHAMFERC
 40
0
  9
$CHAMFERD
 40
0
  9
$SKPOLY
 70
    0
  9
$USRTIMER
 70
    1
  9
$ANGBASE
 50
0
  9
$ANGDIR
 70
    0
  9
$PDMODE
 70
   34
  9
$PDSIZE
 40
0
  9
$PLINEWID
 40
0
  9
$SPLFRAME
 70
    0
  9
$SPLINETYPE
 70
    2
  9
$SPLINESEGS
 70
    8
  9
$HANDSEED
  5
20000
  9
$SURFTAB1
 70
    6
  9
$SURFTAB2
 70
    6
  9
$SURFTYPE
 70
    6
  9
$SURFU
 70
    6
  9
$SURFV
 70
    6
  9
$UCSBASE
  2

  9
$UCSNAME
  2

  9
$UCSORG
 10
0
 20
0
 30
0
  9
$UCSXDIR
 10
1
 20
0
 30
0
  9
$UCSYDIR
 10
0
 20
1
 30
0
  9
$UCSORTHOREF
  2

  9
$UCSORTHOVIEW
 70
    0
  9
$UCSORGTOP
 10
0
 20
0
 30
0
  9
$UCSORGBOTTOM
 10
0
 20
0
 30
0
  9
$UCSORGLEFT
 10
0
 20
0
 30
0
  9
$UCSORGRIGHT
 10
0
 20
0
 30
0
  9
$UCSORGFRONT
 10
0
 20
0
 30
0
  9
$UCSORGBACK
 10
0
 20
0
 30
0
  9
$PUCSBASE
  2

  9
$PUCSNAME
  2

  9
$PUCSORG
 10
0
 20
0
 30
0
  9
$PUCSXDIR
 10
1
 20
0
 30
0
  9
$PUCSYDIR
 10
0
 20
1
 30
0
  9
$PUCSORTHOREF
  2

  9
$PUCSORTHOVIEW
 70
    0
  9
$PUCSORGTOP
 10
0
 20
0
 30
0
  9
$PUCSORGBOTTOM
 10
0
 20
0
 30
0
  9
$PUCSORGLEFT
 10
0
 20
0
 30
0
  9
$PUCSORGRIGHT
 10
0
 20
0
 30
0
  9
$PUCSORGFRONT
 10
0
 20
0
 30
0
  9
$PUCSORGBACK
 10
0
 20
0
 30
0
  9
$USERI1
 70
    0
  9
$USERI2
 70
    0
  9
$USERI3
 70
    0
  9
$USERI4
 70
    0
  9
$USERI5
 70
    0
  9
$USERR1
 40
0
  9
$USERR2
 40
0
  9
$USERR3
 40
0
  9
$USERR4
 40
0
  9
$USERR5
 40
0
  9
$WORLDVIEW
 70
    1
  9
$SHADEDGE
 70
    3
  9
$SHADEDIF
 70
   70
  9
$TILEMODE
 70
    1
  9
$MAXACTVP
 70
   64
  9
$PINSBASE
 10
0
 20
0
 30
0
  9
$PLIMCHECK
 70
    0
  9
$PEXTMIN
 10
0
 20
0
 30
0
  9
$PEXTMAX
 10
0
 20
0
 30
0
  9
$GRIDMODE
 70
    1
  9
$SNAPSTYLE
 70
    0
  9
$PLIMMIN
 10
0
 20
0
  9
$PLIMMAX
 10
297
 20
210
  9
$UNITMODE
 70
    0
  9
$VISRETAIN
 70
    1
  9
$PLINEGEN
 70
    0
  9
$PSLTSCALE
 70
    1
  9
$TREEDEPTH
 70
 3020
  9
$CMLSTYLE
  2
Standard
  9
$CMLJUST
 70
    0
  9
$CMLSCALE
 40
20
  9
$PROXYGRAPHICS
 70
    1
  9
$MEASUREMENT
 70
    1
  9
$CELWEIGHT
370
   -1
  9
$ENDCAPS
280
    0
  9
$JOINSTYLE
280
    0
  9
$LWDISPLAY
290
    0
  9
$INSUNITS
 70
    4
  9
$HYPERLINKBASE
  1

  9
$STYLESHEET
  1

  9
$XEDIT
290
    1
  9
$CEPSNTYPE
380
    0
  9
$PSTYLEMODE
290
    1
  9
$EXTNAMES
290
    1
  9
$PSVPSCALE
 40
1
  9
$OLESTARTUP
290
    0
  9
$SORTENTS
280
  127
  9
$INDEXCTL
280
    0
  9
$HIDETEXT
280
    1
  9
$XCLIPFRAME
290
    0
  9
$HALOGAP
280
    0
  9
$OBSCOLOR
 70
  257
  9
$OBSLTYPE
280
    0
  9
$INTERSECTIONDISPLAY
280
    0
  9
$INTERSECTIONCOLOR
 70
  257
  9
$DIMASSOC
280
    1
  9
$PROJECTNAME
  1

  9
$CAMERADISPLAY
290
    0
  9
$LENSLENGTH
 40
50
  9
$CAMERAHEIGHT
 40
0
  9
$STEPSPERSEC
 40
2
  9
$STEPSIZE
 40
50
  9
$3DDWFPREC
 40
2
  9
$PSOLWIDTH
 40
5
  9
$PSOLHEIGHT
 40
80
  9
$LOFTANG1
 40
1.570796326794897
  9
$LOFTANG2
 40
1.570796326794897
  9
$LOFTMAG1
 40
0
  9
$LOFTMAG2
 40
0
  9
$LOFTPARAM
 70
    7
  9
$LOFTNORMALS
280
    1
  9
$LATITUDE
 40
1
  9
$LONGITUDE
 40
1
  9
$NORTHDIRECTION
 40
0
  9
$TIMEZONE
 70
-8000
  9
$LIGHTGLYPHDISPLAY
280
    1
  9
$TILEMODELIGHTSYNCH
280
    1
  9
$SOLIDHIST
280
    1
  9
$SHOWHIST
280
    1
  9
$DWFFRAME
280
    2
  9
$DGNFRAME
280
    0
  9
$REALWORLDSCALE
290
    1
  9
$INTERFERECOLOR
 62
    1
  9
$CSHADOW
280
    0
  9
$SHADOWPLANELOCATION
 40
0
  0
ENDSEC
  0
SECTION
  2
CLASSES
  0
ENDSEC
  0
SECTION
  2
TABLES
  0
TABLE
  2
VPORT
  5
8
330
0
100
AcDbSymbolTable
 70
    1
  0
VPORT
  5
31
330
2
100
AcDbSymbolTableRecord
100
AcDbViewportTableRecord
  2
*ACTIVE
 70
    0
 10
0
 20
0
 11
1
 21
1
 12
182.1829375327643
 22
79.57142643217213
 13
0
 23
0
 14
10
 24
10
 15
10
 25
10
 16
0
 26
0
 36
1
 17
0
 27
0
 37
0
 40
363.4157684812638
 41
1.664052287581699
 42
50
 43
0
 44
0
 50
0
 51
0
 71
    0
 72
  100
 73
    1
 74
    3
 75
    0
 76
    1
 77
    0
 78
    0
281
    0
 65
    1
110
0
120
0
130
0
111
1
121
0
131
0
112
0
122
1
132
0
 79
    0
146
0
348
10020
 60
    7
 61
    5
292
1
282
    1
141
0
142
0
 63
  250
421
3358443
  0
ENDTAB
  0
TABLE
  2
LTYPE
  5
5
330
0
100
AcDbSymbolTable
 70
    4
  0
LTYPE
  5
14
330
5
100
AcDbSymbolTableRecord
100
AcDbLinetypeTableRecord
  2
ByBlock
 70
    0
  3

 72
   65
 73
    0
 40
0
  0
LTYPE
  5
15
330
5
100
AcDbSymbolTableRecord
100
AcDbLinetypeTableRecord
  2
ByLayer
 70
    0
  3

 72
   65
 73
    0
 40
0
  0
LTYPE
  5
16
330
5
100
AcDbSymbolTableRecord
100
AcDbLinetypeTableRecord
  2
Continuous
 70
    0
  3
Solid line
 72
   65
 73
    0
 40
0
  0
LTYPE
  5
32
330
5
100
AcDbSymbolTableRecord
100
AcDbLinetypeTableRecord
  2
DOT
 70
    0
  3
Dot . . . . . . . . . . . . . . . . . . . . . .
 72
   65
 73
    2
 40
6.35
 49
0
 74
    0
 49
-6.35
 74
    0
  0
LTYPE
  5
33
330
5
100
AcDbSymbolTableRecord
100
AcDbLinetypeTableRecord
  2
DOTTINY
 70
    0
  3
Dot (.15x) .....................................
 72
   65
 73
    2
 40
0.9525
 49
0
 74
    0
 49
-0.9525
 74
    0
  0
LTYPE
  5
34
330
5
100
AcDbSymbolTableRecord
100
AcDbLinetypeTableRecord
  2
DOT2
 70
    0
  3
Dot (.5x) .....................................
 72
   65
 73
    2
 40
3.175
 49
0
 74
    0
 49
-3.175
 74
    0
  0
LTYPE
  5
35
330
5
100
AcDbSymbolTableRecord
100
AcDbLinetypeTableRecord
  2
DOTX2
 70
    0
  3
Dot (2x) .  .  .  .  .  .  .  .  .  .  .  .  .
 72
   65
 73
    2
 40
12.7
 49
0
 74
    0
 49
-12.7
 74
    0
  0
LTYPE
  5
36
330
5
100
AcDbSymbolTableRecord
100
AcDbLinetypeTableRecord
  2
DASHED
 70
    0
  3
Dashed _ _ _ _ _ _ _ _ _ _ _ _ _ _ _ _ _
 72
   65
 73
    2
 40
19.05
 49
12.7
 74
    0
 49
-6.35
 74
    0
  0
LTYPE
  5
37
330
5
100
AcDbSymbolTableRecord
100
AcDbLinetypeTableRecord
  2
DASHEDTINY
 70
    0
  3
Dashed (.15x) _ _ _ _ _ _ _ _ _ _ _ _ _ _ _ _ _
 72
   65
 73
    2
 40
2.8575
 49
1.905
 74
    0
 49
-0.9525
 74
    0
  0
LTYPE
  5
38
330
5
100
AcDbSymbolTableRecord
100
AcDbLinetypeTableRecord
  2
DASHED2
 70
    0
  3
Dashed (.5x) _ _ _ _ _ _ _ _ _ _ _ _ _ _ _ _ _
 72
   65
 73
    2
 40
9.524999999999999
 49
6.35
 74
    0
 49
-3.175
 74
    0
  0
LTYPE
  5
39
330
5
100
AcDbSymbolTableRecord
100
AcDbLinetypeTableRecord
  2
DASHEDX2
 70
    0
  3
Dashed (2x) ____  ____  ____  ____  ____  ___
 72
   65
 73
    2
 40
38.09999999999999
 49
25.4
 74
    0
 49
-12.7
 74
    0
  0
LTYPE
  5
3A
330
5
100
AcDbSymbolTableRecord
100
AcDbLinetypeTableRecord
  2
DASHDOT
 70
    0
  3
Dash dot __ . __ . __ . __ . __ . __ . __ . __
 72
   65
 73
    4
 40
25.4
 49
12.7
 74
    0
 49
-6.35
 74
    0
 49
0
 74
    0
 49
-6.35
 74
    0
  0
LTYPE
  5
3B
330
5
100
AcDbSymbolTableRecord
100
AcDbLinetypeTableRecord
  2
DASHDOTTINY
 70
    0
  3
Dash dot (.15x) _._._._._._._._._._._._._._._.
 72
   65
 73
    4
 40
3.81
 49
1.905
 74
    0
 49
-0.9525
 74
    0
 49
0
 74
    0
 49
-0.9525
 74
    0
  0
LTYPE
  5
3C
330
5
100
AcDbSymbolTableRecord
100
AcDbLinetypeTableRecord
  2
DASHDOT2
 70
    0
  3
Dash dot (.5x) _._._._._._._._._._._._._._._.
 72
   65
 73
    4
 40
12.7
 49
6.35
 74
    0
 49
-3.175
 74
    0
 49
0
 74
    0
 49
-3.175
 74
    0
  0
LTYPE
  5
3D
330
5
100
AcDbSymbolTableRecord
100
AcDbLinetypeTableRecord
  2
DASHDOTX2
 70
    0
  3
Dash dot (2x) ____  .  ____  .  ____  .  ___
 72
   65
 73
    4
 40
50.8
 49
25.4
 74
    0
 49
-12.7
 74
    0
 49
0
 74
    0
 49
-12.7
 74
    0
  0
LTYPE
  5
3E
330
5
100
AcDbSymbolTableRecord
100
AcDbLinetypeTableRecord
  2
DIVIDE
 70
    0
  3
Divide ____ . . ____ . . ____ . . ____ . . ____
 72
   65
 73
    6
 40
31.75
 49
12.7
 74
    0
 49
-6.35
 74
    0
 49
0
 74
    0
 49
-6.35
 74
    0
 49
0
 74
    0
 49
-6.35
 74
    0
  0
LTYPE
  5
3F
330
5
100
AcDbSymbolTableRecord
100
AcDbLinetypeTableRecord
  2
DIVIDETINY
 70
    0
  3
Divide (.15x) __..__..__..__..__..__..__..__.._
 72
   65
 73
    6
 40
4.7625
 49
1.905
 74
    0
 49
-0.9525
 74
    0
 49
0
 74
    0
 49
-0.9525
 74
    0
 49
0
 74
    0
 49
-0.9525
 74
    0
  0
LTYPE
  5
40
330
5
100
AcDbSymbolTableRecord
100
AcDbLinetypeTableRecord
  2
DIVIDE2
 70
    0
  3
Divide (.5x) __..__..__..__..__..__..__..__.._
 72
   65
 73
    6
 40
15.875
 49
6.35
 74
    0
 49
-3.175
 74
    0
 49
0
 74
    0
 49
-3.175
 74
    0
 49
0
 74
    0
 49
-3.175
 74
    0
  0
LTYPE
  5
41
330
5
100
AcDbSymbolTableRecord
100
AcDbLinetypeTableRecord
  2
DIVIDEX2
 70
    0
  3
Divide (2x) ________  .  .  ________  .  .  _
 72
   65
 73
    6
 40
63.5
 49
25.4
 74
    0
 49
-12.7
 74
    0
 49
0
 74
    0
 49
-12.7
 74
    0
 49
0
 74
    0
 49
-12.7
 74
    0
  0
LTYPE
  5
42
330
5
100
AcDbSymbolTableRecord
100
AcDbLinetypeTableRecord
  2
BORDER
 70
    0
  3
Border __ __ . __ __ . __ __ . __ __ . __ __ .
 72
   65
 73
    6
 40
44.45
 49
12.7
 74
    0
 49
-6.35
 74
    0
 49
12.7
 74
    0
 49
-6.35
 74
    0
 49
0
 74
    0
 49
-6.35
 74
    0
  0
LTYPE
  5
43
330
5
100
AcDbSymbolTableRecord
100
AcDbLinetypeTableRecord
  2
BORDERTINY
 70
    0
  3
Border (.15x) __.__.__.__.__.__.__.__.__.__.__.
 72
   65
 73
    6
 40
6.6675
 49
1.905
 74
    0
 49
-0.9525
 74
    0
 49
1.905
 74
    0
 49
-0.9525
 74
    0
 49
0
 74
    0
 49
-0.9525
 74
    0
  0
LTYPE
  5
44
330
5
100
AcDbSymbolTableRecord
100
AcDbLinetypeTableRecord
  2
BORDER2
 70
    0
  3
Border (.5x) __.__.__.__.__.__.__.__.__.__.__.
 72
   65
 73
    6
 40
22.225
 49
6.35
 74
    0
 49
-3.175
 74
    0
 49
6.35
 74
    0
 49
-3.175
 74
    0
 49
0
 74
    0
 49
-3.175
 74
    0
  0
LTYPE
  5
45
330
5
100
AcDbSymbolTableRecord
100
AcDbLinetypeTableRecord
  2
BORDERX2
 70
    0
  3
Border (2x) ____  ____  .  ____  ____  .  ___
 72
   65
 73
    6
 40
88.89999999999999
 49
25.4
 74
    0
 49
-12.7
 74
    0
 49
25.4
 74
    0
 49
-12.7
 74
    0
 49
0
 74
    0
 49
-12.7
 74
    0
  0
LTYPE
  5
46
330
5
100
AcDbSymbolTableRecord
100
AcDbLinetypeTableRecord
  2
CENTER
 70
    0
  3
Center ____ _ ____ _ ____ _ ____ _ ____ _ ____
 72
   65
 73
    4
 40
50.8
 49
31.75
 74
    0
 49
-6.35
 74
    0
 49
6.35
 74
    0
 49
-6.35
 74
    0
  0
LTYPE
  5
47
330
5
100
AcDbSymbolTableRecord
100
AcDbLinetypeTableRecord
  2
CENTERTINY
 70
    0
  3
Center (.15x) ___ _ ___ _ ___ _ ___ _ ___ _ ___
 72
   65
 73
    4
 40
7.62
 49
4.7625
 74
    0
 49
-0.9525
 74
    0
 49
0.9525
 74
    0
 49
-0.9525
 74
    0
  0
LTYPE
  5
48
330
5
100
AcDbSymbolTableRecord
100
AcDbLinetypeTableRecord
  2
CENTER2
 70
    0
  3
Center (.5x) ___ _ ___ _ ___ _ ___ _ ___ _ ___
 72
   65
 73
    4
 40
28.575
 49
19.05
 74
    0
 49
-3.175
 74
    0
 49
3.175
 74
    0
 49
-3.175
 74
    0
  0
LTYPE
  5
49
330
5
100
AcDbSymbolTableRecord
100
AcDbLinetypeTableRecord
  2
CENTERX2
 70
    0
  3
Center (2x) ________  __  ________  __  _____
 72
   65
 73
    4
 40
101.6
 49
63.5
 74
    0
 49
-12.7
 74
    0
 49
12.7
 74
    0
 49
-12.7
 74
    0
  0
ENDTAB
  0
TABLE
  2
LAYER
  5
2
330
0
100
AcDbSymbolTable
 70
    1
  0
LAYER
  5
10
330
2
100
AcDbSymbolTableRecord
100
AcDbLayerTableRecord
  2
0
 70
    0
 62
    7
  6
CONTINUOUS
370
    0
390
F
  0
LAYER
  5
4A
330
2
100
AcDbSymbolTableRecord
100
AcDbLayerTableRecord
  2
CAM
 70
    0
 62
    7
  6
CONTINUOUS
370
    0
390
F
1001
LibreCad
1070
    1
  0
LAYER
  5
4B
330
2
100
AcDbSymbolTableRecord
100
AcDbLayerTableRecord
  2
OpenJsCad
 70
    0
 62
    7
  6
CONTINUOUS
370
   -3
390
F
  0
ENDTAB
  0
TABLE
  2
STYLE
  5
3
330
0
100
AcDbSymbolTable
 70
    3
  0
STYLE
  5
4C
330
2
100
AcDbSymbolTableRecord
100
AcDbTextStyleTableRecord
  2
romanc
 70
    0
 40
0
 41
1
 50
0
 71
    0
 42
1
  3
romanc
  4

  0
STYLE
  5
4D
330
2
100
AcDbSymbolTableRecord
100
AcDbTextStyleTableRecord
  2
Standard
 70
    0
 40
0
 41
1
 50
0
 71
    0
 42
1
  3
txt
  4

  0
ENDTAB
  0
TABLE
  2
VIEW
  5
6
330
0
100
AcDbSymbolTable
 70
    0
  0
ENDTAB
  0
TABLE
  2
UCS
  5
7
330
0
100
AcDbSymbolTable
 70
    0
  0
ENDTAB
  0
TABLE
  2
APPID
  5
9
330
0
100
AcDbSymbolTable
 70
    1
  0
APPID
  5
12
330
9
100
AcDbSymbolTableRecord
100
AcDbRegAppTableRecord
  2
ACAD
 70
    0
  0
APPID
  5
4E
330
9
100
AcDbSymbolTableRecord
100
AcDbRegAppTableRecord
  2
LibreCad
 70
    0
  0
ENDTAB
  0
TABLE
  2
DIMSTYLE
  5
A
330
0
100
AcDbSymbolTable
 70
    1
100
AcDbDimStyleTable
 71
    1
  0
DIMSTYLE
105
4F
330
A
100
AcDbSymbolTableRecord
100
AcDbDimStyleTableRecord
  2
Standard
 70
    0
 40
2.5
 41
2.5
 42
0.625
 43
0.38
 44
1.25
 45
0
 46
0
 47
0
 48
0
 49
1
140
2.5
141
0.09
142
0
143
25.4
144
1
145
0
146
1
147
0.625
148
0
 71
    0
 72
    0
 73
    0
 74
    1
 75
    0
 76
    0
 77
    0
 78
    8
 79
    0
170
    0
171
    2
172
    0
173
    0
174
    0
175
    0
176
    0
177
    0
178
    0
179
    0
271
    2
272
    4
273
    2
274
    2
275
    0
276
    0
277
    2
278
   44
279
    0
280
    0
281
    0
282
    0
283
    1
284
    0
285
    0
286
    0
288
    0
289
    3
340
STANDARD
341

371
   -2
372
   -2
  0
ENDTAB
  0
TABLE
  2
BLOCK_RECORD
  5
1
330
0
100
AcDbSymbolTable
 70
    2
  0
BLOCK_RECORD
  5
1F
330
1
100
AcDbSymbolTableRecord
100
AcDbBlockTableRecord
  2
*Model_Space
 70
    0
280
    1
281
    0
  0
BLOCK_RECORD
  5
1E
330
1
100
AcDbSymbolTableRecord
100
AcDbBlockTableRecord
  2
*Paper_Space
 70
    0
280
    1
281
    0
  0
ENDTAB
  0
ENDSEC
  0
SECTION
  2
BLOCKS
  0
BLOCK
  5
20
330
1F
100
AcDbEntity
  8
0
100
AcDbBlockBegin
  2
*Model_Space
 70
    0
 10
0
 20
0
 30
0
  3
*Model_Space
  1

  0
ENDBLK
  5
21
330
1F
100
AcDbEntity
  8
0
100
AcDbBlockEnd
  0
BLOCK
  5
1C
330
1B
100
AcDbEntity
  8
0
100
AcDbBlockBegin
  2
*Paper_Space
 70
    0
 10
0
 20
0
 30
0
  3
*Paper_Space
  1

  0
ENDBLK
  5
1D
330
1F
100
AcDbEntity
  8
0
100
AcDbBlockEnd
  0
ENDSEC
  0
SECTION
  2
ENTITIES
  0
LWPOLYLINE
  5
50
100
AcDbEntity
  8
OpenJsCad
  6
ByLayer
 62
  256
370
   -1
100
AcDbPolyline
 90
  570
 70
    1
 43
0
 10
39.59845328598851
 20
-9.422254622245909
 10
39.85331858694728
 20
-8.471084369981492
 10
40.00736334434527
 20
-7.498484049632132
 10
39.24013893911219
 20
-6.922818324905341
 10
38.33161295705225
 20
-6.335477569732794
 10
37.5386326003207
 20
-5.89805890937946
 10
36.87693594471671
 20
-5.591166092373533
 10
36.36009086942849
 20
-5.393991056856294
 10
35.8048859543328
 20
-5.225500361658252
 10
35.44621989745752
 20
-5.04535168701019
 10
35.28667131353706
 20
-4.853606383835872
 10
35.52469439304584
 20
-2.588968056872708
 10
35.72062254779749
 20
-2.434584864471236
 10
36.10890590633938
 20
-2.33294373691313
 10
36.68700944728138
 20
-2.283568560306692
 10
37.23355521264727
 20
-2.198160405884875
 10
37.94459881322334
 20
-2.035548403723178
 10
38.81119509985932
 20
-1.772558277336193
 10
39.82198261890108
 20
-1.386945499936105
 10
40.69212896428594
 20
-0.9833743757948937
 10
40.74366543152522
 20
7.823900491013153e-15
 10
40.69212896428595
 20
0.9833743757948923
 10
39.821982618909
 20
1.386945499932428
 10
38.81119509985865
 20
1.77255827733569
 10
37.94459881322334
 20
2.035548403723172
 10
37.2335552126472
 20
2.198160405884878
 10
36.6870094472815
 20
2.283568560306662
 10
36.10890590633934
 20
2.332943736912722
 10
35.72062254779748
 20
2.434584864471222
 10
35.52469439304587
 20
2.588968056872674
 10
35.28667131353704
 20
4.853606383835833
 10
35.44621989745754
 20
5.045351687010177
 10
35.80488595433292
 20
5.225500361657859
 10
36.36009086942839
 20
5.393991056856241
 10
36.8769359447168
 20
5.591166092373553
 10
37.5386326003207
 20
5.898058909379455
 10
38.33161295705301
 20
6.335477569732443
 10
39.2401389391052
 20
6.922818324900098
 10
40.00736334434527
 20
7.498484049632129
 10
39.85331858694728
 20
8.471084369981504
 10
39.59845328598852
 20
9.422254622245887
 10
38.66341457118612
 20
9.636093151120248
 10
37.59454178002449
 20
9.803124822006302
 10
36.69220397960174
 20
9.880192483938158
 10
35.96288945136436
 20
9.891416746462216
 10
35.41052966848522
 20
9.861325273606518
 10
34.83479340048434
 20
9.789426999474527
 10
34.43386258623445
 20
9.808118374940916
 10
34.21011786118192
 20
9.91839217024881
 10
33.50645137339149
 20
12.08405493538331
 10
33.62264734776445
 20
12.30478215948576
 10
33.93602067521719
 20
12.55556501969167
 10
34.44406184550768
 20
12.83580738159377
 10
34.90861762083065
 20
13.13613180300367
 10
35.49204801243967
 20
13.5738927461155
 10
36.1767553925372
 20
14.16662264600945
 10
36.94331289259279
 20
14.93002176957021
 10
37.57408396962791
 20
15.65262274037165
 10
37.22119048267972
 20
16.57194170422209
 10
36.77413518463276
 20
17.44933712871076
 10
35.81506977905532
 20
17.46409729249903
 10
34.7348265857769
 20
17.40524777134327
 10
33.83618376334234
 20
17.29302474218141
 10
33.12047285196708
 20
17.15237071093553
 10
32.58643982460263
 20
17.00809475256105
 10
32.0382332671438
 20
16.81806532727677
 10
31.64217759764808
 20
16.752990047852
 10
31.40039502042575
 20
16.814334952059
 10
30.26183872643657
 20
18.78637230052555
 10
30.32960376961177
 20
19.02643460669609
 10
30.5839884495001
 20
19.33689123807955
 10
31.02266203799192
 20
19.71663733071819
 10
31.41462519678192
 20
20.10698551968861
 10
31.89429061667312
 20
20.65648233508231
 10
32.44080002203504
 20
21.37861833365825
 10
33.03188679899061
 20
22.28471162071709
 10
33.49863682497892
 20
23.12266670773974
 10
32.96231774723097
 20
23.94852566498917
 10
32.34261091382981
 20
24.71379987144159
 10
31.40143457780747
 20
24.5288365801591
 10
30.35703279354046
 20
24.24667787342737
 10
29.50135995260118
 20
23.950068838052
 10
28.83053265927713
 20
23.66368376913456
 10
28.33816619329797
 20
23.41152887693512
 10
27.84144860352905
 20
23.11167349824583
 10
27.46757761203044
 20
22.96567566590659
 10
27.21832424146446
 20
22.97541061233335
 10
25.69463851472311
 20
24.66763504911886
 10
25.71101096914102
 20
24.9165405626311
 10
25.89528917028072
 20
25.27310252066444
 10
26.24542303616733
 20
25.7357556175674
 10
26.54766290753733
 20
26.1990674851419
 10
26.9025996751714
 20
26.8362845252065
 10
27.28702602234033
 20
27.65626581413367
 10
27.67680874769387
 20
28.66545264012813
 10
27.95913850678455
 20
29.5821391851145
 10
27.26283355547891
 20
30.27844413642014
 10
26.49755934902648
 20
30.89815096982129
 10
25.61540600470855
 20
30.52154800684943
 10
24.65249099902123
 20
30.02841180397359
 10
23.8771851487001
 20
29.56038000051869
 10
23.28055984513201
 20
29.1407802956694
 10
22.85137871773787
 20
28.79176684840754
 10
22.42785903784722
 20
28.39519063522771
 10
22.09251268070626
 20
28.17465105582256
 10
21.84668208514072
 20
28.13235058059676
 10
20.00445930336112
 20
29.47080377761995
 10
19.96872361419993
 20
29.71767413315222
 10
20.07484149493626
 20
30.1047579492953
 10
20.32113310814974
 20
30.63009789007203
 10
20.52044035941305
 20
31.1461244844206
 10
20.73513603486881
 20
31.84321230679868
 10
20.94067804779119
 20
32.72520176904419
 10
21.11212134605972
 20
33.79337582706265
 10
21.19769167301202
 20
34.74873022924673
 10
20.3718327157626
 20
35.28504930699469
 10
19.49443729127393
 20
35.73210460504163
 10
18.70986127284851
 20
35.18032132700378
 10
17.87051705206823
 20
34.49776004637956
 10
17.20946277835454
 20
33.87876071052186
 10
16.71311485323418
 20
33.34428489030541
 10
16.36587633913172
 20
32.9136664503788
 10
16.03406441140345
 20
32.43770168620819
 10
15.75189893359757
 20
32.15225899762345
 10
15.52023508968476
 20
32.05977183449266
 10
13.43998922839636
 20
32.9859569644326
 10
13.35370721675128
 20
33.22000274283275
 10
13.37702691648598
 20
33.62069099688587
 10
13.50871215169062
 20
34.18575790526371
 10
13.59637609958473
 20
34.73194638804301
 10
13.6614474516206
 20
35.45843890989815
 10
13.67912195803171
 20
36.36388937370688
 10
13.62473293440468
 20
37.4443663317461
 10
13.5098039953188
 20
38.39663501945342
 10
12.59048503146836
 20
38.74952850640165
 10
11.63931477920397
 20
39.00439380736038
 10
10.98660582348968
 20
38.30154579125673
 10
10.30751575768499
 20
37.45939063613981
 10
9.789604304430352
 20
36.71647700914467
 10
9.41522654382708
 20
36.09048423160406
 10
9.165106632317835
 20
35.59708089117402
 10
8.939504230203958
 20
35.06252952013921
 10
8.722851617093445
 20
34.72465893757202
 10
8.515479346458822
 20
34.58602721936771
 10
6.288127131927069
 20
35.05946554771667
 10
6.155069735734009
 20
35.27045782539237
 10
6.09457207168834
 20
35.66723851793785
 10
6.105895652209819
 20
36.24733625852884
 10
6.078084961553466
 20
36.79981557213827
 10
5.990688059838502
 20
37.5239615841675
 10
5.819722598996488
 20
38.41330051943762
 10
5.541878314793888
 20
39.45885834972763
 10
5.23147305579811
 20
40.36642261181323
 10
4.258872735448735
 20
40.52046736921125
 10
3.275498359653849
 20
40.5720038364505
 10
2.783182980060465
 20
39.74880891322374
 10
2.294026563742692
 20
38.78386610500153
 10
1.941893146669227
 20
37.94950707726372
 10
1.705847655185215
 20
37.25935623062409
 10
1.563777786610636
 20
36.72473208327932
 10
1.454244817643962
 20
36.15495656535662
 10
1.312573828036329
 20
35.77942465454809
 10
1.138556293989179
 20
35.60070725258459
 10
-1.138556293989149
 20
35.60070725258457
 10
-1.312573828036322
 20
35.77942465454811
 10
-1.454244817643566
 20
36.15495656535671
 10
-1.563777786610601
 20
36.72473208327921
 10
-1.705847655185232
 20
37.25935623062416
 10
-1.941893146669228
 20
37.94950707726372
 10
-2.294026563742268
 20
38.78386610500224
 10
-2.783182980055987
 20
39.74880891321624
 10
-3.275498359653854
 20
40.57200383645049
 10
-4.258872735448748
 20
40.52046736921125
 10
-5.231473055798106
 20
40.36642261181325
 10
-5.541878314791059
 20
39.4588583497359
 10
-5.819722598995916
 20
38.41330051943701
 10
-5.990688059838494
 20
37.52396158416751
 10
-6.078084961553458
 20
36.7998155721382
 10
-6.105895652209797
 20
36.24733625852897
 10
-6.094572071687926
 20
35.66723851793786
 10
-6.155069735733991
 20
35.27045782539237
 10
-6.288127131927033
 20
35.05946554771671
 10
-8.515479346458777
 20
34.58602721936771
 10
-8.722851617093431
 20
34.72465893757204
 10
-8.93950423020358
 20
35.06252952013939
 10
-9.165106632317769
 20
35.59708089117392
 10
-9.415226543827103
 20
36.09048423160414
 10
-9.789604304430345
 20
36.71647700914468
 10
-10.30751575768471
 20
37.4593906361406
 10
-10.98660582348373
 20
38.30154579125033
 10
-11.63931477920397
 20
39.00439380736039
 10
-12.59048503146836
 20
38.74952850640165
 10
-13.50980399531879
 20
38.39663501945343
 10
-13.62473293440363
 20
37.44436633175477
 10
-13.67912195803102
 20
36.36388937370639
 10
-13.66144745162059
 20
35.45843890989816
 10
-13.5963760995847
 20
34.73194638804294
 10
-13.50871215169061
 20
34.18575790526384
 10
-13.37702691648557
 20
33.62069099688596
 10
-13.35370721675126
 20
33.22000274283275
 10
-13.43998922839633
 20
32.98595696443263
 10
-15.52023508968471
 20
32.05977183449266
 10
-15.75189893359755
 20
32.15225899762346
 10
-16.03406441140312
 20
32.43770168620843
 10
-16.36587633913163
 20
32.91366645037873
 10
-16.71311485323422
 20
33.34428489030549
 10
-17.20946277835453
 20
33.87876071052187
 10
-17.87051705206813
 20
34.49776004638039
 10
-18.70986127284136
 20
35.18032132699876
 10
-19.49443729127392
 20
35.73210460504163
 10
-20.37183271576261
 20
35.28504930699469
 10
-21.19769167301202
 20
34.74873022924675
 10
-21.11212134606049
 20
33.79337582707135
 10
-20.94067804779042
 20
32.72520176904387
 10
-20.7351360348688
 20
31.84321230679869
 10
-20.52044035941302
 20
31.14612448442054
 10
-20.32113310814978
 20
30.63009789007214
 10
-20.07484149493589
 20
30.10475794929547
 10
-19.96872361419992
 20
29.71767413315223
 10
-20.00445930336111
 20
29.47080377761999
 10
-21.84668208514067
 20
28.13235058059677
 10
-22.09251268070626
 20
28.17465105582258
 10
-22.42785903784694
 20
28.39519063522801
 10
-22.85137871773777
 20
28.79176684840748
 10
-23.28055984513207
 20
29.14078029566946
 10
-23.8771851487001
 20
29.5603800005187
 10
-24.6524909990213
 20
30.02841180397444
 10
-25.61540600470052
 20
30.52154800684601
 10
-26.49755934902647
 20
30.8981509698213
 10
-27.26283355547892
 20
30.27844413642014
 10
-27.95913850678455
 20
29.58213918511451
 10
-27.67680874769643
 20
28.66545264013649
 10
-27.2870260223395
 20
27.65626581413352
 10
-26.90259967517139
 20
26.83628452520652
 10
-26.54766290753728
 20
26.19906748514185
 10
-26.24542303616738
 20
25.73575561756751
 10
-25.89528917028038
 20
25.2731025206647
 10
-25.711010969141
 20
24.91654056263111
 10
-25.6946385147231
 20
24.66763504911891
 10
-27.21832424146441
 20
22.97541061233337
 10
-27.46757761203044
 20
22.96567566590662
 10
-27.84144860352884
 20
23.11167349824619
 10
-28.33816619329785
 20
23.41152887693508
 10
-28.83053265927718
 20
23.66368376913461
 10
-29.50135995260117
 20
23.95006883805201
 10
-30.3570327935407
 20
24.24667787342817
 10
-31.40143457779889
 20
24.52883658015742
 10
-32.34261091382979
 20
24.71379987144159
 10
-32.96231774723096
 20
23.94852566498916
 10
-33.49863682497891
 20
23.12266670773975
 10
-33.03188679899484
 20
22.28471162072472
 10
-32.4408000220342
 20
21.37861833365826
 10
-31.8942906166731
 20
20.65648233508232
 10
-31.41462519678185
 20
20.10698551968857
 10
-31.02266203799198
 20
19.71663733071828
 10
-30.58398844949983
 20
19.33689123807986
 10
-30.32960376961174
 20
19.02643460669611
 10
-30.26183872643656
 20
18.7863723005256
 10
-31.40039502042571
 20
16.81433495205902
 10
-31.64217759764808
 20
16.75299004785202
 10
-32.03823326714365
 20
16.81806532727716
 10
-32.58643982460251
 20
17.00809475256104
 10
-33.12047285196714
 20
17.15237071093556
 10
-33.83618376334233
 20
17.29302474218142
 10
-34.7348265857773
 20
17.405247771344
 10
-35.81506977904658
 20
17.46409729249917
 10
-36.77413518463275
 20
17.44933712871076
 10
-37.22119048267972
 20
16.57194170422208
 10
-37.57408396962791
 20
15.65262274037165
 10
-36.94331289259853
 20
14.9300217695768
 10
-36.17675539253638
 20
14.16662264600964
 10
-35.49204801243967
 20
13.5738927461155
 10
-34.90861762083059
 20
13.13613180300364
 10
-34.44406184550776
 20
12.83580738159384
 10
-33.93602067521698
 20
12.55556501969203
 10
-33.62264734776443
 20
12.30478215948577
 10
-33.50645137339149
 20
12.08405493538335
 10
-34.2101178611819
 20
9.918392170248838
 10
-34.43386258623445
 20
9.808118374940932
 10
-34.8347934004843
 20
9.789426999474934
 10
-35.41052966848511
 20
9.861325273606523
 10
-35.96288945136444
 20
9.89141674646223
 10
-36.69220397960175
 20
9.880192483938163
 10
-37.59454178002504
 20
9.803124822006932
 10
-38.6634145711776
 20
9.636093151122198
 10
-39.59845328598852
 20
9.422254622245887
 10
-39.85331858694728
 20
8.471084369981497
 10
-40.00736334434527
 20
7.498484049632137
 10
-39.24013893911219
 20
6.922818324905346
 10
-38.33161295705225
 20
6.335477569732799
 10
-37.5386326003207
 20
5.898058909379464
 10
-36.87693594471671
 20
5.591166092373538
 10
-36.36009086942849
 20
5.393991056856298
 10
-35.8048859543328
 20
5.225500361658256
 10
-35.44621989745752
 20
5.045351687010195
 10
-35.28667131353706
 20
4.853606383835876
 10
-35.52469439304584
 20
2.588968056872713
 10
-35.72062254779749
 20
2.434584864471241
 10
-36.10890590633938
 20
2.332943736913135
 10
-36.68700944728138
 20
2.283568560306696
 10
-37.23355521264727
 20
2.19816040588488
 10
-37.94459881322334
 20
2.035548403723183
 10
-38.81119509985932
 20
1.772558277336198
 10
-39.82198261890108
 20
1.386945499936109
 10
-40.69212896428594
 20
0.9833743757948987
 10
-40.74366543152521
 20
-1.492932784861415e-14
 10
-40.69212896428594
 20
-0.9833743757948985
 10
-39.821982618909
 20
-1.386945499932436
 10
-38.81119509985865
 20
-1.772558277335697
 10
-37.94459881322334
 20
-2.035548403723179
 10
-37.2335552126472
 20
-2.198160405884885
 10
-36.6870094472815
 20
-2.283568560306668
 10
-36.10890590633934
 20
-2.332943736912728
 10
-35.72062254779748
 20
-2.434584864471228
 10
-35.52469439304586
 20
-2.588968056872681
 10
-35.28667131353703
 20
-4.853606383835839
 10
-35.44621989745753
 20
-5.045351687010183
 10
-35.80488595433292
 20
-5.225500361657867
 10
-36.36009086942838
 20
-5.393991056856248
 10
-36.87693594471679
 20
-5.59116609237356
 10
-37.5386326003207
 20
-5.898058909379462
 10
-38.33161295705301
 20
-6.335477569732448
 10
-39.2401389391052
 20
-6.922818324900105
 10
-40.00736334434526
 20
-7.498484049632137
 10
-39.85331858694728
 20
-8.471084369981504
 10
-39.59845328598852
 20
-9.422254622245887
 10
-38.66341457118612
 20
-9.636093151120248
 10
-37.59454178002449
 20
-9.803124822006302
 10
-36.69220397960174
 20
-9.880192483938158
 10
-35.96288945136436
 20
-9.891416746462216
 10
-35.41052966848522
 20
-9.861325273606518
 10
-34.83479340048434
 20
-9.789426999474527
 10
-34.43386258623445
 20
-9.808118374940916
 10
-34.21011786118192
 20
-9.91839217024881
 10
-33.50645137339149
 20
-12.08405493538331
 10
-33.62264734776445
 20
-12.30478215948576
 10
-33.93602067521719
 20
-12.55556501969167
 10
-34.44406184550768
 20
-12.83580738159377
 10
-34.90861762083065
 20
-13.13613180300367
 10
-35.49204801243967
 20
-13.5738927461155
 10
-36.1767553925372
 20
-14.16662264600945
 10
-36.94331289259279
 20
-14.93002176957021
 10
-37.57408396962791
 20
-15.65262274037165
 10
-37.22119048267972
 20
-16.57194170422209
 10
-36.77413518463276
 20
-17.44933712871075
 10
-35.81506977905532
 20
-17.46409729249902
 10
-34.7348265857769
 20
-17.40524777134326
 10
-33.83618376334234
 20
-17.2930247421814
 10
-33.12047285196708
 20
-17.15237071093553
 10
-32.58643982460263
 20
-17.00809475256105
 10
-32.0382332671438
 20
-16.81806532727677
 10
-31.64217759764808
 20
-16.75299004785199
 10
-31.40039502042575
 20
-16.814334952059
 10
-30.26183872643657
 20
-18.78637230052555
 10
-30.32960376961177
 20
-19.02643460669609
 10
-30.5839884495001
 20
-19.33689123807955
 10
-31.02266203799192
 20
-19.71663733071819
 10
-31.41462519678192
 20
-20.10698551968861
 10
-31.89429061667312
 20
-20.65648233508231
 10
-32.44080002203504
 20
-21.37861833365824
 10
-33.03188679899061
 20
-22.28471162071708
 10
-33.49863682497892
 20
-23.12266670773974
 10
-32.96231774723098
 20
-23.94852566498916
 10
-32.34261091382982
 20
-24.71379987144158
 10
-31.40143457780747
 20
-24.52883658015909
 10
-30.35703279354047
 20
-24.24667787342736
 10
-29.50135995260119
 20
-23.95006883805199
 10
-28.83053265927713
 20
-23.66368376913455
 10
-28.33816619329798
 20
-23.41152887693511
 10
-27.84144860352906
 20
-23.11167349824582
 10
-27.46757761203045
 20
-22.96567566590659
 10
-27.21832424146446
 20
-22.97541061233334
 10
-25.69463851472312
 20
-24.66763504911886
 10
-25.71101096914103
 20
-24.91654056263109
 10
-25.89528917028072
 20
-25.27310252066444
 10
-26.24542303616734
 20
-25.73575561756739
 10
-26.54766290753734
 20
-26.19906748514189
 10
-26.90259967517141
 20
-26.83628452520649
 10
-27.28702602234034
 20
-27.65626581413366
 10
-27.67680874769388
 20
-28.66545264012813
 10
-27.95913850678456
 20
-29.58213918511449
 10
-27.26283355547892
 20
-30.27844413642014
 10
-26.49755934902649
 20
-30.89815096982129
 10
-25.61540600470857
 20
-30.52154800684942
 10
-24.65249099902124
 20
-30.02841180397359
 10
-23.87718514870012
 20
-29.56038000051869
 10
-23.28055984513202
 20
-29.14078029566939
 10
-22.85137871773789
 20
-28.79176684840753
 10
-22.42785903784723
 20
-28.3951906352277
 10
-22.09251268070627
 20
-28.17465105582255
 10
-21.84668208514073
 20
-28.13235058059675
 10
-20.00445930336113
 20
-29.47080377761995
 10
-19.96872361419994
 20
-29.71767413315222
 10
-20.07484149493628
 20
-30.10475794929529
 10
-20.32113310814976
 20
-30.63009789007202
 10
-20.52044035941307
 20
-31.1461244844206
 10
-20.73513603486882
 20
-31.84321230679868
 10
-20.9406780477912
 20
-32.72520176904418
 10
-21.11212134605973
 20
-33.79337582706265
 10
-21.19769167301203
 20
-34.74873022924673
 10
-20.3718327157626
 20
-35.28504930699469
 10
-19.49443729127394
 20
-35.73210460504163
 10
-18.70986127284851
 20
-35.18032132700378
 10
-17.87051705206824
 20
-34.49776004637956
 10
-17.20946277835455
 20
-33.87876071052186
 10
-16.71311485323418
 20
-33.34428489030541
 10
-16.36587633913172
 20
-32.9136664503788
 10
-16.03406441140346
 20
-32.43770168620819
 10
-15.75189893359757
 20
-32.15225899762345
 10
-15.52023508968477
 20
-32.05977183449266
 10
-13.43998922839637
 20
-32.9859569644326
 10
-13.35370721675129
 20
-33.22000274283275
 10
-13.37702691648599
 20
-33.62069099688587
 10
-13.50871215169062
 20
-34.18575790526371
 10
-13.59637609958473
 20
-34.73194638804301
 10
-13.66144745162061
 20
-35.45843890989815
 10
-13.67912195803172
 20
-36.36388937370688
 10
-13.62473293440469
 20
-37.4443663317461
 10
-13.5098039953188
 20
-38.39663501945342
 10
-12.59048503146836
 20
-38.74952850640165
 10
-11.63931477920397
 20
-39.00439380736039
 10
-10.98660582348968
 20
-38.30154579125674
 10
-10.30751575768498
 20
-37.45939063613982
 10
-9.78960430443035
 20
-36.71647700914467
 10
-9.415226543827076
 20
-36.09048423160406
 10
-9.165106632317832
 20
-35.59708089117402
 10
-8.939504230203957
 20
-35.06252952013922
 10
-8.722851617093442
 20
-34.72465893757202
 10
-8.515479346458818
 20
-34.58602721936771
 10
-6.288127131927066
 20
-35.05946554771668
 10
-6.155069735734006
 20
-35.27045782539237
 10
-6.094572071688336
 20
-35.66723851793785
 10
-6.105895652209815
 20
-36.24733625852885
 10
-6.078084961553462
 20
-36.79981557213828
 10
-5.990688059838498
 20
-37.52396158416751
 10
-5.819722598996485
 20
-38.41330051943763
 10
-5.541878314793885
 20
-39.45885834972763
 10
-5.231473055798107
 20
-40.36642261181324
 10
-4.258872735448722
 20
-40.52046736921125
 10
-3.275498359653836
 20
-40.5720038364505
 10
-2.783182980060453
 20
-39.74880891322374
 10
-2.294026563742679
 20
-38.78386610500153
 10
-1.941893146669215
 20
-37.94950707726372
 10
-1.705847655185203
 20
-37.25935623062409
 10
-1.563777786610624
 20
-36.72473208327933
 10
-1.45424481764395
 20
-36.15495656535663
 10
-1.312573828036318
 20
-35.77942465454809
 10
-1.138556293989168
 20
-35.60070725258459
 10
1.13855629398916
 20
-35.60070725258457
 10
1.312573828036334
 20
-35.77942465454811
 10
1.454244817643577
 20
-36.15495656535671
 10
1.563777786610612
 20
-36.72473208327921
 10
1.705847655185244
 20
-37.25935623062416
 10
1.941893146669241
 20
-37.94950707726372
 10
2.294026563742281
 20
-38.78386610500224
 10
2.783182980056
 20
-39.74880891321624
 10
3.275498359653867
 20
-40.57200383645049
 10
4.258872735448745
 20
-40.52046736921125
 10
5.231473055798102
 20
-40.36642261181325
 10
5.541878314791053
 20
-39.4588583497359
 10
5.819722598995912
 20
-38.41330051943701
 10
5.990688059838488
 20
-37.5239615841675
 10
6.078084961553454
 20
-36.7998155721382
 10
6.105895652209793
 20
-36.24733625852897
 10
6.094572071687923
 20
-35.66723851793786
 10
6.155069735733986
 20
-35.27045782539237
 10
6.28812713192703
 20
-35.05946554771671
 10
8.515479346458774
 20
-34.58602721936771
 10
8.722851617093427
 20
-34.72465893757204
 10
8.939504230203575
 20
-35.06252952013939
 10
9.165106632317766
 20
-35.59708089117392
 10
9.415226543827099
 20
-36.09048423160414
 10
9.789604304430339
 20
-36.71647700914468
 10
10.30751575768471
 20
-37.4593906361406
 10
10.98660582348373
 20
-38.30154579125033
 10
11.63931477920396
 20
-39.00439380736039
 10
12.59048503146838
 20
-38.74952850640164
 10
13.5098039953188
 20
-38.39663501945343
 10
13.62473293440364
 20
-37.44436633175478
 10
13.67912195803103
 20
-36.36388937370639
 10
13.6614474516206
 20
-35.45843890989815
 10
13.59637609958471
 20
-34.73194638804294
 10
13.50871215169063
 20
-34.18575790526383
 10
13.37702691648559
 20
-33.62069099688596
 10
13.35370721675127
 20
-33.22000274283275
 10
13.43998922839634
 20
-32.98595696443263
 10
15.52023508968472
 20
-32.05977183449266
 10
15.75189893359756
 20
-32.15225899762346
 10
16.03406441140313
 20
-32.43770168620843
 10
16.36587633913165
 20
-32.91366645037872
 10
16.71311485323423
 20
-33.34428489030548
 10
17.20946277835454
 20
-33.87876071052187
 10
17.87051705206814
 20
-34.49776004638039
 10
18.70986127284137
 20
-35.18032132699876
 10
19.49443729127393
 20
-35.73210460504163
 10
20.37183271576259
 20
-35.2850493069947
 10
21.197691673012
 20
-34.74873022924675
 10
21.11212134606048
 20
-33.79337582707137
 10
20.9406780477904
 20
-32.72520176904388
 10
20.73513603486879
 20
-31.8432123067987
 10
20.520440359413
 20
-31.14612448442055
 10
20.32113310814976
 20
-30.63009789007215
 10
20.07484149493587
 20
-30.10475794929548
 10
19.9687236141999
 20
-29.71767413315224
 10
20.00445930336109
 20
-29.47080377762
 10
21.84668208514066
 20
-28.13235058059678
 10
22.09251268070624
 20
-28.17465105582259
 10
22.42785903784692
 20
-28.39519063522803
 10
22.85137871773775
 20
-28.79176684840749
 10
23.28055984513205
 20
-29.14078029566948
 10
23.87718514870009
 20
-29.56038000051871
 10
24.65249099902128
 20
-30.02841180397445
 10
25.6154060047005
 20
-30.52154800684602
 10
26.49755934902646
 20
-30.89815096982131
 10
27.26283355547892
 20
-30.27844413642015
 10
27.95913850678455
 20
-29.58213918511451
 10
27.67680874769643
 20
-28.66545264013649
 10
27.2870260223395
 20
-27.65626581413352
 10
26.90259967517139
 20
-26.83628452520652
 10
26.54766290753728
 20
-26.19906748514185
 10
26.24542303616738
 20
-25.73575561756751
 10
25.89528917028038
 20
-25.2731025206647
 10
25.711010969141
 20
-24.91654056263112
 10
25.6946385147231
 20
-24.66763504911891
 10
27.21832424146441
 20
-22.97541061233337
 10
27.46757761203044
 20
-22.96567566590662
 10
27.84144860352884
 20
-23.11167349824619
 10
28.33816619329785
 20
-23.41152887693509
 10
28.83053265927718
 20
-23.66368376913461
 10
29.50135995260117
 20
-23.95006883805201
 10
30.3570327935407
 20
-24.24667787342817
 10
31.40143457779889
 20
-24.52883658015742
 10
32.34261091382979
 20
-24.7137998714416
 10
32.96231774723098
 20
-23.94852566498916
 10
33.49863682497892
 20
-23.12266670773974
 10
33.03188679899485
 20
-22.28471162072471
 10
32.44080002203421
 20
-21.37861833365826
 10
31.89429061667311
 20
-20.65648233508231
 10
31.41462519678186
 20
-20.10698551968856
 10
31.02266203799199
 20
-19.71663733071827
 10
30.58398844949983
 20
-19.33689123807985
 10
30.32960376961175
 20
-19.0264346066961
 10
30.26183872643657
 20
-18.78637230052559
 10
31.40039502042572
 20
-16.81433495205902
 10
31.64217759764809
 20
-16.75299004785201
 10
32.03823326714367
 20
-16.81806532727716
 10
32.58643982460251
 20
-17.00809475256103
 10
33.12047285196716
 20
-17.15237071093555
 10
33.83618376334235
 20
-17.29302474218141
 10
34.73482658577731
 20
-17.405247771344
 10
35.81506977904659
 20
-17.46409729249916
 10
36.77413518463276
 20
-17.44933712871075
 10
37.22119048267971
 20
-16.5719417042221
 10
37.57408396962791
 20
-15.65262274037167
 10
36.94331289259853
 20
-14.93002176957682
 10
36.17675539253638
 20
-14.16662264600966
 10
35.49204801243967
 20
-13.57389274611552
 10
34.90861762083058
 20
-13.13613180300366
 10
34.44406184550776
 20
-12.83580738159386
 10
33.93602067521698
 20
-12.55556501969205
 10
33.62264734776443
 20
-12.30478215948579
 10
33.50645137339149
 20
-12.08405493538337
 10
34.21011786118189
 20
-9.918392170248858
 10
34.43386258623445
 20
-9.808118374940952
 10
34.83479340048429
 20
-9.789426999474953
 10
35.4105296684851
 20
-9.861325273606544
 10
35.96288945136443
 20
-9.89141674646225
 10
36.69220397960174
 20
-9.880192483938185
 10
37.59454178002504
 20
-9.803124822006954
 10
38.6634145711776
 20
-9.636093151122219
  0
LWPOLYLINE
  5
51
100
AcDbEntity
  8
OpenJsCad
  6
ByLayer
 62
  256
370
   -1
100
AcDbPolyline
 90
  120
 70
    1
 43
0
 10
46.98714438962538
 20
5.559536833688083
 10
46.61990314628813
 20
4.872476792022168
 10
46.39375710523899
 20
4.126973203982729
 10
46.57550773625996
 20
3.756273393922999
 10
47.68803796637104
 20
2.481777061429565
 10
48.54097577467736
 20
1.909021533292497
 10
48.88447755893862
 20
1.791537003806838
 10
50.06740506229814
 20
1.711272225809989
 10
50.79366543152521
 20
1.138556293989142
 10
50.7936654315252
 20
-1.138556293989157
 10
50.06740506229814
 20
-1.711272225809996
 10
48.88447755893861
 20
-1.791537003806853
 10
48.54097577467736
 20
-1.90902153329251
 10
47.68803796637101
 20
-2.481777061429595
 10
46.57550773625997
 20
-3.756273393922992
 10
46.39375710523899
 20
-4.126973203982724
 10
46.61990314628813
 20
-4.872476792022161
 10
46.98714438962538
 20
-5.559536833688087
 10
47.37778584278305
 20
-5.69314407948602
 10
49.0656685120731
 20
-5.807671408802942
 10
50.0737859381647
 20
-5.609552618526951
 10
50.39975248664933
 20
-5.44973428500996
 10
51.29296431473892
 20
-4.670033994544381
 10
52.21147926581052
 20
-4.561461681640965
 10
53.82164101829522
 20
-6.171623434125674
 10
53.71306870539181
 20
-7.090138385197262
 10
52.93336841492624
 20
-7.983350213286863
 10
52.77355008140924
 20
-8.309316761771491
 10
52.57543129113324
 20
-9.317434187863121
 10
52.68995862045016
 20
-11.00531685715314
 10
52.8235658662481
 20
-11.3959583103108
 10
53.51062590791402
 20
-11.76319955364806
 10
54.25612949595346
 20
-11.9893455946972
 10
54.62682930601318
 20
-11.80759496367622
 10
55.90132563850662
 20
-10.69506473356514
 10
56.47408116664369
 20
-9.842126925258821
 10
56.59156569612935
 20
-9.498625140997566
 10
56.6718304741262
 20
-8.315697637638054
 10
57.24454640594705
 20
-7.589437268410981
 10
59.52165899392534
 20
-7.589437268410987
 10
60.09437492574619
 20
-8.315697637638049
 10
60.17463970374304
 20
-9.498625140997571
 10
60.29212423322869
 20
-9.842126925258821
 10
60.86487976136578
 20
-10.69506473356518
 10
62.13937609385917
 20
-11.80759496367622
 10
62.5100759039189
 20
-11.9893455946972
 10
63.25557949195834
 20
-11.76319955364806
 10
63.94263953362427
 20
-11.39595831031081
 10
64.07624677942221
 20
-11.00531685715314
 10
64.19077410873913
 20
-9.317434187863082
 10
63.99265531846314
 20
-8.309316761771484
 10
63.83283698494614
 20
-7.983350213286852
 10
63.05313669448057
 20
-7.090138385197262
 10
62.94456438157715
 20
-6.17162343412566
 10
64.55472613406187
 20
-4.56146168164096
 10
65.47324108513345
 20
-4.670033994544374
 10
66.36645291322304
 20
-5.449734285009954
 10
66.69241946170769
 20
-5.609552618526944
 10
67.7005368877993
 20
-5.807671408802944
 10
69.38841955708932
 20
-5.693144079486027
 10
69.77906101024699
 20
-5.559536833688094
 10
70.14630225358425
 20
-4.872476792022169
 10
70.37244829463339
 20
-4.126973203982731
 10
70.19069766361241
 20
-3.756273393923001
 10
69.07816743350133
 20
-2.481777061429566
 10
68.22522962519501
 20
-1.909021533292498
 10
67.88172784093376
 20
-1.791537003806839
 10
66.69880033757424
 20
-1.71127222580999
 10
65.97253996834718
 20
-1.138556293989143
 10
65.97253996834718
 20
1.138556293989156
 10
66.69880033757424
 20
1.711272225809995
 10
67.88172784093376
 20
1.791537003806852
 10
68.22522962519501
 20
1.909021533292508
 10
69.07816743350136
 20
2.481777061429594
 10
70.19069766361241
 20
3.75627339392299
 10
70.37244829463339
 20
4.126973203982723
 10
70.14630225358425
 20
4.872476792022161
 10
69.77906101024701
 20
5.559536833688087
 10
69.38841955708934
 20
5.693144079486021
 10
67.70053688779927
 20
5.807671408802942
 10
66.69241946170767
 20
5.609552618526951
 10
66.36645291322304
 20
5.449734285009959
 10
65.47324108513345
 20
4.670033994544381
 10
64.55472613406185
 20
4.561461681640965
 10
62.94456438157715
 20
6.171623434125674
 10
63.05313669448057
 20
7.090138385197262
 10
63.83283698494614
 20
7.983350213286863
 10
63.99265531846314
 20
8.309316761771491
 10
64.19077410873913
 20
9.317434187863121
 10
64.07624677942222
 20
11.00531685715314
 10
63.94263953362429
 20
11.3959583103108
 10
63.25557949195836
 20
11.76319955364806
 10
62.51007590391892
 20
11.98934559469719
 10
62.1393760938592
 20
11.80759496367622
 10
60.86487976136576
 20
10.69506473356515
 10
60.29212423322869
 20
9.842126925258821
 10
60.17463970374303
 20
9.498625140997564
 10
60.09437492574618
 20
8.315697637638053
 10
59.52165899392533
 20
7.589437268410981
 10
57.24454640594703
 20
7.589437268410988
 10
56.6718304741262
 20
8.315697637638049
 10
56.59156569612934
 20
9.498625140997571
 10
56.47408116664369
 20
9.842126925258821
 10
55.90132563850659
 20
10.69506473356518
 10
54.62682930601321
 20
11.80759496367622
 10
54.25612949595347
 20
11.9893455946972
 10
53.51062590791402
 20
11.76319955364806
 10
52.82356586624809
 20
11.3959583103108
 10
52.68995862045016
 20
11.00531685715314
 10
52.57543129113324
 20
9.317434187863077
 10
52.77355008140923
 20
8.309316761771479
 10
52.93336841492622
 20
7.983350213286847
 10
53.71306870539181
 20
7.090138385197258
 10
53.82164101829522
 20
6.171623434125657
 10
52.21147926581051
 20
4.561461681640955
 10
51.29296431473892
 20
4.67003399454437
 10
50.39975248664932
 20
5.449734285009947
 10
50.07378593816469
 20
5.609552618526937
 10
49.06566851207306
 20
5.807671408802936
 10
47.37778584278305
 20
5.693144079486018
  0
CIRCLE
  5
52
100
AcDbEntity
  8
0
  6
DOTTINY
 62
  256
370
   -1
100
AcDbCircle
 10
0
 20
0
 40
4
  0
CIRCLE
  5
53
100
AcDbEntity
  8
0
  6
DOTTINY
 62
  256
370
   -1
100
AcDbCircle
 10
58.3831
 20
2.66454e-15
 40
4
  0
TEXT
  5
54
100
AcDbEntity
  8
CAM
  6
ByLayer
 62
  256
370
   -1
100
AcDbText
 10
228.0357388888889
 20
55
 30
0
 40
10
  1
material depth=6mm
 50
0
 41
1
 51
0
  7
romanc
 71
    0
 72
    1
 11
228.0357388888889
 21
55
 31
0
210
0
220
0
230
1
100
AcDbText
 73
    2
  0
TEXT
  5
55
100
AcDbEntity
  8
CAM
  6
ByLayer
 62
  256
370
   -1
100
AcDbText
 10
408.5716238888888
 20
35
 30
0
 40
10
  1
tool diameter=3mm hfeed=450mm ramp_angle=1.5 doc=2mm
 50
0
 41
1
 51
0
  7
romanc
 71
    0
 72
    1
 11
408.5716238888888
 21
35
 31
0
210
0
220
0
230
1
100
AcDbText
 73
    2
  0
LWPOLYLINE
  5
56
100
AcDbEntity
  8
CAM
  6
ByLayer
 62
    3
370
   -1
100
AcDbPolyline
 90
    4
 70
    1
 43
0
 10
-10
 20
20
 10
-10
 20
10
 10
10
 20
10
 10
10
 20
20
  0
LWPOLYLINE
  5
57
100
AcDbEntity
  8
0
  6
ByLayer
 62
    3
370
   -1
100
AcDbPolyline
 90
    4
 70
    1
 43
0
 10
-10
 20
-10
 10
-10
 20
-20
 10
10
 20
-20
 10
10
 20
-10
  0
TEXT
  5
58
100
AcDbEntity
  8
CAM
  6
ByLayer
 62
    3
370
   -1
100
AcDbText
 10
202.3214222222222
 20
15
 30
0
 40
10
  1
engrave depth=1mm
 50
0
 41
1
 51
0
  7
romanc
 71
    0
 72
    1
 11
202.3214222222222
 21
15
 31
0
210
0
220
0
230
1
100
AcDbText
 73
    2
  0
ENDSEC
  0
SECTION
  2
OBJECTS
  0
DICTIONARY
  5
C
330
0
100
AcDbDictionary
281
    1
  3
ACAD_GROUP
350
D
  0
DICTIONARY
  5
D
330
C
100
AcDbDictionary
281
    1
  0
PLOTSETTINGS
  5
59
  6
1x1
 40
0
 41
0
 42
0
 43
0
  0
ENDSEC
  0
EOF
