999
dxfrw 0.6.3
  0
SECTION
  2
HEADER
  9
$ACADVER
  1
AC1021
  9
$DWGCODEPAGE
  3
ANSI_1252
  9
$INSBASE
 10
0
 20
0
 30
0
  9
$EXTMIN
 10
-0.09426666666666667
 20
0
 30
0
  9
$EXTMAX
 10
54.69456666666667
 20
60.15083333333332
 30
0
  9
$LIMMIN
 10
0
 20
0
  9
$LIMMAX
 10
420
 20
297
  9
$ORTHOMODE
 70
    0
  9
$REGENMODE
 70
    1
  9
$FILLMODE
 70
    1
  9
$QTEXTMODE
 70
    0
  9
$MIRRTEXT
 70
    0
  9
$LTSCALE
 40
1
  9
$ATTMODE
 70
    0
  9
$TEXTSIZE
 40
2.5
  9
$TRACEWID
 40
15.68
  9
$TEXTSTYLE
  7
STANDARD
  9
$CLAYER
  8
0
  9
$CELTYPE
  6
BYLAYER
  9
$CECOLOR
 62
  256
  9
$CELTSCALE
 40
1
  9
$DISPSILH
 70
    0
  9
$DIMSCALE
 40
2.5
  9
$DIMASZ
 40
2.5
  9
$DIMEXO
 40
0.625
  9
$DIMDLI
 40
3.75
  9
$DIMRND
 40
0
  9
$DIMDLE
 40
0
  9
$DIMEXE
 40
1.25
  9
$DIMTP
 40
0
  9
$DIMTM
 40
0
  9
$DIMTXT
 40
2.5
  9
$DIMCEN
 40
2.5
  9
$DIMTSZ
 40
0
  9
$DIMTOL
 70
    0
  9
$DIMLIM
 70
    0
  9
$DIMTIH
 70
    0
  9
$DIMTOH
 70
    0
  9
$DIMSE1
 70
    0
  9
$DIMSE2
 70
    0
  9
$DIMTAD
 70
    1
  9
$DIMZIN
 70
    8
  9
$DIMBLK
  1

  9
$DIMASO
 70
    1
  9
$DIMSHO
 70
    1
  9
$DIMPOST
  1

  9
$DIMAPOST
  1

  9
$DIMALT
 70
    0
  9
$DIMALTD
 70
    3
  9
$DIMALTF
 40
0.03937
  9
$DIMLFAC
 40
1
  9
$DIMTOFL
 70
    1
  9
$DIMTVP
 40
0
  9
$DIMTIX
 70
    0
  9
$DIMSOXD
 70
    0
  9
$DIMSAH
 70
    0
  9
$DIMBLK1
  1

  9
$DIMBLK2
  1

  9
$DIMSTYLE
  2
STANDARD
  9
$DIMCLRD
 70
    0
  9
$DIMCLRE
 70
    0
  9
$DIMCLRT
 70
    0
  9
$DIMTFAC
 40
1
  9
$DIMGAP
 40
0.625
  9
$DIMJUST
 70
    0
  9
$DIMSD1
 70
    0
  9
$DIMSD2
 70
    0
  9
$DIMTOLJ
 70
    0
  9
$DIMTZIN
 70
    8
  9
$DIMALTZ
 70
    0
  9
$DIMALTTZ
 70
    0
  9
$DIMUPT
 70
    0
  9
$DIMDEC
 70
    2
  9
$DIMTDEC
 70
    2
  9
$DIMALTU
 70
    2
  9
$DIMALTTD
 70
    3
  9
$DIMTXSTY
  7
STANDARD
  9
$DIMAUNIT
 70
    0
  9
$DIMADEC
 70
    0
  9
$DIMALTRND
 40
0
  9
$DIMAZIN
 70
    0
  9
$DIMDSEP
 70
   44
  9
$DIMATFIT
 70
    3
  9
$DIMFRAC
 70
    0
  9
$DIMLDRBLK
  1
STANDARD
  9
$DIMLUNIT
 70
    2
  9
$DIMLWD
 70
   -2
  9
$DIMLWE
 70
   -2
  9
$DIMTMOVE
 70
    0
  9
$DIMFXL
 40
1
  9
$DIMFXLON
 70
    0
  9
$DIMJOGANG
 40
0.7854
  9
$DIMTFILL
 70
    0
  9
$DIMTFILLCLR
 70
    0
  9
$DIMARCSYM
 70
    0
  9
$DIMLTYPE
  6

  9
$DIMLTEX1
  6

  9
$DIMLTEX2
  6

  9
$LUNITS
 70
    2
  9
$LUPREC
 70
    4
  9
$SKETCHINC
 40
1
  9
$FILLETRAD
 40
0
  9
$AUNITS
 70
    0
  9
$AUPREC
 70
    2
  9
$MENU
  1
.
  9
$ELEVATION
 40
0
  9
$PELEVATION
 40
0
  9
$THICKNESS
 40
0
  9
$LIMCHECK
 70
    0
  9
$CHAMFERA
 40
0
  9
$CHAMFERB
 40
0
  9
$CHAMFERC
 40
0
  9
$CHAMFERD
 40
0
  9
$SKPOLY
 70
    0
  9
$USRTIMER
 70
    1
  9
$ANGBASE
 50
0
  9
$ANGDIR
 70
    0
  9
$PDMODE
 70
   34
  9
$PDSIZE
 40
0
  9
$PLINEWID
 40
0
  9
$SPLFRAME
 70
    0
  9
$SPLINETYPE
 70
    2
  9
$SPLINESEGS
 70
    8
  9
$HANDSEED
  5
20000
  9
$SURFTAB1
 70
    6
  9
$SURFTAB2
 70
    6
  9
$SURFTYPE
 70
    6
  9
$SURFU
 70
    6
  9
$SURFV
 70
    6
  9
$UCSBASE
  2

  9
$UCSNAME
  2

  9
$UCSORG
 10
0
 20
0
 30
0
  9
$UCSXDIR
 10
1
 20
0
 30
0
  9
$UCSYDIR
 10
0
 20
1
 30
0
  9
$UCSORTHOREF
  2

  9
$UCSORTHOVIEW
 70
    0
  9
$UCSORGTOP
 10
0
 20
0
 30
0
  9
$UCSORGBOTTOM
 10
0
 20
0
 30
0
  9
$UCSORGLEFT
 10
0
 20
0
 30
0
  9
$UCSORGRIGHT
 10
0
 20
0
 30
0
  9
$UCSORGFRONT
 10
0
 20
0
 30
0
  9
$UCSORGBACK
 10
0
 20
0
 30
0
  9
$PUCSBASE
  2

  9
$PUCSNAME
  2

  9
$PUCSORG
 10
0
 20
0
 30
0
  9
$PUCSXDIR
 10
1
 20
0
 30
0
  9
$PUCSYDIR
 10
0
 20
1
 30
0
  9
$PUCSORTHOREF
  2

  9
$PUCSORTHOVIEW
 70
    0
  9
$PUCSORGTOP
 10
0
 20
0
 30
0
  9
$PUCSORGBOTTOM
 10
0
 20
0
 30
0
  9
$PUCSORGLEFT
 10
0
 20
0
 30
0
  9
$PUCSORGRIGHT
 10
0
 20
0
 30
0
  9
$PUCSORGFRONT
 10
0
 20
0
 30
0
  9
$PUCSORGBACK
 10
0
 20
0
 30
0
  9
$USERI1
 70
    0
  9
$USERI2
 70
    0
  9
$USERI3
 70
    0
  9
$USERI4
 70
    0
  9
$USERI5
 70
    0
  9
$USERR1
 40
0
  9
$USERR2
 40
0
  9
$USERR3
 40
0
  9
$USERR4
 40
0
  9
$USERR5
 40
0
  9
$WORLDVIEW
 70
    1
  9
$SHADEDGE
 70
    3
  9
$SHADEDIF
 70
   70
  9
$TILEMODE
 70
    1
  9
$MAXACTVP
 70
   64
  9
$PINSBASE
 10
0
 20
0
 30
0
  9
$PLIMCHECK
 70
    0
  9
$PEXTMIN
 10
0
 20
0
 30
0
  9
$PEXTMAX
 10
0
 20
0
 30
0
  9
$SNAPSTYLE
 70
    0
  9
$PLIMMIN
 10
0
 20
0
  9
$PLIMMAX
 10
297
 20
210
  9
$UNITMODE
 70
    0
  9
$VISRETAIN
 70
    1
  9
$PLINEGEN
 70
    0
  9
$PSLTSCALE
 70
    1
  9
$TREEDEPTH
 70
 3020
  9
$CMLSTYLE
  2
Standard
  9
$CMLJUST
 70
    0
  9
$CMLSCALE
 40
20
  9
$PROXYGRAPHICS
 70
    1
  9
$MEASUREMENT
 70
    1
  9
$CELWEIGHT
370
   -1
  9
$ENDCAPS
280
    0
  9
$JOINSTYLE
280
    0
  9
$LWDISPLAY
290
    0
  9
$INSUNITS
 70
    4
  9
$HYPERLINKBASE
  1

  9
$STYLESHEET
  1

  9
$XEDIT
290
    1
  9
$CEPSNTYPE
380
    0
  9
$PSTYLEMODE
290
    1
  9
$EXTNAMES
290
    1
  9
$PSVPSCALE
 40
1
  9
$OLESTARTUP
290
    0
  9
$SORTENTS
280
  127
  9
$INDEXCTL
280
    0
  9
$HIDETEXT
280
    1
  9
$XCLIPFRAME
290
    0
  9
$HALOGAP
280
    0
  9
$OBSCOLOR
 70
  257
  9
$OBSLTYPE
280
    0
  9
$INTERSECTIONDISPLAY
280
    0
  9
$INTERSECTIONCOLOR
 70
  257
  9
$DIMASSOC
280
    1
  9
$PROJECTNAME
  1

  9
$CAMERADISPLAY
290
    0
  9
$LENSLENGTH
 40
50
  9
$CAMERAHEIGHT
 40
0
  9
$STEPSPERSEC
 40
2
  9
$STEPSIZE
 40
50
  9
$3DDWFPREC
 40
2
  9
$PSOLWIDTH
 40
5
  9
$PSOLHEIGHT
 40
80
  9
$LOFTANG1
 40
1.570796326794897
  9
$LOFTANG2
 40
1.570796326794897
  9
$LOFTMAG1
 40
0
  9
$LOFTMAG2
 40
0
  9
$LOFTPARAM
 70
    7
  9
$LOFTNORMALS
280
    1
  9
$LATITUDE
 40
1
  9
$LONGITUDE
 40
1
  9
$NORTHDIRECTION
 40
0
  9
$TIMEZONE
 70
-8000
  9
$LIGHTGLYPHDISPLAY
280
    1
  9
$TILEMODELIGHTSYNCH
280
    1
  9
$SOLIDHIST
280
    1
  9
$SHOWHIST
280
    1
  9
$DWFFRAME
280
    2
  9
$DGNFRAME
280
    0
  9
$REALWORLDSCALE
290
    1
  9
$INTERFERECOLOR
 62
    1
  9
$CSHADOW
280
    0
  9
$SHADOWPLANELOCATION
 40
0
  0
ENDSEC
  0
SECTION
  2
CLASSES
  0
ENDSEC
  0
SECTION
  2
TABLES
  0
TABLE
  2
VPORT
  5
8
330
0
100
AcDbSymbolTable
 70
    1
  0
VPORT
  5
31
330
2
100
AcDbSymbolTableRecord
100
AcDbViewportTableRecord
  2
*ACTIVE
 70
    0
 10
0
 20
0
 11
1
 21
1
 12
122.875
 22
95.25
 13
0
 23
0
 14
10
 24
10
 15
10
 25
10
 16
0
 26
0
 36
1
 17
0
 27
0
 37
0
 40
203
 41
1.272167487684729
 42
50
 43
0
 44
0
 50
0
 51
0
 71
    0
 72
  100
 73
    1
 74
    3
 75
    0
 76
    1
 77
    0
 78
    0
281
    0
 65
    1
110
0
120
0
130
0
111
1
121
0
131
0
112
0
122
1
132
0
 79
    0
146
0
348
10020
 60
    7
 61
    5
292
1
282
    1
141
0
142
0
 63
  250
421
3358443
  0
ENDTAB
  0
TABLE
  2
LTYPE
  5
5
330
0
100
AcDbSymbolTable
 70
    4
  0
LTYPE
  5
14
330
5
100
AcDbSymbolTableRecord
100
AcDbLinetypeTableRecord
  2
ByBlock
 70
    0
  3

 72
   65
 73
    0
 40
0
  0
LTYPE
  5
15
330
5
100
AcDbSymbolTableRecord
100
AcDbLinetypeTableRecord
  2
ByLayer
 70
    0
  3

 72
   65
 73
    0
 40
0
  0
LTYPE
  5
16
330
5
100
AcDbSymbolTableRecord
100
AcDbLinetypeTableRecord
  2
Continuous
 70
    0
  3
Solid line
 72
   65
 73
    0
 40
0
  0
LTYPE
  5
32
330
5
100
AcDbSymbolTableRecord
100
AcDbLinetypeTableRecord
  2
DOT
 70
    0
  3
Dot . . . . . . . . . . . . . . . . . . . . . .
 72
   65
 73
    2
 40
6.35
 49
0
 74
    0
 49
-6.35
 74
    0
  0
LTYPE
  5
33
330
5
100
AcDbSymbolTableRecord
100
AcDbLinetypeTableRecord
  2
DOTTINY
 70
    0
  3
Dot (.15x) .....................................
 72
   65
 73
    2
 40
0.9525
 49
0
 74
    0
 49
-0.9525
 74
    0
  0
LTYPE
  5
34
330
5
100
AcDbSymbolTableRecord
100
AcDbLinetypeTableRecord
  2
DOT2
 70
    0
  3
Dot (.5x) .....................................
 72
   65
 73
    2
 40
3.175
 49
0
 74
    0
 49
-3.175
 74
    0
  0
LTYPE
  5
35
330
5
100
AcDbSymbolTableRecord
100
AcDbLinetypeTableRecord
  2
DOTX2
 70
    0
  3
Dot (2x) .  .  .  .  .  .  .  .  .  .  .  .  .
 72
   65
 73
    2
 40
12.7
 49
0
 74
    0
 49
-12.7
 74
    0
  0
LTYPE
  5
36
330
5
100
AcDbSymbolTableRecord
100
AcDbLinetypeTableRecord
  2
DASHED
 70
    0
  3
Dashed _ _ _ _ _ _ _ _ _ _ _ _ _ _ _ _ _
 72
   65
 73
    2
 40
19.05
 49
12.7
 74
    0
 49
-6.35
 74
    0
  0
LTYPE
  5
37
330
5
100
AcDbSymbolTableRecord
100
AcDbLinetypeTableRecord
  2
DASHEDTINY
 70
    0
  3
Dashed (.15x) _ _ _ _ _ _ _ _ _ _ _ _ _ _ _ _ _
 72
   65
 73
    2
 40
2.8575
 49
1.905
 74
    0
 49
-0.9525
 74
    0
  0
LTYPE
  5
38
330
5
100
AcDbSymbolTableRecord
100
AcDbLinetypeTableRecord
  2
DASHED2
 70
    0
  3
Dashed (.5x) _ _ _ _ _ _ _ _ _ _ _ _ _ _ _ _ _
 72
   65
 73
    2
 40
9.524999999999999
 49
6.35
 74
    0
 49
-3.175
 74
    0
  0
LTYPE
  5
39
330
5
100
AcDbSymbolTableRecord
100
AcDbLinetypeTableRecord
  2
DASHEDX2
 70
    0
  3
Dashed (2x) ____  ____  ____  ____  ____  ___
 72
   65
 73
    2
 40
38.09999999999999
 49
25.4
 74
    0
 49
-12.7
 74
    0
  0
LTYPE
  5
3A
330
5
100
AcDbSymbolTableRecord
100
AcDbLinetypeTableRecord
  2
DASHDOT
 70
    0
  3
Dash dot __ . __ . __ . __ . __ . __ . __ . __
 72
   65
 73
    4
 40
25.4
 49
12.7
 74
    0
 49
-6.35
 74
    0
 49
0
 74
    0
 49
-6.35
 74
    0
  0
LTYPE
  5
3B
330
5
100
AcDbSymbolTableRecord
100
AcDbLinetypeTableRecord
  2
DASHDOTTINY
 70
    0
  3
Dash dot (.15x) _._._._._._._._._._._._._._._.
 72
   65
 73
    4
 40
3.81
 49
1.905
 74
    0
 49
-0.9525
 74
    0
 49
0
 74
    0
 49
-0.9525
 74
    0
  0
LTYPE
  5
3C
330
5
100
AcDbSymbolTableRecord
100
AcDbLinetypeTableRecord
  2
DASHDOT2
 70
    0
  3
Dash dot (.5x) _._._._._._._._._._._._._._._.
 72
   65
 73
    4
 40
12.7
 49
6.35
 74
    0
 49
-3.175
 74
    0
 49
0
 74
    0
 49
-3.175
 74
    0
  0
LTYPE
  5
3D
330
5
100
AcDbSymbolTableRecord
100
AcDbLinetypeTableRecord
  2
DASHDOTX2
 70
    0
  3
Dash dot (2x) ____  .  ____  .  ____  .  ___
 72
   65
 73
    4
 40
50.8
 49
25.4
 74
    0
 49
-12.7
 74
    0
 49
0
 74
    0
 49
-12.7
 74
    0
  0
LTYPE
  5
3E
330
5
100
AcDbSymbolTableRecord
100
AcDbLinetypeTableRecord
  2
DIVIDE
 70
    0
  3
Divide ____ . . ____ . . ____ . . ____ . . ____
 72
   65
 73
    6
 40
31.75
 49
12.7
 74
    0
 49
-6.35
 74
    0
 49
0
 74
    0
 49
-6.35
 74
    0
 49
0
 74
    0
 49
-6.35
 74
    0
  0
LTYPE
  5
3F
330
5
100
AcDbSymbolTableRecord
100
AcDbLinetypeTableRecord
  2
DIVIDETINY
 70
    0
  3
Divide (.15x) __..__..__..__..__..__..__..__.._
 72
   65
 73
    6
 40
4.7625
 49
1.905
 74
    0
 49
-0.9525
 74
    0
 49
0
 74
    0
 49
-0.9525
 74
    0
 49
0
 74
    0
 49
-0.9525
 74
    0
  0
LTYPE
  5
40
330
5
100
AcDbSymbolTableRecord
100
AcDbLinetypeTableRecord
  2
DIVIDE2
 70
    0
  3
Divide (.5x) __..__..__..__..__..__..__..__.._
 72
   65
 73
    6
 40
15.875
 49
6.35
 74
    0
 49
-3.175
 74
    0
 49
0
 74
    0
 49
-3.175
 74
    0
 49
0
 74
    0
 49
-3.175
 74
    0
  0
LTYPE
  5
41
330
5
100
AcDbSymbolTableRecord
100
AcDbLinetypeTableRecord
  2
DIVIDEX2
 70
    0
  3
Divide (2x) ________  .  .  ________  .  .  _
 72
   65
 73
    6
 40
63.5
 49
25.4
 74
    0
 49
-12.7
 74
    0
 49
0
 74
    0
 49
-12.7
 74
    0
 49
0
 74
    0
 49
-12.7
 74
    0
  0
LTYPE
  5
42
330
5
100
AcDbSymbolTableRecord
100
AcDbLinetypeTableRecord
  2
BORDER
 70
    0
  3
Border __ __ . __ __ . __ __ . __ __ . __ __ .
 72
   65
 73
    6
 40
44.45
 49
12.7
 74
    0
 49
-6.35
 74
    0
 49
12.7
 74
    0
 49
-6.35
 74
    0
 49
0
 74
    0
 49
-6.35
 74
    0
  0
LTYPE
  5
43
330
5
100
AcDbSymbolTableRecord
100
AcDbLinetypeTableRecord
  2
BORDERTINY
 70
    0
  3
Border (.15x) __.__.__.__.__.__.__.__.__.__.__.
 72
   65
 73
    6
 40
6.6675
 49
1.905
 74
    0
 49
-0.9525
 74
    0
 49
1.905
 74
    0
 49
-0.9525
 74
    0
 49
0
 74
    0
 49
-0.9525
 74
    0
  0
LTYPE
  5
44
330
5
100
AcDbSymbolTableRecord
100
AcDbLinetypeTableRecord
  2
BORDER2
 70
    0
  3
Border (.5x) __.__.__.__.__.__.__.__.__.__.__.
 72
   65
 73
    6
 40
22.225
 49
6.35
 74
    0
 49
-3.175
 74
    0
 49
6.35
 74
    0
 49
-3.175
 74
    0
 49
0
 74
    0
 49
-3.175
 74
    0
  0
LTYPE
  5
45
330
5
100
AcDbSymbolTableRecord
100
AcDbLinetypeTableRecord
  2
BORDERX2
 70
    0
  3
Border (2x) ____  ____  .  ____  ____  .  ___
 72
   65
 73
    6
 40
88.89999999999999
 49
25.4
 74
    0
 49
-12.7
 74
    0
 49
25.4
 74
    0
 49
-12.7
 74
    0
 49
0
 74
    0
 49
-12.7
 74
    0
  0
LTYPE
  5
46
330
5
100
AcDbSymbolTableRecord
100
AcDbLinetypeTableRecord
  2
CENTER
 70
    0
  3
Center ____ _ ____ _ ____ _ ____ _ ____ _ ____
 72
   65
 73
    4
 40
50.8
 49
31.75
 74
    0
 49
-6.35
 74
    0
 49
6.35
 74
    0
 49
-6.35
 74
    0
  0
LTYPE
  5
47
330
5
100
AcDbSymbolTableRecord
100
AcDbLinetypeTableRecord
  2
CENTERTINY
 70
    0
  3
Center (.15x) ___ _ ___ _ ___ _ ___ _ ___ _ ___
 72
   65
 73
    4
 40
7.619999999999999
 49
4.7625
 74
    0
 49
-0.9525
 74
    0
 49
0.9525
 74
    0
 49
-0.9525
 74
    0
  0
LTYPE
  5
48
330
5
100
AcDbSymbolTableRecord
100
AcDbLinetypeTableRecord
  2
CENTER2
 70
    0
  3
Center (.5x) ___ _ ___ _ ___ _ ___ _ ___ _ ___
 72
   65
 73
    4
 40
28.575
 49
19.05
 74
    0
 49
-3.175
 74
    0
 49
3.175
 74
    0
 49
-3.175
 74
    0
  0
LTYPE
  5
49
330
5
100
AcDbSymbolTableRecord
100
AcDbLinetypeTableRecord
  2
CENTERX2
 70
    0
  3
Center (2x) ________  __  ________  __  _____
 72
   65
 73
    4
 40
101.6
 49
63.5
 74
    0
 49
-12.7
 74
    0
 49
12.7
 74
    0
 49
-12.7
 74
    0
  0
ENDTAB
  0
TABLE
  2
LAYER
  5
2
330
0
100
AcDbSymbolTable
 70
    1
  0
LAYER
  5
10
330
2
100
AcDbSymbolTableRecord
100
AcDbLayerTableRecord
  2
0
 70
    0
 62
    7
  6
CONTINUOUS
370
    0
390
F
  0
ENDTAB
  0
TABLE
  2
STYLE
  5
3
330
0
100
AcDbSymbolTable
 70
    3
  0
STYLE
  5
4A
330
2
100
AcDbSymbolTableRecord
100
AcDbTextStyleTableRecord
  2
Standard
 70
    0
 40
0
 41
1
 50
0
 71
    0
 42
1
  3
txt
  4

  0
ENDTAB
  0
TABLE
  2
VIEW
  5
6
330
0
100
AcDbSymbolTable
 70
    0
  0
ENDTAB
  0
TABLE
  2
UCS
  5
7
330
0
100
AcDbSymbolTable
 70
    0
  0
ENDTAB
  0
TABLE
  2
APPID
  5
9
330
0
100
AcDbSymbolTable
 70
    1
  0
APPID
  5
12
330
9
100
AcDbSymbolTableRecord
100
AcDbRegAppTableRecord
  2
ACAD
 70
    0
  0
APPID
  5
4B
330
9
100
AcDbSymbolTableRecord
100
AcDbRegAppTableRecord
  2
LibreCad
 70
    0
  0
ENDTAB
  0
TABLE
  2
DIMSTYLE
  5
A
330
0
100
AcDbSymbolTable
 70
    1
100
AcDbDimStyleTable
 71
    1
  0
DIMSTYLE
105
4C
330
A
100
AcDbSymbolTableRecord
100
AcDbDimStyleTableRecord
  2
Standard
 70
    0
 40
1
 41
2.5
 42
0.625
 43
0.38
 44
1.25
 45
0
 46
0
 47
0
 48
0
 49
1
140
2.5
141
0.09
142
2.5
143
25.4
144
1
145
0
146
1
147
0.625
148
0
 71
    0
 72
    0
 73
    0
 74
    1
 75
    0
 76
    0
 77
    0
 78
    1
 79
    0
170
    0
171
    2
172
    0
173
    0
174
    0
175
    0
176
    0
177
    0
178
    0
179
    0
271
    2
272
    4
273
    2
274
    2
275
    0
276
    0
277
    2
278
    0
279
    0
280
    0
281
    0
282
    0
283
    1
284
    0
285
    0
286
    0
288
    0
289
    3
340
standard
341

371
   -2
372
   -2
  0
ENDTAB
  0
TABLE
  2
BLOCK_RECORD
  5
1
330
0
100
AcDbSymbolTable
 70
    2
  0
BLOCK_RECORD
  5
1F
330
1
100
AcDbSymbolTableRecord
100
AcDbBlockTableRecord
  2
*Model_Space
 70
    0
280
    1
281
    0
  0
BLOCK_RECORD
  5
1E
330
1
100
AcDbSymbolTableRecord
100
AcDbBlockTableRecord
  2
*Paper_Space
 70
    0
280
    1
281
    0
  0
ENDTAB
  0
ENDSEC
  0
SECTION
  2
BLOCKS
  0
BLOCK
  5
20
330
1F
100
AcDbEntity
  8
0
100
AcDbBlockBegin
  2
*Model_Space
 70
    0
 10
0
 20
0
 30
0
  3
*Model_Space
  1

  0
ENDBLK
  5
21
330
1F
100
AcDbEntity
  8
0
100
AcDbBlockEnd
  0
BLOCK
  5
1C
330
1B
100
AcDbEntity
  8
0
100
AcDbBlockBegin
  2
*Paper_Space
 70
    0
 10
0
 20
0
 30
0
  3
*Paper_Space
  1

  0
ENDBLK
  5
1D
330
1F
100
AcDbEntity
  8
0
100
AcDbBlockEnd
  0
ENDSEC
  0
SECTION
  2
ENTITIES
  0
LWPOLYLINE
  5
4D
100
AcDbEntity
  8
0
  6
ByLayer
 62
  256
370
   -1
100
AcDbPolyline
 90
  342
 70
    1
 43
0
 10
40.12066666666666
 20
52.4585222222222
 10
40.12066666666666
 20
52.4585222222222
 10
41.1529
 20
53.48133333333331
 10
42.21342222222222
 20
54.28733333333335
 10
43.30222222222222
 20
54.87651111111109
 10
44.41931111111111
 20
55.24886666666666
 10
44.41931111111111
 20
55.24886666666666
 10
44.41931111111111
 20
55.24886666666666
 10
45.55524444444445
 20
55.41383333333333
 10
46.62518888888889
 20
55.30543333333333
 10
47.62914444444444
 20
54.92364444444443
 10
48.56712222222222
 20
54.2684777777778
 10
48.56712222222222
 20
54.2684777777778
 10
48.56712222222222
 20
54.2684777777778
 10
49.34012222222221
 20
53.33049999999999
 10
49.84916666666666
 20
52.32654444444444
 10
50.09426666666667
 20
51.25659999999998
 10
50.07541111111111
 20
50.12066666666669
 10
50.07541111111111
 20
50.12066666666669
 10
50.07541111111111
 20
50.12066666666669
 10
49.83974444444444
 20
48.9753
 10
49.35897777777777
 20
47.8770777777778
 10
48.63311111111111
 20
46.82597777777777
 10
47.66214444444444
 20
45.82202222222222
 10
47.66214444444444
 20
45.82202222222222
 10
47.66214444444444
 20
45.82202222222222
 10
46.16327777777778
 20
44.56825555555554
 10
44.3816
 20
43.29562222222222
 10
42.31712222222222
 20
42.00414444444442
 10
39.96983333333333
 20
40.69381111111107
 10
39.96983333333333
 20
40.69381111111107
 10
39.96983333333333
 20
40.69381111111107
 10
37.69796666666667
 20
39.44946666666668
 10
35.78431111111111
 20
38.28054444444442
 10
34.22888888888889
 20
37.1870333333333
 10
33.03167777777777
 20
36.16893333333334
 10
33.03167777777777
 20
36.16893333333334
 10
33.03167777777777
 20
36.16893333333334
 10
32.98925555555555
 20
36.08408888888891
 10
32.93741111111111
 20
35.98038888888885
 10
32.87613333333333
 20
35.85784444444448
 10
32.80543333333333
 20
35.71644444444448
 10
32.80543333333333
 20
35.71644444444448
 10
32.80543333333333
 20
35.71644444444448
 10
32.7253
 20
35.57975555555552
 10
32.63574444444444
 20
35.39592222222218
 10
32.53676666666667
 20
35.1649666666667
 10
32.42835555555556
 20
34.88687777777774
 10
32.42835555555556
 20
34.88687777777774
 10
32.42835555555556
 20
34.88687777777774
 10
32.33408888888889
 20
34.6370666666667
 10
32.27752222222222
 20
34.41553333333333
 10
32.25867777777778
 20
34.22228888888887
 10
32.27752222222222
 20
34.05731111111109
 10
32.27752222222222
 20
34.05731111111109
 10
32.27752222222222
 20
34.05731111111109
 10
32.45663333333334
 20
33.59540000000003
 10
32.76772222222222
 20
33.1900444444444
 10
33.21078888888889
 20
32.84125555555552
 10
33.78582222222222
 20
32.54902222222222
 10
33.78582222222222
 20
32.54902222222222
 10
33.78582222222222
 20
32.54902222222222
 10
35.19042222222222
 20
31.99754444444444
 10
36.91553333333334
 20
31.47435555555559
 10
38.96116666666667
 20
30.97944444444448
 10
41.32729999999999
 20
30.5128222222222
 10
41.32729999999999
 20
30.5128222222222
 10
41.32729999999999
 20
30.5128222222222
 10
43.78771111111111
 20
30.01791111111109
 10
46.04072222222222
 20
29.43815555555557
 10
48.08634444444444
 20
28.7735666666667
 10
49.92458888888888
 20
28.02413333333332
 10
49.92458888888888
 20
28.02413333333332
 10
49.92458888888888
 20
28.02413333333332
 10
51.1925
 20
27.3642555555555
 10
52.28129999999999
 20
26.59125555555552
 10
53.19098888888888
 20
25.70513333333336
 10
53.92156666666667
 20
24.70587777777779
 10
53.92156666666667
 20
24.70587777777779
 10
53.92156666666667
 20
24.70587777777779
 10
54.45418888888889
 20
23.68777777777781
 10
54.69456666666667
 20
22.66967777777776
 10
54.64272222222222
 20
21.65158888888887
 10
54.29864444444445
 20
20.6334888888889
 10
54.29864444444445
 20
20.6334888888889
 10
54.29864444444445
 20
20.6334888888889
 10
53.65762222222222
 20
19.61538888888892
 10
52.86576666666667
 20
18.8235333333333
 10
51.92307777777778
 20
18.25792222222219
 10
50.82956666666666
 20
17.91855555555559
 10
50.82956666666666
 20
17.91855555555559
 10
50.82956666666666
 20
17.91855555555559
 10
49.65121111111111
 20
17.80543333333333
 10
48.45399999999999
 20
17.91855555555559
 10
47.23793333333332
 20
18.25792222222219
 10
46.00301111111111
 20
18.8235333333333
 10
46.00301111111111
 20
18.8235333333333
 10
46.00301111111111
 20
18.8235333333333
 10
44.30146666666666
 20
19.85576666666669
 10
42.51507777777778
 20
21.14253333333334
 10
40.64385555555555
 20
22.68382222222218
 10
38.68777777777778
 20
24.47963333333335
 10
38.68777777777778
 20
24.47963333333335
 10
38.68777777777778
 20
24.47963333333335
 10
36.78827777777777
 20
26.27545555555554
 10
35.08672222222222
 20
27.74132222222222
 10
33.58314444444444
 20
28.87726666666667
 10
32.27752222222222
 20
29.68325555555555
 10
32.27752222222222
 20
29.68325555555555
 10
32.27752222222222
 20
29.68325555555555
 10
32.19739999999999
 20
29.72096666666665
 10
32.10784444444444
 20
29.75867777777778
 10
32.00886666666666
 20
29.79637777777781
 10
31.90045555555555
 20
29.83408888888891
 10
31.90045555555555
 20
29.83408888888891
 10
31.90045555555555
 20
29.83408888888891
 10
31.75904444444445
 20
29.90949999999998
 10
31.56108888888889
 20
29.9849222222222
 10
31.30655555555555
 20
30.06033333333335
 10
30.99547777777778
 20
30.13574444444448
 10
30.99547777777778
 20
30.13574444444448
 10
30.99547777777778
 20
30.13574444444448
 10
30.71737777777778
 20
30.22058888888891
 10
30.48642222222222
 20
30.24886666666666
 10
30.3026
 20
30.22058888888891
 10
30.16591111111111
 20
30.13574444444448
 10
30.16591111111111
 20
30.13574444444448
 10
30.16591111111111
 20
30.13574444444448
 10
30.0198
 20
30.05089999999998
 10
29.88311111111111
 20
29.94721111111109
 10
29.75584444444444
 20
29.82465555555555
 10
29.63801111111111
 20
29.68325555555555
 10
29.63801111111111
 20
29.68325555555555
 10
29.63801111111111
 20
29.68325555555555
 10
29.56731111111111
 20
29.57013333333337
 10
29.50603333333333
 20
29.45701111111111
 10
29.45418888888889
 20
29.34388888888887
 10
29.41176666666667
 20
29.23076666666668
 10
29.41176666666667
 20
29.23076666666668
 10
29.41176666666667
 20
29.23076666666668
 10
29.40705555555555
 20
29.14121111111113
 10
29.39291111111111
 20
29.02337777777774
 10
29.36934444444444
 20
28.87726666666667
 10
29.33634444444444
 20
28.70286666666669
 10
29.33634444444444
 20
28.70286666666669
 10
29.33634444444444
 20
28.70286666666669
 10
29.30335555555556
 20
28.5284666666667
 10
29.27978888888889
 20
28.38235555555556
 10
29.26564444444444
 20
28.26452222222224
 10
29.26093333333333
 20
28.17496666666669
 10
29.26093333333333
 20
28.17496666666669
 10
29.26093333333333
 20
28.17496666666669
 10
29.16666666666666
 20
26.66666666666666
 10
29.18552222222222
 20
24.85671111111107
 10
29.3175
 20
22.74509999999999
 10
29.56258888888889
 20
20.33182222222224
 10
29.56258888888889
 20
20.33182222222224
 10
29.56258888888889
 20
20.33182222222224
 10
29.83597777777778
 20
17.85256666666664
 10
29.97737777777778
 20
15.54298888888888
 10
29.9868
 20
13.40308888888887
 10
29.86425555555556
 20
11.4328777777778
 10
29.86425555555556
 20
11.4328777777778
 10
29.86425555555556
 20
11.4328777777778
 10
29.6003
 20
10.02827777777775
 10
29.18552222222222
 20
8.755655555555521
 10
28.61991111111111
 20
7.615011111111095
 10
27.90346666666667
 20
6.606333333333318
 10
27.90346666666667
 20
6.606333333333318
 10
27.90346666666667
 20
6.606333333333318
 10
27.10218888888889
 20
5.833333333333329
 10
26.20663333333333
 20
5.324288888888887
 10
25.21682222222222
 20
5.079188888888901
 10
24.13273333333333
 20
5.098044444444454
 10
24.13273333333333
 20
5.098044444444454
 10
24.13273333333333
 20
5.098044444444454
 10
22.96851111111111
 20
5.357277777777782
 10
21.96455555555556
 20
5.833333333333329
 10
21.12085555555555
 20
6.526211111111117
 10
20.43741111111111
 20
7.435899999999975
 10
20.43741111111111
 20
7.435899999999975
 10
20.43741111111111
 20
7.435899999999975
 10
19.9802
 20
8.50584444444447
 10
19.73982222222222
 20
9.679488888888869
 10
19.71625555555555
 20
10.95682222222224
 10
19.9095
 20
12.33785555555559
 10
19.9095
 20
12.33785555555559
 10
19.9095
 20
12.33785555555559
 10
20.36198888888889
 20
14.27036666666665
 10
21.04072222222222
 20
16.37254444444445
 10
21.9457
 20
18.64442222222218
 10
23.07692222222222
 20
21.08597777777776
 10
23.07692222222222
 20
21.08597777777776
 10
23.07692222222222
 20
21.08597777777776
 10
24.19872222222222
 20
23.49924444444441
 10
25.07541111111111
 20
25.61085555555557
 10
25.70701111111111
 20
27.42081111111109
 10
26.09351111111111
 20
28.92911111111111
 10
26.09351111111111
 20
28.92911111111111
 10
26.09351111111111
 20
28.92911111111111
 10
26.1218
 20
29.56071111111109
 10
26.05581111111111
 20
30.09804444444445
 10
25.89555555555555
 20
30.54109999999996
 10
25.64102222222222
 20
30.88988888888892
 10
25.64102222222222
 20
30.88988888888892
 10
25.64102222222222
 20
30.88988888888892
 10
25.32051111111111
 20
31.20097777777777
 10
24.88687777777777
 20
31.38008888888889
 10
24.34012222222222
 20
31.4272222222222
 10
23.68024444444444
 20
31.34237777777777
 10
23.68024444444444
 20
31.34237777777777
 10
23.68024444444444
 20
31.34237777777777
 10
22.2615
 20
30.9700222222222
 10
20.56937777777778
 20
30.38084444444448
 10
18.60388888888889
 20
29.57484444444444
 10
16.36501111111111
 20
28.55203333333333
 10
16.36501111111111
 20
28.55203333333333
 10
16.36501111111111
 20
28.55203333333333
 10
14.079
 20
27.51036666666666
 10
11.89667777777778
 20
26.64781111111111
 10
9.818066666666667
 20
25.96436666666668
 10
7.843133333333333
 20
25.4600333333333
 10
7.843133333333333
 20
25.4600333333333
 10
7.843133333333333
 20
25.4600333333333
 10
6.443255555555555
 20
25.25264444444443
 10
5.109355555555555
 20
25.23378888888887
 10
3.841444444444444
 20
25.4034666666667
 10
2.639522222222222
 20
25.76168888888887
 10
2.639522222222222
 20
25.76168888888887
 10
2.639522222222222
 20
25.76168888888887
 10
1.597855555555555
 20
26.29902222222223
 10
0.810711111111111
 20
27.00603333333335
 10
0.2780888888888889
 20
27.88273333333331
 10
0
 20
28.92911111111111
 10
0
 20
28.92911111111111
 10
0
 20
28.92911111111111
 10
-0.09426666666666667
 20
30.09332222222224
 10
0.07541111111111111
 20
31.17270000000002
 10
0.5090444444444444
 20
32.16723333333337
 10
1.206633333333333
 20
33.07692222222222
 10
1.206633333333333
 20
33.07692222222222
 10
1.206633333333333
 20
33.07692222222222
 10
2.111611111111111
 20
33.89234444444446
 10
3.167422222222222
 20
34.52865555555559
 10
4.374055555555556
 20
34.98585555555557
 10
5.731522222222222
 20
35.26395555555554
 10
5.731522222222222
 20
35.26395555555554
 10
5.731522222222222
 20
35.26395555555554
 10
7.720588888888889
 20
35.41006666666668
 10
9.917044444444445
 20
35.39592222222218
 10
12.32088888888889
 20
35.22153333333328
 10
14.93212222222222
 20
34.88687777777774
 10
14.93212222222222
 20
34.88687777777774
 10
14.93212222222222
 20
34.88687777777774
 10
17.51507777777778
 20
34.58050000000003
 10
19.75867777777778
 20
34.41553333333333
 10
21.6629
 20
34.39196666666663
 10
23.22775555555556
 20
34.50980000000003
 10
23.22775555555556
 20
34.50980000000003
 10
23.22775555555556
 20
34.50980000000003
 10
23.8405
 20
34.75490000000001
 10
24.32126666666667
 20
35.03771111111111
 10
24.67005555555556
 20
35.35822222222224
 10
24.88687777777777
 20
35.71644444444448
 10
24.88687777777777
 20
35.71644444444448
 10
24.88687777777777
 20
35.71644444444448
 10
25.00942222222222
 20
36.21606666666665
 10
25
 20
36.73454444444445
 10
24.8586
 20
37.27186666666665
 10
24.58522222222222
 20
37.82805555555557
 10
24.58522222222222
 20
37.82805555555557
 10
24.58522222222222
 20
37.82805555555557
 10
23.76507777777778
 20
39.08653333333331
 10
22.66214444444444
 20
40.52413333333332
 10
21.2764
 20
42.14083333333329
 10
19.60784444444445
 20
43.93665555555556
 10
19.60784444444445
 20
43.93665555555556
 10
19.60784444444445
 20
43.93665555555556
 10
17.93928888888889
 20
45.82673333333335
 10
16.47813333333333
 20
47.65083333333337
 10
15.22435555555556
 20
49.40893333333335
 10
14.17797777777778
 20
51.10105555555555
 10
14.17797777777778
 20
51.10105555555555
 10
14.17797777777778
 20
51.10105555555555
 10
13.56052222222222
 20
52.3124111111111
 10
13.14102222222222
 20
53.53317777777777
 10
12.9195
 20
54.76338888888891
 10
12.89592222222222
 20
56.00301111111109
 10
12.89592222222222
 20
56.00301111111109
 10
12.89592222222222
 20
56.00301111111109
 10
13.11745555555555
 20
57.15780000000001
 10
13.55581111111111
 20
58.13348888888889
 10
14.21097777777778
 20
58.93005555555558
 10
15.08295555555556
 20
59.54751111111109
 10
15.08295555555556
 20
59.54751111111109
 10
15.08295555555556
 20
59.54751111111109
 10
16.20003333333333
 20
59.98114444444444
 10
17.28883333333333
 20
60.15083333333332
 10
18.34935555555555
 20
60.05655555555555
 10
19.3816
 20
59.69834444444443
 10
19.3816
 20
59.69834444444443
 10
19.3816
 20
59.69834444444443
 10
20.38555555555556
 20
59.10444444444444
 10
21.28582222222222
 20
58.30316666666666
 10
22.08238888888889
 20
57.2945
 10
22.77526666666667
 20
56.07843333333332
 10
22.77526666666667
 20
56.07843333333332
 10
22.77526666666667
 20
56.07843333333332
 10
23.5247
 20
54.24962222222224
 10
24.18928888888889
 20
52.15686666666663
 10
24.76904444444444
 20
49.80015555555556
 10
25.26395555555555
 20
47.17948888888887
 10
25.26395555555555
 20
47.17948888888887
 10
25.26395555555555
 20
47.17948888888887
 10
25.76828888888889
 20
44.64366666666668
 10
26.3009
 20
42.46606666666665
 10
26.8618
 20
40.64667777777777
 10
27.45097777777777
 20
39.18552222222222
 10
27.45097777777777
 20
39.18552222222222
 10
27.45097777777777
 20
39.18552222222222
 10
27.82805555555555
 20
38.51621111111113
 10
28.20513333333333
 20
38.01658888888888
 10
28.5822
 20
37.68665555555556
 10
28.95927777777778
 20
37.5264
 10
28.95927777777778
 20
37.5264
 10
28.95927777777778
 20
37.5264
 10
29.42118888888889
 20
37.5264
 10
29.90195555555556
 20
37.6772222222222
 10
30.40158888888889
 20
37.97888888888885
 10
30.92005555555556
 20
38.43137777777778
 10
30.92005555555556
 20
38.43137777777778
 10
30.92005555555556
 20
38.43137777777778
 10
31.89574444444445
 20
39.60973333333332
 10
32.93741111111111
 20
41.1086
 10
34.04505555555556
 20
42.92797777777778
 10
35.2187
 20
45.06787777777778
 10
35.2187
 20
45.06787777777778
 10
35.2187
 20
45.06787777777778
 10
36.43005555555555
 20
47.25490000000001
 10
37.65083333333333
 20
49.21568888888889
 10
38.88103333333333
 20
50.95022222222222
 10
40.12066666666666
 20
52.4585222222222
  0
ENDSEC
  0
SECTION
  2
OBJECTS
  0
DICTIONARY
  5
C
330
0
100
AcDbDictionary
281
    1
  3
ACAD_GROUP
350
D
  0
DICTIONARY
  5
D
330
C
100
AcDbDictionary
281
    1
  0
ENDSEC
  0
EOF
