999
dxfrw 0.6.3
  0
SECTION
  2
HEADER
  9
$ACADVER
  1
AC1021
  9
$DWGCODEPAGE
  3
ANSI_1252
  9
$INSBASE
 10
0
 20
0
 30
0
  9
$EXTMIN
 10
0
 20
0
 30
0
  9
$EXTMAX
 10
100
 20
107.1794888888889
 30
0
  9
$LIMMIN
 10
0
 20
0
  9
$LIMMAX
 10
420
 20
297
  9
$ORTHOMODE
 70
    0
  9
$REGENMODE
 70
    1
  9
$FILLMODE
 70
    1
  9
$QTEXTMODE
 70
    0
  9
$MIRRTEXT
 70
    0
  9
$LTSCALE
 40
1
  9
$ATTMODE
 70
    0
  9
$TEXTSIZE
 40
2.5
  9
$TRACEWID
 40
15.68
  9
$TEXTSTYLE
  7
STANDARD
  9
$CLAYER
  8
0
  9
$CELTYPE
  6
BYLAYER
  9
$CECOLOR
 62
  256
  9
$CELTSCALE
 40
1
  9
$DISPSILH
 70
    0
  9
$DIMSCALE
 40
2.5
  9
$DIMASZ
 40
2.5
  9
$DIMEXO
 40
0.625
  9
$DIMDLI
 40
3.75
  9
$DIMRND
 40
0
  9
$DIMDLE
 40
0
  9
$DIMEXE
 40
1.25
  9
$DIMTP
 40
0
  9
$DIMTM
 40
0
  9
$DIMTXT
 40
2.5
  9
$DIMCEN
 40
2.5
  9
$DIMTSZ
 40
0
  9
$DIMTOL
 70
    0
  9
$DIMLIM
 70
    0
  9
$DIMTIH
 70
    0
  9
$DIMTOH
 70
    0
  9
$DIMSE1
 70
    0
  9
$DIMSE2
 70
    0
  9
$DIMTAD
 70
    1
  9
$DIMZIN
 70
    8
  9
$DIMBLK
  1

  9
$DIMASO
 70
    1
  9
$DIMSHO
 70
    1
  9
$DIMPOST
  1

  9
$DIMAPOST
  1

  9
$DIMALT
 70
    0
  9
$DIMALTD
 70
    3
  9
$DIMALTF
 40
0.03937
  9
$DIMLFAC
 40
1
  9
$DIMTOFL
 70
    1
  9
$DIMTVP
 40
0
  9
$DIMTIX
 70
    0
  9
$DIMSOXD
 70
    0
  9
$DIMSAH
 70
    0
  9
$DIMBLK1
  1

  9
$DIMBLK2
  1

  9
$DIMSTYLE
  2
STANDARD
  9
$DIMCLRD
 70
    0
  9
$DIMCLRE
 70
    0
  9
$DIMCLRT
 70
    0
  9
$DIMTFAC
 40
1
  9
$DIMGAP
 40
0.625
  9
$DIMJUST
 70
    0
  9
$DIMSD1
 70
    0
  9
$DIMSD2
 70
    0
  9
$DIMTOLJ
 70
    0
  9
$DIMTZIN
 70
    8
  9
$DIMALTZ
 70
    0
  9
$DIMALTTZ
 70
    0
  9
$DIMUPT
 70
    0
  9
$DIMDEC
 70
    2
  9
$DIMTDEC
 70
    2
  9
$DIMALTU
 70
    2
  9
$DIMALTTD
 70
    3
  9
$DIMTXSTY
  7
STANDARD
  9
$DIMAUNIT
 70
    0
  9
$DIMADEC
 70
    0
  9
$DIMALTRND
 40
0
  9
$DIMAZIN
 70
    0
  9
$DIMDSEP
 70
   44
  9
$DIMATFIT
 70
    3
  9
$DIMFRAC
 70
    0
  9
$DIMLDRBLK
  1
STANDARD
  9
$DIMLUNIT
 70
    2
  9
$DIMLWD
 70
   -2
  9
$DIMLWE
 70
   -2
  9
$DIMTMOVE
 70
    0
  9
$DIMFXL
 40
1
  9
$DIMFXLON
 70
    0
  9
$DIMJOGANG
 40
0.7854
  9
$DIMTFILL
 70
    0
  9
$DIMTFILLCLR
 70
    0
  9
$DIMARCSYM
 70
    0
  9
$DIMLTYPE
  6

  9
$DIMLTEX1
  6

  9
$DIMLTEX2
  6

  9
$LUNITS
 70
    2
  9
$LUPREC
 70
    4
  9
$SKETCHINC
 40
1
  9
$FILLETRAD
 40
0
  9
$AUNITS
 70
    0
  9
$AUPREC
 70
    2
  9
$MENU
  1
.
  9
$ELEVATION
 40
0
  9
$PELEVATION
 40
0
  9
$THICKNESS
 40
0
  9
$LIMCHECK
 70
    0
  9
$CHAMFERA
 40
0
  9
$CHAMFERB
 40
0
  9
$CHAMFERC
 40
0
  9
$CHAMFERD
 40
0
  9
$SKPOLY
 70
    0
  9
$USRTIMER
 70
    1
  9
$ANGBASE
 50
0
  9
$ANGDIR
 70
    0
  9
$PDMODE
 70
   34
  9
$PDSIZE
 40
0
  9
$PLINEWID
 40
0
  9
$SPLFRAME
 70
    0
  9
$SPLINETYPE
 70
    2
  9
$SPLINESEGS
 70
    8
  9
$HANDSEED
  5
20000
  9
$SURFTAB1
 70
    6
  9
$SURFTAB2
 70
    6
  9
$SURFTYPE
 70
    6
  9
$SURFU
 70
    6
  9
$SURFV
 70
    6
  9
$UCSBASE
  2

  9
$UCSNAME
  2

  9
$UCSORG
 10
0
 20
0
 30
0
  9
$UCSXDIR
 10
1
 20
0
 30
0
  9
$UCSYDIR
 10
0
 20
1
 30
0
  9
$UCSORTHOREF
  2

  9
$UCSORTHOVIEW
 70
    0
  9
$UCSORGTOP
 10
0
 20
0
 30
0
  9
$UCSORGBOTTOM
 10
0
 20
0
 30
0
  9
$UCSORGLEFT
 10
0
 20
0
 30
0
  9
$UCSORGRIGHT
 10
0
 20
0
 30
0
  9
$UCSORGFRONT
 10
0
 20
0
 30
0
  9
$UCSORGBACK
 10
0
 20
0
 30
0
  9
$PUCSBASE
  2

  9
$PUCSNAME
  2

  9
$PUCSORG
 10
0
 20
0
 30
0
  9
$PUCSXDIR
 10
1
 20
0
 30
0
  9
$PUCSYDIR
 10
0
 20
1
 30
0
  9
$PUCSORTHOREF
  2

  9
$PUCSORTHOVIEW
 70
    0
  9
$PUCSORGTOP
 10
0
 20
0
 30
0
  9
$PUCSORGBOTTOM
 10
0
 20
0
 30
0
  9
$PUCSORGLEFT
 10
0
 20
0
 30
0
  9
$PUCSORGRIGHT
 10
0
 20
0
 30
0
  9
$PUCSORGFRONT
 10
0
 20
0
 30
0
  9
$PUCSORGBACK
 10
0
 20
0
 30
0
  9
$USERI1
 70
    0
  9
$USERI2
 70
    0
  9
$USERI3
 70
    0
  9
$USERI4
 70
    0
  9
$USERI5
 70
    0
  9
$USERR1
 40
0
  9
$USERR2
 40
0
  9
$USERR3
 40
0
  9
$USERR4
 40
0
  9
$USERR5
 40
0
  9
$WORLDVIEW
 70
    1
  9
$SHADEDGE
 70
    3
  9
$SHADEDIF
 70
   70
  9
$TILEMODE
 70
    1
  9
$MAXACTVP
 70
   64
  9
$PINSBASE
 10
0
 20
0
 30
0
  9
$PLIMCHECK
 70
    0
  9
$PEXTMIN
 10
0
 20
0
 30
0
  9
$PEXTMAX
 10
0
 20
0
 30
0
  9
$SNAPSTYLE
 70
    0
  9
$PLIMMIN
 10
0
 20
0
  9
$PLIMMAX
 10
297
 20
210
  9
$UNITMODE
 70
    0
  9
$VISRETAIN
 70
    1
  9
$PLINEGEN
 70
    0
  9
$PSLTSCALE
 70
    1
  9
$TREEDEPTH
 70
 3020
  9
$CMLSTYLE
  2
Standard
  9
$CMLJUST
 70
    0
  9
$CMLSCALE
 40
20
  9
$PROXYGRAPHICS
 70
    1
  9
$MEASUREMENT
 70
    1
  9
$CELWEIGHT
370
   -1
  9
$ENDCAPS
280
    0
  9
$JOINSTYLE
280
    0
  9
$LWDISPLAY
290
    0
  9
$INSUNITS
 70
    4
  9
$HYPERLINKBASE
  1

  9
$STYLESHEET
  1

  9
$XEDIT
290
    1
  9
$CEPSNTYPE
380
    0
  9
$PSTYLEMODE
290
    1
  9
$EXTNAMES
290
    1
  9
$PSVPSCALE
 40
1
  9
$OLESTARTUP
290
    0
  9
$SORTENTS
280
  127
  9
$INDEXCTL
280
    0
  9
$HIDETEXT
280
    1
  9
$XCLIPFRAME
290
    0
  9
$HALOGAP
280
    0
  9
$OBSCOLOR
 70
  257
  9
$OBSLTYPE
280
    0
  9
$INTERSECTIONDISPLAY
280
    0
  9
$INTERSECTIONCOLOR
 70
  257
  9
$DIMASSOC
280
    1
  9
$PROJECTNAME
  1

  9
$CAMERADISPLAY
290
    0
  9
$LENSLENGTH
 40
50
  9
$CAMERAHEIGHT
 40
0
  9
$STEPSPERSEC
 40
2
  9
$STEPSIZE
 40
50
  9
$3DDWFPREC
 40
2
  9
$PSOLWIDTH
 40
5
  9
$PSOLHEIGHT
 40
80
  9
$LOFTANG1
 40
1.570796326794897
  9
$LOFTANG2
 40
1.570796326794897
  9
$LOFTMAG1
 40
0
  9
$LOFTMAG2
 40
0
  9
$LOFTPARAM
 70
    7
  9
$LOFTNORMALS
280
    1
  9
$LATITUDE
 40
1
  9
$LONGITUDE
 40
1
  9
$NORTHDIRECTION
 40
0
  9
$TIMEZONE
 70
-8000
  9
$LIGHTGLYPHDISPLAY
280
    1
  9
$TILEMODELIGHTSYNCH
280
    1
  9
$SOLIDHIST
280
    1
  9
$SHOWHIST
280
    1
  9
$DWFFRAME
280
    2
  9
$DGNFRAME
280
    0
  9
$REALWORLDSCALE
290
    1
  9
$INTERFERECOLOR
 62
    1
  9
$CSHADOW
280
    0
  9
$SHADOWPLANELOCATION
 40
0
  0
ENDSEC
  0
SECTION
  2
CLASSES
  0
ENDSEC
  0
SECTION
  2
TABLES
  0
TABLE
  2
VPORT
  5
8
330
0
100
AcDbSymbolTable
 70
    1
  0
VPORT
  5
31
330
2
100
AcDbSymbolTableRecord
100
AcDbViewportTableRecord
  2
*ACTIVE
 70
    0
 10
0
 20
0
 11
1
 21
1
 12
122.875
 22
97.25
 13
0
 23
0
 14
10
 24
10
 15
10
 25
10
 16
0
 26
0
 36
1
 17
0
 27
0
 37
0
 40
207
 41
1.247584541062802
 42
50
 43
0
 44
0
 50
0
 51
0
 71
    0
 72
  100
 73
    1
 74
    3
 75
    0
 76
    1
 77
    0
 78
    0
281
    0
 65
    1
110
0
120
0
130
0
111
1
121
0
131
0
112
0
122
1
132
0
 79
    0
146
0
348
10020
 60
    7
 61
    5
292
1
282
    1
141
0
142
0
 63
  250
421
3358443
  0
ENDTAB
  0
TABLE
  2
LTYPE
  5
5
330
0
100
AcDbSymbolTable
 70
    4
  0
LTYPE
  5
14
330
5
100
AcDbSymbolTableRecord
100
AcDbLinetypeTableRecord
  2
ByBlock
 70
    0
  3

 72
   65
 73
    0
 40
0
  0
LTYPE
  5
15
330
5
100
AcDbSymbolTableRecord
100
AcDbLinetypeTableRecord
  2
ByLayer
 70
    0
  3

 72
   65
 73
    0
 40
0
  0
LTYPE
  5
16
330
5
100
AcDbSymbolTableRecord
100
AcDbLinetypeTableRecord
  2
Continuous
 70
    0
  3
Solid line
 72
   65
 73
    0
 40
0
  0
LTYPE
  5
32
330
5
100
AcDbSymbolTableRecord
100
AcDbLinetypeTableRecord
  2
DOT
 70
    0
  3
Dot . . . . . . . . . . . . . . . . . . . . . .
 72
   65
 73
    2
 40
6.35
 49
0
 74
    0
 49
-6.35
 74
    0
  0
LTYPE
  5
33
330
5
100
AcDbSymbolTableRecord
100
AcDbLinetypeTableRecord
  2
DOTTINY
 70
    0
  3
Dot (.15x) .....................................
 72
   65
 73
    2
 40
0.9525
 49
0
 74
    0
 49
-0.9525
 74
    0
  0
LTYPE
  5
34
330
5
100
AcDbSymbolTableRecord
100
AcDbLinetypeTableRecord
  2
DOT2
 70
    0
  3
Dot (.5x) .....................................
 72
   65
 73
    2
 40
3.175
 49
0
 74
    0
 49
-3.175
 74
    0
  0
LTYPE
  5
35
330
5
100
AcDbSymbolTableRecord
100
AcDbLinetypeTableRecord
  2
DOTX2
 70
    0
  3
Dot (2x) .  .  .  .  .  .  .  .  .  .  .  .  .
 72
   65
 73
    2
 40
12.7
 49
0
 74
    0
 49
-12.7
 74
    0
  0
LTYPE
  5
36
330
5
100
AcDbSymbolTableRecord
100
AcDbLinetypeTableRecord
  2
DASHED
 70
    0
  3
Dashed _ _ _ _ _ _ _ _ _ _ _ _ _ _ _ _ _
 72
   65
 73
    2
 40
19.05
 49
12.7
 74
    0
 49
-6.35
 74
    0
  0
LTYPE
  5
37
330
5
100
AcDbSymbolTableRecord
100
AcDbLinetypeTableRecord
  2
DASHEDTINY
 70
    0
  3
Dashed (.15x) _ _ _ _ _ _ _ _ _ _ _ _ _ _ _ _ _
 72
   65
 73
    2
 40
2.8575
 49
1.905
 74
    0
 49
-0.9525
 74
    0
  0
LTYPE
  5
38
330
5
100
AcDbSymbolTableRecord
100
AcDbLinetypeTableRecord
  2
DASHED2
 70
    0
  3
Dashed (.5x) _ _ _ _ _ _ _ _ _ _ _ _ _ _ _ _ _
 72
   65
 73
    2
 40
9.524999999999999
 49
6.35
 74
    0
 49
-3.175
 74
    0
  0
LTYPE
  5
39
330
5
100
AcDbSymbolTableRecord
100
AcDbLinetypeTableRecord
  2
DASHEDX2
 70
    0
  3
Dashed (2x) ____  ____  ____  ____  ____  ___
 72
   65
 73
    2
 40
38.09999999999999
 49
25.4
 74
    0
 49
-12.7
 74
    0
  0
LTYPE
  5
3A
330
5
100
AcDbSymbolTableRecord
100
AcDbLinetypeTableRecord
  2
DASHDOT
 70
    0
  3
Dash dot __ . __ . __ . __ . __ . __ . __ . __
 72
   65
 73
    4
 40
25.4
 49
12.7
 74
    0
 49
-6.35
 74
    0
 49
0
 74
    0
 49
-6.35
 74
    0
  0
LTYPE
  5
3B
330
5
100
AcDbSymbolTableRecord
100
AcDbLinetypeTableRecord
  2
DASHDOTTINY
 70
    0
  3
Dash dot (.15x) _._._._._._._._._._._._._._._.
 72
   65
 73
    4
 40
3.81
 49
1.905
 74
    0
 49
-0.9525
 74
    0
 49
0
 74
    0
 49
-0.9525
 74
    0
  0
LTYPE
  5
3C
330
5
100
AcDbSymbolTableRecord
100
AcDbLinetypeTableRecord
  2
DASHDOT2
 70
    0
  3
Dash dot (.5x) _._._._._._._._._._._._._._._.
 72
   65
 73
    4
 40
12.7
 49
6.35
 74
    0
 49
-3.175
 74
    0
 49
0
 74
    0
 49
-3.175
 74
    0
  0
LTYPE
  5
3D
330
5
100
AcDbSymbolTableRecord
100
AcDbLinetypeTableRecord
  2
DASHDOTX2
 70
    0
  3
Dash dot (2x) ____  .  ____  .  ____  .  ___
 72
   65
 73
    4
 40
50.8
 49
25.4
 74
    0
 49
-12.7
 74
    0
 49
0
 74
    0
 49
-12.7
 74
    0
  0
LTYPE
  5
3E
330
5
100
AcDbSymbolTableRecord
100
AcDbLinetypeTableRecord
  2
DIVIDE
 70
    0
  3
Divide ____ . . ____ . . ____ . . ____ . . ____
 72
   65
 73
    6
 40
31.75
 49
12.7
 74
    0
 49
-6.35
 74
    0
 49
0
 74
    0
 49
-6.35
 74
    0
 49
0
 74
    0
 49
-6.35
 74
    0
  0
LTYPE
  5
3F
330
5
100
AcDbSymbolTableRecord
100
AcDbLinetypeTableRecord
  2
DIVIDETINY
 70
    0
  3
Divide (.15x) __..__..__..__..__..__..__..__.._
 72
   65
 73
    6
 40
4.7625
 49
1.905
 74
    0
 49
-0.9525
 74
    0
 49
0
 74
    0
 49
-0.9525
 74
    0
 49
0
 74
    0
 49
-0.9525
 74
    0
  0
LTYPE
  5
40
330
5
100
AcDbSymbolTableRecord
100
AcDbLinetypeTableRecord
  2
DIVIDE2
 70
    0
  3
Divide (.5x) __..__..__..__..__..__..__..__.._
 72
   65
 73
    6
 40
15.875
 49
6.35
 74
    0
 49
-3.175
 74
    0
 49
0
 74
    0
 49
-3.175
 74
    0
 49
0
 74
    0
 49
-3.175
 74
    0
  0
LTYPE
  5
41
330
5
100
AcDbSymbolTableRecord
100
AcDbLinetypeTableRecord
  2
DIVIDEX2
 70
    0
  3
Divide (2x) ________  .  .  ________  .  .  _
 72
   65
 73
    6
 40
63.5
 49
25.4
 74
    0
 49
-12.7
 74
    0
 49
0
 74
    0
 49
-12.7
 74
    0
 49
0
 74
    0
 49
-12.7
 74
    0
  0
LTYPE
  5
42
330
5
100
AcDbSymbolTableRecord
100
AcDbLinetypeTableRecord
  2
BORDER
 70
    0
  3
Border __ __ . __ __ . __ __ . __ __ . __ __ .
 72
   65
 73
    6
 40
44.45
 49
12.7
 74
    0
 49
-6.35
 74
    0
 49
12.7
 74
    0
 49
-6.35
 74
    0
 49
0
 74
    0
 49
-6.35
 74
    0
  0
LTYPE
  5
43
330
5
100
AcDbSymbolTableRecord
100
AcDbLinetypeTableRecord
  2
BORDERTINY
 70
    0
  3
Border (.15x) __.__.__.__.__.__.__.__.__.__.__.
 72
   65
 73
    6
 40
6.6675
 49
1.905
 74
    0
 49
-0.9525
 74
    0
 49
1.905
 74
    0
 49
-0.9525
 74
    0
 49
0
 74
    0
 49
-0.9525
 74
    0
  0
LTYPE
  5
44
330
5
100
AcDbSymbolTableRecord
100
AcDbLinetypeTableRecord
  2
BORDER2
 70
    0
  3
Border (.5x) __.__.__.__.__.__.__.__.__.__.__.
 72
   65
 73
    6
 40
22.225
 49
6.35
 74
    0
 49
-3.175
 74
    0
 49
6.35
 74
    0
 49
-3.175
 74
    0
 49
0
 74
    0
 49
-3.175
 74
    0
  0
LTYPE
  5
45
330
5
100
AcDbSymbolTableRecord
100
AcDbLinetypeTableRecord
  2
BORDERX2
 70
    0
  3
Border (2x) ____  ____  .  ____  ____  .  ___
 72
   65
 73
    6
 40
88.89999999999999
 49
25.4
 74
    0
 49
-12.7
 74
    0
 49
25.4
 74
    0
 49
-12.7
 74
    0
 49
0
 74
    0
 49
-12.7
 74
    0
  0
LTYPE
  5
46
330
5
100
AcDbSymbolTableRecord
100
AcDbLinetypeTableRecord
  2
CENTER
 70
    0
  3
Center ____ _ ____ _ ____ _ ____ _ ____ _ ____
 72
   65
 73
    4
 40
50.8
 49
31.75
 74
    0
 49
-6.35
 74
    0
 49
6.35
 74
    0
 49
-6.35
 74
    0
  0
LTYPE
  5
47
330
5
100
AcDbSymbolTableRecord
100
AcDbLinetypeTableRecord
  2
CENTERTINY
 70
    0
  3
Center (.15x) ___ _ ___ _ ___ _ ___ _ ___ _ ___
 72
   65
 73
    4
 40
7.619999999999999
 49
4.7625
 74
    0
 49
-0.9525
 74
    0
 49
0.9525
 74
    0
 49
-0.9525
 74
    0
  0
LTYPE
  5
48
330
5
100
AcDbSymbolTableRecord
100
AcDbLinetypeTableRecord
  2
CENTER2
 70
    0
  3
Center (.5x) ___ _ ___ _ ___ _ ___ _ ___ _ ___
 72
   65
 73
    4
 40
28.575
 49
19.05
 74
    0
 49
-3.175
 74
    0
 49
3.175
 74
    0
 49
-3.175
 74
    0
  0
LTYPE
  5
49
330
5
100
AcDbSymbolTableRecord
100
AcDbLinetypeTableRecord
  2
CENTERX2
 70
    0
  3
Center (2x) ________  __  ________  __  _____
 72
   65
 73
    4
 40
101.6
 49
63.5
 74
    0
 49
-12.7
 74
    0
 49
12.7
 74
    0
 49
-12.7
 74
    0
  0
ENDTAB
  0
TABLE
  2
LAYER
  5
2
330
0
100
AcDbSymbolTable
 70
    1
  0
LAYER
  5
10
330
2
100
AcDbSymbolTableRecord
100
AcDbLayerTableRecord
  2
0
 70
    0
 62
    7
  6
CONTINUOUS
370
    0
390
F
  0
ENDTAB
  0
TABLE
  2
STYLE
  5
3
330
0
100
AcDbSymbolTable
 70
    3
  0
STYLE
  5
4A
330
2
100
AcDbSymbolTableRecord
100
AcDbTextStyleTableRecord
  2
Standard
 70
    0
 40
0
 41
1
 50
0
 71
    0
 42
1
  3
txt
  4

  0
ENDTAB
  0
TABLE
  2
VIEW
  5
6
330
0
100
AcDbSymbolTable
 70
    0
  0
ENDTAB
  0
TABLE
  2
UCS
  5
7
330
0
100
AcDbSymbolTable
 70
    0
  0
ENDTAB
  0
TABLE
  2
APPID
  5
9
330
0
100
AcDbSymbolTable
 70
    1
  0
APPID
  5
12
330
9
100
AcDbSymbolTableRecord
100
AcDbRegAppTableRecord
  2
ACAD
 70
    0
  0
APPID
  5
4B
330
9
100
AcDbSymbolTableRecord
100
AcDbRegAppTableRecord
  2
LibreCad
 70
    0
  0
ENDTAB
  0
TABLE
  2
DIMSTYLE
  5
A
330
0
100
AcDbSymbolTable
 70
    1
100
AcDbDimStyleTable
 71
    1
  0
DIMSTYLE
105
4C
330
A
100
AcDbSymbolTableRecord
100
AcDbDimStyleTableRecord
  2
Standard
 70
    0
 40
1
 41
2.5
 42
0.625
 43
0.38
 44
1.25
 45
0
 46
0
 47
0
 48
0
 49
1
140
2.5
141
0.09
142
2.5
143
25.4
144
1
145
0
146
1
147
0.625
148
0
 71
    0
 72
    0
 73
    0
 74
    1
 75
    0
 76
    0
 77
    0
 78
    1
 79
    0
170
    0
171
    2
172
    0
173
    0
174
    0
175
    0
176
    0
177
    0
178
    0
179
    0
271
    2
272
    4
273
    2
274
    2
275
    0
276
    0
277
    2
278
    0
279
    0
280
    0
281
    0
282
    0
283
    1
284
    0
285
    0
286
    0
288
    0
289
    3
340
standard
341

371
   -2
372
   -2
  0
ENDTAB
  0
TABLE
  2
BLOCK_RECORD
  5
1
330
0
100
AcDbSymbolTable
 70
    2
  0
BLOCK_RECORD
  5
1F
330
1
100
AcDbSymbolTableRecord
100
AcDbBlockTableRecord
  2
*Model_Space
 70
    0
280
    1
281
    0
  0
BLOCK_RECORD
  5
1E
330
1
100
AcDbSymbolTableRecord
100
AcDbBlockTableRecord
  2
*Paper_Space
 70
    0
280
    1
281
    0
  0
ENDTAB
  0
ENDSEC
  0
SECTION
  2
BLOCKS
  0
BLOCK
  5
20
330
1F
100
AcDbEntity
  8
0
100
AcDbBlockBegin
  2
*Model_Space
 70
    0
 10
0
 20
0
 30
0
  3
*Model_Space
  1

  0
ENDBLK
  5
21
330
1F
100
AcDbEntity
  8
0
100
AcDbBlockEnd
  0
BLOCK
  5
1C
330
1B
100
AcDbEntity
  8
0
100
AcDbBlockBegin
  2
*Paper_Space
 70
    0
 10
0
 20
0
 30
0
  3
*Paper_Space
  1

  0
ENDBLK
  5
1D
330
1F
100
AcDbEntity
  8
0
100
AcDbBlockEnd
  0
ENDSEC
  0
SECTION
  2
ENTITIES
  0
LWPOLYLINE
  5
4D
100
AcDbEntity
  8
0
  6
ByLayer
 62
  256
370
   -1
100
AcDbPolyline
 90
  313
 70
    1
 43
0
 10
55.65611111111111
 20
107.1794888888889
 10
55.65611111111111
 20
107.1794888888889
 10
59.87462222222221
 20
107.0192333333333
 10
63.93287777777778
 20
106.5384666666667
 10
67.83087777777777
 20
105.7371777777778
 10
71.56862222222222
 20
104.6153888888889
 10
71.56862222222222
 20
104.6153888888889
 10
71.56862222222222
 20
104.6153888888889
 10
75.08955555555556
 20
103.2155
 10
78.33709999999999
 20
101.5799444444445
 10
81.31127777777778
 20
99.70871111111113
 10
84.01206666666667
 20
97.60181111111109
 10
84.01206666666667
 20
97.60181111111109
 10
84.01206666666667
 20
97.60181111111109
 10
86.51488888888889
 20
95.28280000000001
 10
88.81975555555555
 20
92.77526666666665
 10
90.92665555555554
 20
90.07918888888889
 10
92.8356
 20
87.19456666666666
 10
92.8356
 20
87.19456666666666
 10
92.8356
 20
87.19456666666666
 10
94.56071111111112
 20
84.20154444444444
 10
96.04072222222223
 20
81.10482222222223
 10
97.27564444444445
 20
77.90441111111109
 10
98.26545555555555
 20
74.6003
 10
98.26545555555555
 20
74.6003
 10
98.26545555555555
 20
74.6003
 10
99.02432222222221
 20
71.21606666666665
 10
99.56636666666665
 20
67.77526666666665
 10
99.89158888888888
 20
64.2779
 10
100
 20
60.72397777777775
 10
100
 20
60.72397777777775
 10
100
 20
60.72397777777775
 10
99.74547777777778
 20
55.14328888888889
 10
98.98190000000001
 20
49.78883333333333
 10
97.70927777777777
 20
44.66063333333332
 10
95.92759999999998
 20
39.75867777777778
 10
95.92759999999998
 20
39.75867777777778
 10
95.92759999999998
 20
39.75867777777778
 10
93.73114444444444
 20
35.21493333333331
 10
91.13876666666667
 20
31.1613888888889
 10
88.15045555555555
 20
27.59804444444446
 10
84.7662111111111
 20
24.52488888888891
 10
84.7662111111111
 20
24.52488888888891
 10
84.7662111111111
 20
24.52488888888891
 10
81.08974444444445
 20
22.08333333333333
 10
77.22473333333333
 20
20.33936666666668
 10
73.17118888888889
 20
19.29298888888888
 10
68.92911111111111
 20
18.94418888888887
 10
68.92911111111111
 20
18.94418888888887
 10
68.92911111111111
 20
18.94418888888887
 10
66.17646666666667
 20
19.14215555555555
 10
63.72548888888888
 20
19.73604444444446
 10
61.57616666666667
 20
20.72586666666668
 10
59.72851111111111
 20
22.11161111111113
 10
59.72851111111111
 20
22.11161111111113
 10
59.72851111111111
 20
22.11161111111113
 10
58.27677777777777
 20
23.91214444444444
 10
57.23982222222222
 20
26.14629999999998
 10
56.61764444444444
 20
28.81409999999999
 10
56.41025555555555
 20
31.91553333333333
 10
56.41025555555555
 20
31.91553333333333
 10
56.41025555555555
 20
31.91553333333333
 10
56.47624444444445
 20
33.9046
 10
56.67421111111111
 20
35.72397777777775
 10
57.00414444444444
 20
37.37367777777779
 10
57.46606666666666
 20
38.85370000000002
 10
57.46606666666666
 20
38.85370000000002
 10
57.46606666666666
 20
38.85370000000002
 10
56.77318888888889
 20
37.60463333333331
 10
55.97662222222222
 20
36.27074444444443
 10
55.07635555555555
 20
34.85200000000001
 10
54.07239999999999
 20
33.34841111111113
 10
54.07239999999999
 20
33.34841111111113
 10
54.07239999999999
 20
33.34841111111113
 10
52.96945555555556
 20
31.82126666666667
 10
51.77224444444444
 20
30.2564111111111
 10
50.48076666666666
 20
28.65384444444446
 10
49.09502222222222
 20
27.01357777777779
 10
49.09502222222222
 20
27.01357777777779
 10
49.09502222222222
 20
27.01357777777779
 10
47.62443333333333
 20
25.42043333333334
 10
46.07843333333333
 20
23.95927777777779
 10
44.45701111111111
 20
22.63008888888889
 10
42.76017777777778
 20
21.43287777777776
 10
42.76017777777778
 20
21.43287777777776
 10
42.76017777777778
 20
21.43287777777776
 10
41.04921111111111
 20
20.47605555555555
 10
39.38536666666666
 20
19.79261111111113
 10
37.76866666666666
 20
19.38254444444444
 10
36.19909999999999
 20
19.24585555555557
 10
36.19909999999999
 20
19.24585555555557
 10
36.19909999999999
 20
19.24585555555557
 10
33.02224444444444
 20
19.6182111111111
 10
30.20362222222222
 20
20.73528888888887
 10
27.74321111111111
 20
22.5971
 10
25.64102222222222
 20
25.20362222222224
 10
25.64102222222222
 20
25.20362222222224
 10
25.64102222222222
 20
25.20362222222224
 10
23.99132222222222
 20
28.33804444444443
 10
22.81296666666667
 20
31.78355555555556
 10
22.10595555555555
 20
35.54015555555554
 10
21.87028888888889
 20
39.60784444444445
 10
21.87028888888889
 20
39.60784444444445
 10
21.87028888888889
 20
39.60784444444445
 10
22.11066666666667
 20
43.6613888888889
 10
22.83182222222222
 20
47.75264444444443
 10
24.03374444444444
 20
51.88159999999998
 10
25.71644444444444
 20
56.04826666666664
 10
25.71644444444444
 20
56.04826666666664
 10
25.71644444444444
 20
56.04826666666664
 10
27.8092
 20
60.11595555555555
 10
30.16591111111111
 20
63.94796666666667
 10
32.78657777777777
 20
67.54431111111109
 10
35.67118888888889
 20
70.90497777777779
 10
35.67118888888889
 20
70.90497777777779
 10
35.67118888888889
 20
70.90497777777779
 10
38.8009
 20
73.99698888888891
 10
42.15686666666667
 20
76.78733333333332
 10
45.73906666666667
 20
79.27602222222224
 10
49.54751111111111
 20
81.46304444444442
 10
49.54751111111111
 20
81.46304444444442
 10
49.54751111111111
 20
81.46304444444442
 10
53.48322222222222
 20
83.27771111111113
 10
57.3718
 20
84.5739111111111
 10
61.21323333333333
 20
85.35162222222222
 10
65.00754444444445
 20
85.61085555555555
 10
65.00754444444445
 20
85.61085555555555
 10
65.00754444444445
 20
85.61085555555555
 10
67.81674444444444
 20
85.48831111111113
 10
70.58823333333333
 20
85.12066666666665
 10
73.32202222222223
 20
84.50792222222223
 10
76.0181
 20
83.65007777777778
 10
66.8175
 20
35.98793333333334
 10
66.8175
 20
35.98793333333334
 10
66.8175
 20
35.98793333333334
 10
66.61953333333334
 20
35.07353333333334
 10
66.47813333333333
 20
34.14026666666667
 10
66.39328888888889
 20
33.18815555555557
 10
66.36501111111112
 20
32.21719999999998
 10
66.36501111111112
 20
32.21719999999998
 10
66.36501111111112
 20
32.21719999999998
 10
66.48755555555556
 20
30.59577777777779
 10
66.8552
 20
29.20060000000002
 10
67.46794444444444
 20
28.03167777777776
 10
68.32578888888888
 20
27.08898888888889
 10
68.32578888888888
 20
27.08898888888889
 10
68.32578888888888
 20
27.08898888888889
 10
69.41931111111111
 20
26.36312222222222
 10
70.66365555555555
 20
25.84464444444445
 10
72.05882222222222
 20
25.53355555555556
 10
73.60482222222223
 20
25.42986666666666
 10
73.60482222222223
 20
25.42986666666666
 10
73.60482222222223
 20
25.42986666666666
 10
75.38178888888888
 20
25.60425555555556
 10
77.16817777777777
 20
26.12745555555555
 10
78.96398888888889
 20
26.99943333333333
 10
80.76923333333333
 20
28.22021111111112
 10
80.76923333333333
 20
28.22021111111112
 10
80.76923333333333
 20
28.22021111111112
 10
82.56504444444444
 20
29.76149999999999
 10
84.25716666666666
 20
31.5196111111111
 10
85.84558888888888
 20
33.49453333333332
 10
87.33032222222222
 20
35.68627777777777
 10
87.33032222222222
 20
35.68627777777777
 10
87.33032222222222
 20
35.68627777777777
 10
88.7302
 20
38.13725555555554
 10
89.98868888888887
 20
40.81447777777777
 10
91.10576666666667
 20
43.71794444444444
 10
92.08144444444444
 20
46.84766666666667
 10
92.08144444444444
 20
46.84766666666667
 10
92.08144444444444
 20
46.84766666666667
 10
92.9063
 20
50.14705555555557
 10
93.49547777777778
 20
53.48416666666666
 10
93.84897777777778
 20
56.85897777777778
 10
93.96682222222221
 20
60.2714888888889
 10
93.96682222222221
 20
60.2714888888889
 10
93.96682222222221
 20
60.2714888888889
 10
93.87726666666667
 20
63.3729222222222
 10
93.6086
 20
66.4178
 10
93.16082222222222
 20
69.40611111111113
 10
92.53393333333332
 20
72.33785555555556
 10
92.53393333333332
 20
72.33785555555556
 10
92.53393333333332
 20
72.33785555555556
 10
91.71379999999999
 20
75.23661111111109
 10
90.68627777777779
 20
78.05053333333331
 10
89.45135555555557
 20
80.7796
 10
88.00904444444444
 20
83.42383333333335
 10
88.00904444444444
 20
83.42383333333335
 10
88.00904444444444
 20
83.42383333333335
 10
86.37819999999999
 20
85.9785111111111
 10
84.57767777777777
 20
88.3635
 10
82.60746666666667
 20
90.57881111111111
 10
80.46756666666666
 20
92.62443333333333
 10
80.46756666666666
 20
92.62443333333333
 10
80.46756666666666
 20
92.62443333333333
 10
78.15327777777777
 20
94.48152222222224
 10
75.58446666666667
 20
96.13122222222222
 10
72.76112222222221
 20
97.57353333333334
 10
69.68325555555556
 20
98.80844444444442
 10
69.68325555555556
 20
98.80844444444442
 10
69.68325555555556
 20
98.80844444444442
 10
66.40271111111112
 20
99.83125555555553
 10
62.97134444444444
 20
100.5618444444444
 10
59.38914444444445
 20
101.0001888888889
 10
55.65611111111111
 20
101.1463
 10
55.65611111111111
 20
101.1463
 10
55.65611111111111
 20
101.1463
 10
51.2302
 20
100.9436222222222
 10
46.92684444444445
 20
100.3356
 10
42.74604444444444
 20
99.32221111111109
 10
38.68777777777778
 20
97.90346666666666
 10
38.68777777777778
 20
97.90346666666666
 10
38.68777777777778
 20
97.90346666666666
 10
34.82277777777777
 20
96.14064444444442
 10
31.22172222222222
 20
94.0950222222222
 10
27.88461111111111
 20
91.76658888888888
 10
24.81146666666667
 20
89.15535555555554
 10
24.81146666666667
 20
89.15535555555554
 10
24.81146666666667
 20
89.15535555555554
 10
21.99754444444444
 20
86.29902222222223
 10
19.36274444444444
 20
83.23528888888887
 10
16.90705555555556
 20
79.96417777777776
 10
14.63046666666667
 20
76.48566666666667
 10
14.63046666666667
 20
76.48566666666667
 10
14.63046666666667
 20
76.48566666666667
 10
12.61312222222222
 20
72.88933333333333
 10
10.85973333333333
 20
69.1892888888889
 10
9.370288888888888
 20
65.38555555555553
 10
8.1448
 20
61.47813333333335
 10
8.1448
 20
61.47813333333335
 10
8.1448
 20
61.47813333333335
 10
7.220966666666667
 20
57.51885555555555
 10
6.561088888888889
 20
53.55957777777776
 10
6.165155555555556
 20
49.6003
 10
6.033177777777778
 20
45.64102222222222
 10
6.033177777777778
 20
45.64102222222222
 10
6.033177777777778
 20
45.64102222222222
 10
6.386688888888889
 20
39.51357777777779
 10
7.447211111111111
 20
33.72548888888888
 10
9.214744444444445
 20
28.27677777777779
 10
11.68928888888889
 20
23.16742222222221
 10
11.68928888888889
 20
23.16742222222221
 10
11.68928888888889
 20
23.16742222222221
 10
14.73887777777778
 20
18.52941111111113
 10
18.15611111111111
 20
14.49472222222223
 10
21.94098888888889
 20
11.06334444444444
 10
26.09351111111111
 20
8.235288888888874
 10
26.09351111111111
 20
8.235288888888874
 10
26.09351111111111
 20
8.235288888888874
 10
28.94984444444444
 20
6.727000000000015
 10
31.78733333333333
 20
5.520366666666686
 10
34.60595555555555
 20
4.615388888888887
 10
37.40573333333333
 20
4.012066666666662
 10
37.40573333333333
 20
4.012066666666662
 10
37.40573333333333
 20
4.012066666666662
 10
37.27846666666667
 20
3.592566666666656
 10
36.89667777777778
 20
3.163655555555572
 10
36.26036666666666
 20
2.725300000000011
 10
35.36953333333333
 20
2.27752222222221
 10
35.36953333333333
 20
2.27752222222221
 10
35.36953333333333
 20
2.27752222222221
 10
34.42213333333333
 20
1.848600000000005
 10
33.54072222222222
 20
1.542233333333336
 10
32.7253
 20
1.358411111111117
 10
31.97586666666666
 20
1.297133333333349
 10
31.97586666666666
 20
1.297133333333349
 10
31.97586666666666
 20
1.297133333333349
 10
30.27903333333333
 20
1.353700000000018
 10
28.73303333333333
 20
1.523377777777778
 10
27.33785555555556
 20
1.806188888888876
 10
26.09351111111111
 20
2.202111111111108
 10
26.09351111111111
 20
2.202111111111108
 10
26.09351111111111
 20
2.202111111111108
 10
20.86632222222222
 20
4.704944444444449
 10
16.0445
 20
8.216444444444441
 10
11.62801111111111
 20
12.73661111111113
 10
7.616888888888889
 20
18.26545555555555
 10
7.616888888888889
 20
18.26545555555555
 10
7.616888888888889
 20
18.26545555555555
 10
4.2845
 20
24.47304444444446
 10
1.904222222222222
 20
31.10482222222223
 10
0.4760555555555556
 20
38.16082222222223
 10
0
 20
45.64102222222222
 10
0
 20
45.64102222222222
 10
0
 20
45.64102222222222
 10
0.1461111111111111
 20
50.08578888888889
 10
0.5844666666666667
 20
54.5211111111111
 10
1.315044444444444
 20
58.94702222222222
 10
2.337855555555556
 20
63.3635
 10
2.337855555555556
 20
63.3635
 10
2.337855555555556
 20
63.3635
 10
3.690611111111111
 20
67.71398888888889
 10
5.3356
 20
71.94193333333332
 10
7.272811111111111
 20
76.04732222222222
 10
9.502266666666666
 20
80.03016666666667
 10
9.502266666666666
 20
80.03016666666667
 10
9.502266666666666
 20
80.03016666666667
 10
12.02394444444444
 20
83.87161111111112
 10
14.76244444444444
 20
87.47737777777776
 10
17.71775555555556
 20
90.84747777777778
 10
20.88988888888889
 20
93.98189999999998
 10
20.88988888888889
 20
93.98189999999998
 10
20.88988888888889
 20
93.98189999999998
 10
24.32126666666667
 20
96.87594444444446
 10
28.0543
 20
99.44946666666668
 10
32.08898888888888
 20
101.7024888888889
 10
36.42534444444444
 20
103.6349888888889
 10
36.42534444444444
 20
103.6349888888889
 10
36.42534444444444
 20
103.6349888888889
 10
41.02092222222222
 20
105.1857111111111
 10
45.75792222222222
 20
106.2933666666667
 10
50.63631111111111
 20
106.9579555555555
 10
55.65611111111111
 20
107.1794888888889
  0
LWPOLYLINE
  5
4E
100
AcDbEntity
  8
0
  6
ByLayer
 62
  256
370
   -1
100
AcDbPolyline
 90
   55
 70
    1
 43
0
 10
58.67269999999999
 20
78.67270000000002
 10
58.67269999999999
 20
78.67270000000002
 10
56.53279999999999
 20
78.4700222222222
 10
54.33634444444444
 20
77.86198888888887
 10
52.08333333333333
 20
76.8486
 10
49.77375555555555
 20
75.42986666666667
 10
49.77375555555555
 20
75.42986666666667
 10
49.77375555555555
 20
75.42986666666667
 10
47.53016666666666
 20
73.72832222222223
 10
45.3997
 20
71.7911
 10
43.38235555555556
 20
69.61821111111109
 10
41.47813333333333
 20
67.20965555555554
 10
41.47813333333333
 20
67.20965555555554
 10
41.47813333333333
 20
67.20965555555554
 10
39.7106
 20
64.62198888888891
 10
38.10332222222222
 20
61.83634444444443
 10
36.6563
 20
58.85275555555555
 10
35.36953333333333
 20
55.67118888888889
 10
35.36953333333333
 20
55.67118888888889
 10
35.36953333333333
 20
55.67118888888889
 10
34.34672222222222
 20
52.40478888888888
 10
33.61613333333333
 20
49.16666666666666
 10
33.17778888888888
 20
45.9568222222222
 10
33.03167777777777
 20
42.77526666666666
 10
33.03167777777777
 20
42.77526666666666
 10
33.03167777777777
 20
42.77526666666666
 10
33.51244444444444
 20
36.30844444444443
 10
34.95475555555556
 20
31.6892888888889
 10
37.3586
 20
28.9178
 10
40.72397777777778
 20
27.99396666666665
 10
40.72397777777778
 20
27.99396666666665
 10
40.72397777777778
 20
27.99396666666665
 10
42.58578888888889
 20
28.32391111111109
 10
44.55127777777778
 20
29.31372222222223
 10
46.62047777777778
 20
30.96342222222222
 10
48.79336666666667
 20
33.27299999999998
 10
48.79336666666667
 20
33.27299999999998
 10
48.79336666666667
 20
33.27299999999998
 10
50.99453333333334
 20
36.09634444444445
 10
53.07315555555555
 20
39.21191111111109
 10
55.02922222222222
 20
42.61972222222224
 10
56.86274444444444
 20
46.31975555555555
 10
56.86274444444444
 20
46.31975555555555
 10
56.86274444444444
 20
46.31975555555555
 10
58.50301111111111
 20
50.17062222222222
 10
59.87933333333334
 20
53.95549999999999
 10
60.99169999999999
 20
57.67439999999998
 10
61.84012222222221
 20
61.32729999999998
 10
64.85671111111111
 20
76.71191111111114
 10
64.85671111111111
 20
76.71191111111114
 10
64.85671111111111
 20
76.71191111111114
 10
63.81975555555555
 20
77.56975555555553
 10
62.44344444444445
 20
78.1825
 10
60.72775555555555
 20
78.55015555555556
 10
58.67269999999999
 20
78.67270000000002
  0
ENDSEC
  0
SECTION
  2
OBJECTS
  0
DICTIONARY
  5
C
330
0
100
AcDbDictionary
281
    1
  3
ACAD_GROUP
350
D
  0
DICTIONARY
  5
D
330
C
100
AcDbDictionary
281
    1
  0
ENDSEC
  0
EOF
