999
dxfrw 0.6.3
  0
SECTION
  2
HEADER
  9
$ACADVER
  1
AC1021
  9
$DWGCODEPAGE
  3
ANSI_1252
  9
$INSBASE
 10
0
 20
0
 30
0
  9
$EXTMIN
 10
0
 20
-0.4524888888888889
 30
0
  9
$EXTMAX
 10
90.88895555555555
 20
98.94418888888889
 30
0
  9
$LIMMIN
 10
0
 20
0
  9
$LIMMAX
 10
420
 20
297
  9
$ORTHOMODE
 70
    0
  9
$REGENMODE
 70
    1
  9
$FILLMODE
 70
    1
  9
$QTEXTMODE
 70
    0
  9
$MIRRTEXT
 70
    0
  9
$LTSCALE
 40
1
  9
$ATTMODE
 70
    0
  9
$TEXTSIZE
 40
2.5
  9
$TRACEWID
 40
15.68
  9
$TEXTSTYLE
  7
STANDARD
  9
$CLAYER
  8
0
  9
$CELTYPE
  6
BYLAYER
  9
$CECOLOR
 62
  256
  9
$CELTSCALE
 40
1
  9
$DISPSILH
 70
    0
  9
$DIMSCALE
 40
2.5
  9
$DIMASZ
 40
2.5
  9
$DIMEXO
 40
0.625
  9
$DIMDLI
 40
3.75
  9
$DIMRND
 40
0
  9
$DIMDLE
 40
0
  9
$DIMEXE
 40
1.25
  9
$DIMTP
 40
0
  9
$DIMTM
 40
0
  9
$DIMTXT
 40
2.5
  9
$DIMCEN
 40
2.5
  9
$DIMTSZ
 40
0
  9
$DIMTOL
 70
    0
  9
$DIMLIM
 70
    0
  9
$DIMTIH
 70
    0
  9
$DIMTOH
 70
    0
  9
$DIMSE1
 70
    0
  9
$DIMSE2
 70
    0
  9
$DIMTAD
 70
    1
  9
$DIMZIN
 70
    8
  9
$DIMBLK
  1

  9
$DIMASO
 70
    1
  9
$DIMSHO
 70
    1
  9
$DIMPOST
  1

  9
$DIMAPOST
  1

  9
$DIMALT
 70
    0
  9
$DIMALTD
 70
    3
  9
$DIMALTF
 40
0.03937
  9
$DIMLFAC
 40
1
  9
$DIMTOFL
 70
    1
  9
$DIMTVP
 40
0
  9
$DIMTIX
 70
    0
  9
$DIMSOXD
 70
    0
  9
$DIMSAH
 70
    0
  9
$DIMBLK1
  1

  9
$DIMBLK2
  1

  9
$DIMSTYLE
  2
STANDARD
  9
$DIMCLRD
 70
    0
  9
$DIMCLRE
 70
    0
  9
$DIMCLRT
 70
    0
  9
$DIMTFAC
 40
1
  9
$DIMGAP
 40
0.625
  9
$DIMJUST
 70
    0
  9
$DIMSD1
 70
    0
  9
$DIMSD2
 70
    0
  9
$DIMTOLJ
 70
    0
  9
$DIMTZIN
 70
    8
  9
$DIMALTZ
 70
    0
  9
$DIMALTTZ
 70
    0
  9
$DIMUPT
 70
    0
  9
$DIMDEC
 70
    2
  9
$DIMTDEC
 70
    2
  9
$DIMALTU
 70
    2
  9
$DIMALTTD
 70
    3
  9
$DIMTXSTY
  7
STANDARD
  9
$DIMAUNIT
 70
    0
  9
$DIMADEC
 70
    0
  9
$DIMALTRND
 40
0
  9
$DIMAZIN
 70
    0
  9
$DIMDSEP
 70
   44
  9
$DIMATFIT
 70
    3
  9
$DIMFRAC
 70
    0
  9
$DIMLDRBLK
  1
STANDARD
  9
$DIMLUNIT
 70
    2
  9
$DIMLWD
 70
   -2
  9
$DIMLWE
 70
   -2
  9
$DIMTMOVE
 70
    0
  9
$DIMFXL
 40
1
  9
$DIMFXLON
 70
    0
  9
$DIMJOGANG
 40
0.7854
  9
$DIMTFILL
 70
    0
  9
$DIMTFILLCLR
 70
    0
  9
$DIMARCSYM
 70
    0
  9
$DIMLTYPE
  6

  9
$DIMLTEX1
  6

  9
$DIMLTEX2
  6

  9
$LUNITS
 70
    2
  9
$LUPREC
 70
    4
  9
$SKETCHINC
 40
1
  9
$FILLETRAD
 40
0
  9
$AUNITS
 70
    0
  9
$AUPREC
 70
    2
  9
$MENU
  1
.
  9
$ELEVATION
 40
0
  9
$PELEVATION
 40
0
  9
$THICKNESS
 40
0
  9
$LIMCHECK
 70
    0
  9
$CHAMFERA
 40
0
  9
$CHAMFERB
 40
0
  9
$CHAMFERC
 40
0
  9
$CHAMFERD
 40
0
  9
$SKPOLY
 70
    0
  9
$USRTIMER
 70
    1
  9
$ANGBASE
 50
0
  9
$ANGDIR
 70
    0
  9
$PDMODE
 70
   34
  9
$PDSIZE
 40
0
  9
$PLINEWID
 40
0
  9
$SPLFRAME
 70
    0
  9
$SPLINETYPE
 70
    2
  9
$SPLINESEGS
 70
    8
  9
$HANDSEED
  5
20000
  9
$SURFTAB1
 70
    6
  9
$SURFTAB2
 70
    6
  9
$SURFTYPE
 70
    6
  9
$SURFU
 70
    6
  9
$SURFV
 70
    6
  9
$UCSBASE
  2

  9
$UCSNAME
  2

  9
$UCSORG
 10
0
 20
0
 30
0
  9
$UCSXDIR
 10
1
 20
0
 30
0
  9
$UCSYDIR
 10
0
 20
1
 30
0
  9
$UCSORTHOREF
  2

  9
$UCSORTHOVIEW
 70
    0
  9
$UCSORGTOP
 10
0
 20
0
 30
0
  9
$UCSORGBOTTOM
 10
0
 20
0
 30
0
  9
$UCSORGLEFT
 10
0
 20
0
 30
0
  9
$UCSORGRIGHT
 10
0
 20
0
 30
0
  9
$UCSORGFRONT
 10
0
 20
0
 30
0
  9
$UCSORGBACK
 10
0
 20
0
 30
0
  9
$PUCSBASE
  2

  9
$PUCSNAME
  2

  9
$PUCSORG
 10
0
 20
0
 30
0
  9
$PUCSXDIR
 10
1
 20
0
 30
0
  9
$PUCSYDIR
 10
0
 20
1
 30
0
  9
$PUCSORTHOREF
  2

  9
$PUCSORTHOVIEW
 70
    0
  9
$PUCSORGTOP
 10
0
 20
0
 30
0
  9
$PUCSORGBOTTOM
 10
0
 20
0
 30
0
  9
$PUCSORGLEFT
 10
0
 20
0
 30
0
  9
$PUCSORGRIGHT
 10
0
 20
0
 30
0
  9
$PUCSORGFRONT
 10
0
 20
0
 30
0
  9
$PUCSORGBACK
 10
0
 20
0
 30
0
  9
$USERI1
 70
    0
  9
$USERI2
 70
    0
  9
$USERI3
 70
    0
  9
$USERI4
 70
    0
  9
$USERI5
 70
    0
  9
$USERR1
 40
0
  9
$USERR2
 40
0
  9
$USERR3
 40
0
  9
$USERR4
 40
0
  9
$USERR5
 40
0
  9
$WORLDVIEW
 70
    1
  9
$SHADEDGE
 70
    3
  9
$SHADEDIF
 70
   70
  9
$TILEMODE
 70
    1
  9
$MAXACTVP
 70
   64
  9
$PINSBASE
 10
0
 20
0
 30
0
  9
$PLIMCHECK
 70
    0
  9
$PEXTMIN
 10
0
 20
0
 30
0
  9
$PEXTMAX
 10
0
 20
0
 30
0
  9
$SNAPSTYLE
 70
    0
  9
$PLIMMIN
 10
0
 20
0
  9
$PLIMMAX
 10
297
 20
210
  9
$UNITMODE
 70
    0
  9
$VISRETAIN
 70
    1
  9
$PLINEGEN
 70
    0
  9
$PSLTSCALE
 70
    1
  9
$TREEDEPTH
 70
 3020
  9
$CMLSTYLE
  2
Standard
  9
$CMLJUST
 70
    0
  9
$CMLSCALE
 40
20
  9
$PROXYGRAPHICS
 70
    1
  9
$MEASUREMENT
 70
    1
  9
$CELWEIGHT
370
   -1
  9
$ENDCAPS
280
    0
  9
$JOINSTYLE
280
    0
  9
$LWDISPLAY
290
    0
  9
$INSUNITS
 70
    4
  9
$HYPERLINKBASE
  1

  9
$STYLESHEET
  1

  9
$XEDIT
290
    1
  9
$CEPSNTYPE
380
    0
  9
$PSTYLEMODE
290
    1
  9
$EXTNAMES
290
    1
  9
$PSVPSCALE
 40
1
  9
$OLESTARTUP
290
    0
  9
$SORTENTS
280
  127
  9
$INDEXCTL
280
    0
  9
$HIDETEXT
280
    1
  9
$XCLIPFRAME
290
    0
  9
$HALOGAP
280
    0
  9
$OBSCOLOR
 70
  257
  9
$OBSLTYPE
280
    0
  9
$INTERSECTIONDISPLAY
280
    0
  9
$INTERSECTIONCOLOR
 70
  257
  9
$DIMASSOC
280
    1
  9
$PROJECTNAME
  1

  9
$CAMERADISPLAY
290
    0
  9
$LENSLENGTH
 40
50
  9
$CAMERAHEIGHT
 40
0
  9
$STEPSPERSEC
 40
2
  9
$STEPSIZE
 40
50
  9
$3DDWFPREC
 40
2
  9
$PSOLWIDTH
 40
5
  9
$PSOLHEIGHT
 40
80
  9
$LOFTANG1
 40
1.570796326794897
  9
$LOFTANG2
 40
1.570796326794897
  9
$LOFTMAG1
 40
0
  9
$LOFTMAG2
 40
0
  9
$LOFTPARAM
 70
    7
  9
$LOFTNORMALS
280
    1
  9
$LATITUDE
 40
1
  9
$LONGITUDE
 40
1
  9
$NORTHDIRECTION
 40
0
  9
$TIMEZONE
 70
-8000
  9
$LIGHTGLYPHDISPLAY
280
    1
  9
$TILEMODELIGHTSYNCH
280
    1
  9
$SOLIDHIST
280
    1
  9
$SHOWHIST
280
    1
  9
$DWFFRAME
280
    2
  9
$DGNFRAME
280
    0
  9
$REALWORLDSCALE
290
    1
  9
$INTERFERECOLOR
 62
    1
  9
$CSHADOW
280
    0
  9
$SHADOWPLANELOCATION
 40
0
  0
ENDSEC
  0
SECTION
  2
CLASSES
  0
ENDSEC
  0
SECTION
  2
TABLES
  0
TABLE
  2
VPORT
  5
8
330
0
100
AcDbSymbolTable
 70
    1
  0
VPORT
  5
31
330
2
100
AcDbSymbolTableRecord
100
AcDbViewportTableRecord
  2
*ACTIVE
 70
    0
 10
0
 20
0
 11
1
 21
1
 12
122.875
 22
97.25
 13
0
 23
0
 14
10
 24
10
 15
10
 25
10
 16
0
 26
0
 36
1
 17
0
 27
0
 37
0
 40
207
 41
1.247584541062802
 42
50
 43
0
 44
0
 50
0
 51
0
 71
    0
 72
  100
 73
    1
 74
    3
 75
    0
 76
    1
 77
    0
 78
    0
281
    0
 65
    1
110
0
120
0
130
0
111
1
121
0
131
0
112
0
122
1
132
0
 79
    0
146
0
348
10020
 60
    7
 61
    5
292
1
282
    1
141
0
142
0
 63
  250
421
3358443
  0
ENDTAB
  0
TABLE
  2
LTYPE
  5
5
330
0
100
AcDbSymbolTable
 70
    4
  0
LTYPE
  5
14
330
5
100
AcDbSymbolTableRecord
100
AcDbLinetypeTableRecord
  2
ByBlock
 70
    0
  3

 72
   65
 73
    0
 40
0
  0
LTYPE
  5
15
330
5
100
AcDbSymbolTableRecord
100
AcDbLinetypeTableRecord
  2
ByLayer
 70
    0
  3

 72
   65
 73
    0
 40
0
  0
LTYPE
  5
16
330
5
100
AcDbSymbolTableRecord
100
AcDbLinetypeTableRecord
  2
Continuous
 70
    0
  3
Solid line
 72
   65
 73
    0
 40
0
  0
LTYPE
  5
32
330
5
100
AcDbSymbolTableRecord
100
AcDbLinetypeTableRecord
  2
DOT
 70
    0
  3
Dot . . . . . . . . . . . . . . . . . . . . . .
 72
   65
 73
    2
 40
6.35
 49
0
 74
    0
 49
-6.35
 74
    0
  0
LTYPE
  5
33
330
5
100
AcDbSymbolTableRecord
100
AcDbLinetypeTableRecord
  2
DOTTINY
 70
    0
  3
Dot (.15x) .....................................
 72
   65
 73
    2
 40
0.9525
 49
0
 74
    0
 49
-0.9525
 74
    0
  0
LTYPE
  5
34
330
5
100
AcDbSymbolTableRecord
100
AcDbLinetypeTableRecord
  2
DOT2
 70
    0
  3
Dot (.5x) .....................................
 72
   65
 73
    2
 40
3.175
 49
0
 74
    0
 49
-3.175
 74
    0
  0
LTYPE
  5
35
330
5
100
AcDbSymbolTableRecord
100
AcDbLinetypeTableRecord
  2
DOTX2
 70
    0
  3
Dot (2x) .  .  .  .  .  .  .  .  .  .  .  .  .
 72
   65
 73
    2
 40
12.7
 49
0
 74
    0
 49
-12.7
 74
    0
  0
LTYPE
  5
36
330
5
100
AcDbSymbolTableRecord
100
AcDbLinetypeTableRecord
  2
DASHED
 70
    0
  3
Dashed _ _ _ _ _ _ _ _ _ _ _ _ _ _ _ _ _
 72
   65
 73
    2
 40
19.05
 49
12.7
 74
    0
 49
-6.35
 74
    0
  0
LTYPE
  5
37
330
5
100
AcDbSymbolTableRecord
100
AcDbLinetypeTableRecord
  2
DASHEDTINY
 70
    0
  3
Dashed (.15x) _ _ _ _ _ _ _ _ _ _ _ _ _ _ _ _ _
 72
   65
 73
    2
 40
2.8575
 49
1.905
 74
    0
 49
-0.9525
 74
    0
  0
LTYPE
  5
38
330
5
100
AcDbSymbolTableRecord
100
AcDbLinetypeTableRecord
  2
DASHED2
 70
    0
  3
Dashed (.5x) _ _ _ _ _ _ _ _ _ _ _ _ _ _ _ _ _
 72
   65
 73
    2
 40
9.524999999999999
 49
6.35
 74
    0
 49
-3.175
 74
    0
  0
LTYPE
  5
39
330
5
100
AcDbSymbolTableRecord
100
AcDbLinetypeTableRecord
  2
DASHEDX2
 70
    0
  3
Dashed (2x) ____  ____  ____  ____  ____  ___
 72
   65
 73
    2
 40
38.09999999999999
 49
25.4
 74
    0
 49
-12.7
 74
    0
  0
LTYPE
  5
3A
330
5
100
AcDbSymbolTableRecord
100
AcDbLinetypeTableRecord
  2
DASHDOT
 70
    0
  3
Dash dot __ . __ . __ . __ . __ . __ . __ . __
 72
   65
 73
    4
 40
25.4
 49
12.7
 74
    0
 49
-6.35
 74
    0
 49
0
 74
    0
 49
-6.35
 74
    0
  0
LTYPE
  5
3B
330
5
100
AcDbSymbolTableRecord
100
AcDbLinetypeTableRecord
  2
DASHDOTTINY
 70
    0
  3
Dash dot (.15x) _._._._._._._._._._._._._._._.
 72
   65
 73
    4
 40
3.81
 49
1.905
 74
    0
 49
-0.9525
 74
    0
 49
0
 74
    0
 49
-0.9525
 74
    0
  0
LTYPE
  5
3C
330
5
100
AcDbSymbolTableRecord
100
AcDbLinetypeTableRecord
  2
DASHDOT2
 70
    0
  3
Dash dot (.5x) _._._._._._._._._._._._._._._.
 72
   65
 73
    4
 40
12.7
 49
6.35
 74
    0
 49
-3.175
 74
    0
 49
0
 74
    0
 49
-3.175
 74
    0
  0
LTYPE
  5
3D
330
5
100
AcDbSymbolTableRecord
100
AcDbLinetypeTableRecord
  2
DASHDOTX2
 70
    0
  3
Dash dot (2x) ____  .  ____  .  ____  .  ___
 72
   65
 73
    4
 40
50.8
 49
25.4
 74
    0
 49
-12.7
 74
    0
 49
0
 74
    0
 49
-12.7
 74
    0
  0
LTYPE
  5
3E
330
5
100
AcDbSymbolTableRecord
100
AcDbLinetypeTableRecord
  2
DIVIDE
 70
    0
  3
Divide ____ . . ____ . . ____ . . ____ . . ____
 72
   65
 73
    6
 40
31.75
 49
12.7
 74
    0
 49
-6.35
 74
    0
 49
0
 74
    0
 49
-6.35
 74
    0
 49
0
 74
    0
 49
-6.35
 74
    0
  0
LTYPE
  5
3F
330
5
100
AcDbSymbolTableRecord
100
AcDbLinetypeTableRecord
  2
DIVIDETINY
 70
    0
  3
Divide (.15x) __..__..__..__..__..__..__..__.._
 72
   65
 73
    6
 40
4.7625
 49
1.905
 74
    0
 49
-0.9525
 74
    0
 49
0
 74
    0
 49
-0.9525
 74
    0
 49
0
 74
    0
 49
-0.9525
 74
    0
  0
LTYPE
  5
40
330
5
100
AcDbSymbolTableRecord
100
AcDbLinetypeTableRecord
  2
DIVIDE2
 70
    0
  3
Divide (.5x) __..__..__..__..__..__..__..__.._
 72
   65
 73
    6
 40
15.875
 49
6.35
 74
    0
 49
-3.175
 74
    0
 49
0
 74
    0
 49
-3.175
 74
    0
 49
0
 74
    0
 49
-3.175
 74
    0
  0
LTYPE
  5
41
330
5
100
AcDbSymbolTableRecord
100
AcDbLinetypeTableRecord
  2
DIVIDEX2
 70
    0
  3
Divide (2x) ________  .  .  ________  .  .  _
 72
   65
 73
    6
 40
63.5
 49
25.4
 74
    0
 49
-12.7
 74
    0
 49
0
 74
    0
 49
-12.7
 74
    0
 49
0
 74
    0
 49
-12.7
 74
    0
  0
LTYPE
  5
42
330
5
100
AcDbSymbolTableRecord
100
AcDbLinetypeTableRecord
  2
BORDER
 70
    0
  3
Border __ __ . __ __ . __ __ . __ __ . __ __ .
 72
   65
 73
    6
 40
44.45
 49
12.7
 74
    0
 49
-6.35
 74
    0
 49
12.7
 74
    0
 49
-6.35
 74
    0
 49
0
 74
    0
 49
-6.35
 74
    0
  0
LTYPE
  5
43
330
5
100
AcDbSymbolTableRecord
100
AcDbLinetypeTableRecord
  2
BORDERTINY
 70
    0
  3
Border (.15x) __.__.__.__.__.__.__.__.__.__.__.
 72
   65
 73
    6
 40
6.6675
 49
1.905
 74
    0
 49
-0.9525
 74
    0
 49
1.905
 74
    0
 49
-0.9525
 74
    0
 49
0
 74
    0
 49
-0.9525
 74
    0
  0
LTYPE
  5
44
330
5
100
AcDbSymbolTableRecord
100
AcDbLinetypeTableRecord
  2
BORDER2
 70
    0
  3
Border (.5x) __.__.__.__.__.__.__.__.__.__.__.
 72
   65
 73
    6
 40
22.225
 49
6.35
 74
    0
 49
-3.175
 74
    0
 49
6.35
 74
    0
 49
-3.175
 74
    0
 49
0
 74
    0
 49
-3.175
 74
    0
  0
LTYPE
  5
45
330
5
100
AcDbSymbolTableRecord
100
AcDbLinetypeTableRecord
  2
BORDERX2
 70
    0
  3
Border (2x) ____  ____  .  ____  ____  .  ___
 72
   65
 73
    6
 40
88.89999999999999
 49
25.4
 74
    0
 49
-12.7
 74
    0
 49
25.4
 74
    0
 49
-12.7
 74
    0
 49
0
 74
    0
 49
-12.7
 74
    0
  0
LTYPE
  5
46
330
5
100
AcDbSymbolTableRecord
100
AcDbLinetypeTableRecord
  2
CENTER
 70
    0
  3
Center ____ _ ____ _ ____ _ ____ _ ____ _ ____
 72
   65
 73
    4
 40
50.8
 49
31.75
 74
    0
 49
-6.35
 74
    0
 49
6.35
 74
    0
 49
-6.35
 74
    0
  0
LTYPE
  5
47
330
5
100
AcDbSymbolTableRecord
100
AcDbLinetypeTableRecord
  2
CENTERTINY
 70
    0
  3
Center (.15x) ___ _ ___ _ ___ _ ___ _ ___ _ ___
 72
   65
 73
    4
 40
7.619999999999999
 49
4.7625
 74
    0
 49
-0.9525
 74
    0
 49
0.9525
 74
    0
 49
-0.9525
 74
    0
  0
LTYPE
  5
48
330
5
100
AcDbSymbolTableRecord
100
AcDbLinetypeTableRecord
  2
CENTER2
 70
    0
  3
Center (.5x) ___ _ ___ _ ___ _ ___ _ ___ _ ___
 72
   65
 73
    4
 40
28.575
 49
19.05
 74
    0
 49
-3.175
 74
    0
 49
3.175
 74
    0
 49
-3.175
 74
    0
  0
LTYPE
  5
49
330
5
100
AcDbSymbolTableRecord
100
AcDbLinetypeTableRecord
  2
CENTERX2
 70
    0
  3
Center (2x) ________  __  ________  __  _____
 72
   65
 73
    4
 40
101.6
 49
63.5
 74
    0
 49
-12.7
 74
    0
 49
12.7
 74
    0
 49
-12.7
 74
    0
  0
ENDTAB
  0
TABLE
  2
LAYER
  5
2
330
0
100
AcDbSymbolTable
 70
    1
  0
LAYER
  5
10
330
2
100
AcDbSymbolTableRecord
100
AcDbLayerTableRecord
  2
0
 70
    0
 62
    7
  6
CONTINUOUS
370
    0
390
F
  0
ENDTAB
  0
TABLE
  2
STYLE
  5
3
330
0
100
AcDbSymbolTable
 70
    3
  0
STYLE
  5
4A
330
2
100
AcDbSymbolTableRecord
100
AcDbTextStyleTableRecord
  2
Standard
 70
    0
 40
0
 41
1
 50
0
 71
    0
 42
1
  3
txt
  4

  0
ENDTAB
  0
TABLE
  2
VIEW
  5
6
330
0
100
AcDbSymbolTable
 70
    0
  0
ENDTAB
  0
TABLE
  2
UCS
  5
7
330
0
100
AcDbSymbolTable
 70
    0
  0
ENDTAB
  0
TABLE
  2
APPID
  5
9
330
0
100
AcDbSymbolTable
 70
    1
  0
APPID
  5
12
330
9
100
AcDbSymbolTableRecord
100
AcDbRegAppTableRecord
  2
ACAD
 70
    0
  0
APPID
  5
4B
330
9
100
AcDbSymbolTableRecord
100
AcDbRegAppTableRecord
  2
LibreCad
 70
    0
  0
ENDTAB
  0
TABLE
  2
DIMSTYLE
  5
A
330
0
100
AcDbSymbolTable
 70
    1
100
AcDbDimStyleTable
 71
    1
  0
DIMSTYLE
105
4C
330
A
100
AcDbSymbolTableRecord
100
AcDbDimStyleTableRecord
  2
Standard
 70
    0
 40
1
 41
2.5
 42
0.625
 43
0.38
 44
1.25
 45
0
 46
0
 47
0
 48
0
 49
1
140
2.5
141
0.09
142
2.5
143
25.4
144
1
145
0
146
1
147
0.625
148
0
 71
    0
 72
    0
 73
    0
 74
    1
 75
    0
 76
    0
 77
    0
 78
    1
 79
    0
170
    0
171
    2
172
    0
173
    0
174
    0
175
    0
176
    0
177
    0
178
    0
179
    0
271
    2
272
    4
273
    2
274
    2
275
    0
276
    0
277
    2
278
    0
279
    0
280
    0
281
    0
282
    0
283
    1
284
    0
285
    0
286
    0
288
    0
289
    3
340
standard
341

371
   -2
372
   -2
  0
ENDTAB
  0
TABLE
  2
BLOCK_RECORD
  5
1
330
0
100
AcDbSymbolTable
 70
    2
  0
BLOCK_RECORD
  5
1F
330
1
100
AcDbSymbolTableRecord
100
AcDbBlockTableRecord
  2
*Model_Space
 70
    0
280
    1
281
    0
  0
BLOCK_RECORD
  5
1E
330
1
100
AcDbSymbolTableRecord
100
AcDbBlockTableRecord
  2
*Paper_Space
 70
    0
280
    1
281
    0
  0
ENDTAB
  0
ENDSEC
  0
SECTION
  2
BLOCKS
  0
BLOCK
  5
20
330
1F
100
AcDbEntity
  8
0
100
AcDbBlockBegin
  2
*Model_Space
 70
    0
 10
0
 20
0
 30
0
  3
*Model_Space
  1

  0
ENDBLK
  5
21
330
1F
100
AcDbEntity
  8
0
100
AcDbBlockEnd
  0
BLOCK
  5
1C
330
1B
100
AcDbEntity
  8
0
100
AcDbBlockBegin
  2
*Paper_Space
 70
    0
 10
0
 20
0
 30
0
  3
*Paper_Space
  1

  0
ENDBLK
  5
1D
330
1F
100
AcDbEntity
  8
0
100
AcDbBlockEnd
  0
ENDSEC
  0
SECTION
  2
ENTITIES
  0
LWPOLYLINE
  5
4D
100
AcDbEntity
  8
0
  6
ByLayer
 62
  256
370
   -1
100
AcDbPolyline
 90
   67
 70
    1
 43
0
 10
53.24283333333333
 20
14.32881111111111
 10
53.24283333333333
 20
14.32881111111111
 10
50.94268888888889
 20
16.78921111111111
 10
48.41628888888889
 20
19.72096666666667
 10
45.66365555555555
 20
23.12405555555555
 10
42.68476666666667
 20
26.99848888888889
 10
42.68476666666667
 20
26.99848888888889
 10
42.68476666666667
 20
26.99848888888889
 10
39.72944444444444
 20
31.0049
 10
37.04751111111111
 20
34.72851111111111
 10
34.63895555555555
 20
38.16931111111111
 10
32.50376666666666
 20
41.32729999999999
 10
28.50678888888889
 20
47.36047777777778
 10
28.50678888888889
 20
47.36047777777778
 10
28.50678888888889
 20
47.36047777777778
 10
26.95606666666666
 20
46.29996666666667
 10
25.62216666666666
 20
45.38084444444444
 10
24.50508888888889
 20
44.60313333333333
 10
23.60482222222222
 20
43.96682222222222
 10
23.60482222222222
 20
43.96682222222222
 10
23.60482222222222
 20
43.96682222222222
 10
22.7894
 20
43.33049999999999
 10
21.85143333333333
 20
42.55278888888888
 10
20.79091111111111
 20
41.63367777777778
 10
19.60784444444445
 20
40.57315555555556
 10
19.60784444444445
 20
40.57315555555556
 10
19.60784444444445
 20
40.57315555555556
 10
18.44834444444444
 20
39.49848888888889
 10
17.45852222222222
 20
38.46153333333334
 10
16.63838888888889
 20
37.46228888888889
 10
15.98793333333333
 20
36.50075555555555
 10
15.98793333333333
 20
36.50075555555555
 10
15.98793333333333
 20
36.50075555555555
 10
15.43174444444444
 20
35.50151111111111
 10
14.89442222222222
 20
34.38914444444444
 10
14.37594444444444
 20
33.16365555555556
 10
13.87632222222222
 20
31.82503333333333
 10
13.87632222222222
 20
31.82503333333333
 10
13.87632222222222
 20
31.82503333333333
 10
13.48038888888889
 20
30.43928888888889
 10
13.19758888888889
 20
28.99698888888889
 10
13.0279
 20
27.49811111111111
 10
12.97134444444444
 20
25.94268888888889
 10
12.97134444444444
 20
25.94268888888889
 10
12.97134444444444
 20
25.94268888888889
 10
13.35784444444445
 20
21.2764
 10
14.51734444444445
 20
17.23227777777778
 10
16.44984444444444
 20
13.81033333333333
 10
19.15535555555556
 20
11.01055555555556
 10
19.15535555555556
 20
11.01055555555556
 10
19.15535555555556
 20
11.01055555555556
 10
22.42646666666667
 20
8.832955555555555
 10
26.05581111111111
 20
7.277522222222222
 10
30.04336666666666
 20
6.344266666666667
 10
34.38914444444444
 20
6.033177777777778
 10
34.38914444444444
 20
6.033177777777778
 10
34.38914444444444
 20
6.033177777777778
 10
36.76471111111111
 20
6.174588888888889
 10
39.21568888888889
 20
6.598788888888888
 10
41.74207777777778
 20
7.305811111111111
 10
44.34388888888889
 20
8.295622222222223
 10
44.34388888888889
 20
8.295622222222223
 10
44.34388888888889
 20
8.295622222222223
 10
46.90798888888889
 20
9.521111111111111
 10
49.24585555555556
 20
10.93514444444444
 10
51.35746666666667
 20
12.53771111111111
 10
53.24283333333333
 20
14.32881111111111
  0
LWPOLYLINE
  5
4E
100
AcDbEntity
  8
0
  6
ByLayer
 62
  256
370
   -1
100
AcDbPolyline
 90
   48
 70
    1
 43
0
 10
39.21568888888889
 20
93.51433333333333
 10
39.21568888888889
 20
93.51433333333333
 10
36.82126666666667
 20
93.31165555555556
 10
34.61538888888889
 20
92.70362222222221
 10
32.59804444444444
 20
91.69023333333334
 10
30.76923333333333
 20
90.2714888888889
 10
30.76923333333333
 20
90.2714888888889
 10
30.76923333333333
 20
90.2714888888889
 10
29.25151111111111
 20
88.53224444444443
 10
28.16742222222222
 20
86.5573111111111
 10
27.51696666666667
 20
84.34672222222223
 10
27.30015555555556
 20
81.90045555555555
 10
27.30015555555556
 20
81.90045555555555
 10
27.30015555555556
 20
81.90045555555555
 10
27.79034444444444
 20
76.7911
 10
29.26093333333333
 20
71.11613333333332
 10
31.71191111111111
 20
64.87556666666667
 10
35.14328888888889
 20
58.06937777777778
 10
35.14328888888889
 20
58.06937777777778
 10
35.14328888888889
 20
58.06937777777778
 10
37.6037
 20
59.54467777777778
 10
39.7813
 20
60.95399999999999
 10
41.67608888888888
 20
62.29732222222222
 10
43.28808888888889
 20
63.57465555555556
 10
43.28808888888889
 20
63.57465555555556
 10
43.28808888888889
 20
63.57465555555556
 10
44.69268888888889
 20
64.95097777777778
 10
45.96531111111111
 20
66.51583333333333
 10
47.10595555555555
 20
68.26923333333333
 10
48.11463333333333
 20
70.21116666666666
 10
48.11463333333333
 20
70.21116666666666
 10
48.11463333333333
 20
70.21116666666666
 10
48.97247777777778
 20
72.37462222222221
 10
49.58522222222222
 20
74.71720000000001
 10
49.95286666666667
 20
77.23887777777777
 10
50.07541111111111
 20
79.93966666666665
 10
50.07541111111111
 20
79.93966666666665
 10
50.07541111111111
 20
79.93966666666665
 10
49.88687777777778
 20
82.56975555555555
 10
49.32126666666666
 20
85.03016666666666
 10
48.37857777777778
 20
87.32088888888889
 10
47.05882222222222
 20
89.44193333333332
 10
47.05882222222222
 20
89.44193333333332
 10
47.05882222222222
 20
89.44193333333332
 10
45.43741111111111
 20
91.2236
 10
43.58974444444444
 20
92.49623333333334
 10
41.51583333333333
 20
93.2598
 10
39.21568888888889
 20
93.51433333333333
  0
LWPOLYLINE
  5
4F
100
AcDbEntity
  8
0
  6
ByLayer
 62
  256
370
   -1
100
AcDbPolyline
 90
  326
 70
    1
 43
0
 10
38.46153333333334
 20
98.94418888888889
 10
38.46153333333334
 20
98.94418888888889
 10
43.25037777777778
 20
98.6661
 10
47.51131111111111
 20
97.83182222222221
 10
51.24434444444444
 20
96.44136666666665
 10
54.44946666666666
 20
94.49472222222221
 10
54.44946666666666
 20
94.49472222222221
 10
54.44946666666666
 20
94.49472222222221
 10
57.023
 20
92.07673333333334
 10
58.86123333333333
 20
89.19683333333333
 10
59.96417777777778
 20
85.85501111111111
 10
60.33182222222222
 20
82.05127777777777
 10
60.33182222222222
 20
82.05127777777777
 10
60.33182222222222
 20
82.05127777777777
 10
60.2187
 20
79.64272222222222
 10
59.87933333333334
 20
77.319
 10
59.31372222222222
 20
75.08013333333334
 10
58.52186666666667
 20
72.92608888888888
 10
58.52186666666667
 20
72.92608888888888
 10
58.52186666666667
 20
72.92608888888888
 10
57.54147777777778
 20
70.85218888888889
 10
56.33484444444444
 20
68.85369999999999
 10
54.90195555555555
 20
66.93062222222221
 10
53.24283333333333
 20
65.08295555555554
 10
53.24283333333333
 20
65.08295555555554
 10
53.24283333333333
 20
65.08295555555554
 10
51.5083
 20
63.36726666666667
 10
49.77375555555555
 20
61.76471111111111
 10
48.03921111111111
 20
60.27526666666667
 10
46.30467777777778
 20
58.89894444444445
 10
46.30467777777778
 20
58.89894444444445
 10
46.30467777777778
 20
58.89894444444445
 10
44.50414444444444
 20
57.5839
 10
42.49623333333333
 20
56.20286666666667
 10
40.28092222222222
 20
54.75584444444444
 10
37.85822222222222
 20
53.24283333333333
 10
37.85822222222222
 20
53.24283333333333
 10
37.85822222222222
 20
53.24283333333333
 10
42.56222222222222
 20
45.79562222222222
 10
47.85067777777778
 20
38.31071111111111
 10
53.7236
 20
30.78808888888889
 10
60.181
 20
23.22775555555556
 10
60.181
 20
23.22775555555556
 10
60.181
 20
23.22775555555556
 10
61.98152222222222
 20
26.06052222222222
 10
63.61236666666667
 20
28.8273
 10
65.07353333333333
 20
31.52808888888888
 10
66.36501111111112
 20
34.1629
 10
66.36501111111112
 20
34.1629
 10
66.36501111111112
 20
34.1629
 10
67.42081111111111
 20
36.56203333333333
 10
68.17496666666666
 20
38.48038888888889
 10
68.62745555555556
 20
39.91798888888889
 10
68.77827777777777
 20
40.87481111111111
 10
68.77827777777777
 20
40.87481111111111
 10
68.77827777777777
 20
40.87481111111111
 10
68.69344444444444
 20
41.5017
 10
68.43891111111111
 20
42.02488888888889
 10
68.01471111111111
 20
42.44437777777777
 10
67.42081111111111
 20
42.76017777777778
 10
67.42081111111111
 20
42.76017777777778
 10
67.42081111111111
 20
42.76017777777778
 10
66.69965555555555
 20
43.02884444444445
 10
65.89366666666666
 20
43.23152222222222
 10
65.00283333333333
 20
43.36821111111111
 10
64.02714444444445
 20
43.43891111111111
 10
64.02714444444445
 20
43.43891111111111
 10
64.02714444444445
 20
43.43891111111111
 10
63.16458888888889
 20
43.5049
 10
62.53771111111111
 20
43.55203333333333
 10
62.14648888888889
 20
43.58032222222222
 10
61.99095555555555
 20
43.58974444444444
 10
61.99095555555555
 20
43.58974444444444
 10
61.99095555555555
 20
43.58974444444444
 10
61.82597777777778
 20
43.95738888888889
 10
61.70814444444444
 20
44.3816
 10
61.63744444444444
 20
44.86236666666667
 10
61.61387777777777
 20
45.3997
 10
61.61387777777777
 20
45.3997
 10
61.61387777777777
 20
45.3997
 10
61.67515555555556
 20
45.95587777777777
 10
61.78355555555556
 20
46.4178
 10
61.9391
 20
46.78544444444444
 10
62.14177777777778
 20
47.05882222222222
 10
74.0573111111111
 20
47.05882222222222
 10
74.0573111111111
 20
47.05882222222222
 10
74.0573111111111
 20
47.05882222222222
 10
75.23566666666666
 20
47.06353333333333
 10
76.43287777777778
 20
47.07767777777777
 10
77.64894444444444
 20
47.10124444444445
 10
78.88386666666666
 20
47.13423333333333
 10
78.88386666666666
 20
47.13423333333333
 10
78.88386666666666
 20
47.13423333333333
 10
80.18005555555555
 20
47.21436666666666
 10
81.57994444444445
 20
47.30392222222222
 10
83.08352222222221
 20
47.4029
 10
84.6908
 20
47.51131111111111
 10
84.6908
 20
47.51131111111111
 10
84.6908
 20
47.51131111111111
 10
86.33578888888889
 20
47.61501111111112
 10
87.87707777777777
 20
47.69984444444444
 10
89.31466666666667
 20
47.76583333333333
 10
90.64856666666667
 20
47.81296666666667
 10
90.64856666666667
 20
47.81296666666667
 10
90.64856666666667
 20
47.81296666666667
 10
90.77583333333332
 20
47.58672222222222
 10
90.85595555555554
 20
47.13423333333333
 10
90.88895555555555
 20
46.4555
 10
90.8748111111111
 20
45.55053333333333
 10
90.8748111111111
 20
45.55053333333333
 10
90.8748111111111
 20
45.55053333333333
 10
90.85124444444445
 20
44.69268888888889
 10
90.78054444444444
 20
44.07994444444444
 10
90.66271111111111
 20
43.71228888888889
 10
90.49773333333333
 20
43.58974444444444
 10
90.49773333333333
 20
43.58974444444444
 10
90.49773333333333
 20
43.58974444444444
 10
89.41365555555555
 20
43.53317777777777
 10
88.12216666666667
 20
43.3635
 10
86.62329999999999
 20
43.08068888888889
 10
84.91704444444444
 20
42.68476666666667
 10
84.91704444444444
 20
42.68476666666667
 10
84.91704444444444
 20
42.68476666666667
 10
83.25792222222222
 20
42.2417
 10
81.90045555555555
 20
41.8175
 10
80.84464444444444
 20
41.41214444444444
 10
80.09049999999999
 20
41.02564444444445
 10
80.09049999999999
 20
41.02564444444445
 10
80.09049999999999
 20
41.02564444444445
 10
79.86896666666667
 20
40.75226666666666
 10
79.43062222222221
 20
40.08295555555556
 10
78.77545555555555
 20
39.01772222222222
 10
77.90346666666666
 20
37.55655555555555
 10
77.90346666666666
 20
37.55655555555555
 10
77.90346666666666
 20
37.55655555555555
 10
76.80995555555555
 20
35.78902222222222
 10
75.4902
 20
33.72925555555555
 10
73.94418888888889
 20
31.37726666666667
 10
72.17194444444443
 20
28.73303333333333
 10
72.17194444444443
 20
28.73303333333333
 10
72.17194444444443
 20
28.73303333333333
 10
70.27243333333332
 20
26.03224444444444
 10
68.34464444444444
 20
23.43514444444444
 10
66.38857777777778
 20
20.94174444444445
 10
64.40422222222222
 20
18.55203333333333
 10
64.40422222222222
 20
18.55203333333333
 10
64.40422222222222
 20
18.55203333333333
 10
66.00678888888888
 20
16.87876666666666
 10
67.3454
 20
15.47888888888889
 10
68.42005555555555
 20
14.35237777777778
 10
69.23076666666665
 20
13.49924444444444
 10
69.23076666666665
 20
13.49924444444444
 10
69.23076666666665
 20
13.49924444444444
 10
69.96134444444445
 20
12.77808888888889
 10
70.79562222222222
 20
11.9721
 10
71.7336
 20
11.08125555555556
 10
72.77526666666667
 20
10.10557777777778
 10
72.77526666666667
 20
10.10557777777778
 10
72.77526666666667
 20
10.10557777777778
 10
73.85463333333334
 20
9.205322222222222
 10
74.83032222222222
 20
8.465311111111111
 10
75.70229999999999
 20
7.885555555555555
 10
76.47058888888888
 20
7.466066666666667
 10
76.47058888888888
 20
7.466066666666667
 10
76.47058888888888
 20
7.466066666666667
 10
77.1776
 20
7.169122222222223
 10
77.86576666666667
 20
6.957011111111111
 10
78.53506666666667
 20
6.829755555555555
 10
79.18552222222222
 20
6.787333333333333
 10
79.18552222222222
 20
6.787333333333333
 10
79.18552222222222
 20
6.787333333333333
 10
80.26488888888889
 20
6.942877777777778
 10
81.39139999999999
 20
7.4095
 10
82.56504444444444
 20
8.187222222222221
 10
83.78582222222222
 20
9.276022222222222
 10
83.78582222222222
 20
9.276022222222222
 10
83.78582222222222
 20
9.276022222222222
 10
84.92175555555555
 20
10.51564444444444
 10
85.84087777777778
 20
11.67043333333333
 10
86.54317777777777
 20
12.74038888888889
 10
87.02865555555555
 20
13.72548888888889
 10
87.02865555555555
 20
13.72548888888889
 10
87.02865555555555
 20
13.72548888888889
 10
87.62726666666666
 20
13.66421111111111
 10
88.21644444444443
 20
13.48038888888889
 10
88.79618888888889
 20
13.17402222222222
 10
89.36651111111112
 20
12.7451
 10
89.36651111111112
 20
12.7451
 10
89.36651111111112
 20
12.7451
 10
89.86142222222223
 20
12.29732222222222
 10
90.21493333333333
 20
11.85897777777778
 10
90.42703333333333
 20
11.43005555555555
 10
90.49773333333333
 20
11.01055555555556
 10
90.49773333333333
 20
11.01055555555556
 10
90.49773333333333
 20
11.01055555555556
 10
90.30448888888888
 20
10.56277777777778
 10
90.10181111111112
 20
10.12443333333333
 10
89.8897111111111
 20
9.695511111111111
 10
89.66817777777777
 20
9.276022222222222
 10
89.66817777777777
 20
9.276022222222222
 10
89.66817777777777
 20
9.276022222222222
 10
89.38065555555555
 20
8.795244444444444
 10
88.97058888888888
 20
8.182499999999999
 10
88.43796666666667
 20
7.437777777777778
 10
87.78279999999999
 20
6.561088888888889
 10
87.78279999999999
 20
6.561088888888889
 10
87.78279999999999
 20
6.561088888888889
 10
87.05222222222221
 20
5.684388888888889
 10
86.29336666666667
 20
4.864255555555555
 10
85.50622222222222
 20
4.100677777777777
 10
84.6908
 20
3.393666666666666
 10
84.6908
 20
3.393666666666666
 10
84.6908
 20
3.393666666666666
 10
83.78582222222222
 20
2.766777777777778
 10
82.73001111111111
 20
2.168177777777778
 10
81.52337777777778
 20
1.597855555555555
 10
80.16591111111111
 20
1.055811111111111
 10
80.16591111111111
 20
1.055811111111111
 10
80.16591111111111
 20
1.055811111111111
 10
78.70946666666667
 20
0.5938888888888888
 10
77.20587777777777
 20
0.2639555555555556
 10
75.65516666666666
 20
0.06598888888888889
 10
74.0573111111111
 20
0
 10
74.0573111111111
 20
0
 10
74.0573111111111
 20
0
 10
72.79883333333333
 20
0.0707
 10
71.51206666666667
 20
0.2828
 10
70.19702222222223
 20
0.636311111111111
 10
68.85369999999999
 20
1.131222222222222
 10
68.85369999999999
 20
1.131222222222222
 10
68.85369999999999
 20
1.131222222222222
 10
67.53393333333332
 20
1.725111111111111
 10
66.28958888888889
 20
2.375566666666666
 10
65.12066666666666
 20
3.082577777777778
 10
64.02714444444445
 20
3.846155555555556
 10
64.02714444444445
 20
3.846155555555556
 10
64.02714444444445
 20
3.846155555555556
 10
63.0279
 20
4.638011111111111
 10
62.06636666666667
 20
5.429866666666666
 10
61.14253333333333
 20
6.221722222222222
 10
60.25641111111111
 20
7.013577777777777
 10
60.25641111111111
 20
7.013577777777777
 10
60.25641111111111
 20
7.013577777777777
 10
59.44098888888888
 20
7.777144444444444
 10
58.72925555555555
 20
8.484166666666667
 10
58.12123333333333
 20
9.134611111111111
 10
57.61688888888889
 20
9.728511111111111
 10
56.71191111111111
 20
10.85973333333333
 10
56.71191111111111
 20
10.85973333333333
 10
56.71191111111111
 20
10.85973333333333
 10
53.74716666666666
 20
8.451166666666666
 10
50.58446666666667
 20
6.278277777777777
 10
47.22378888888889
 20
4.341066666666666
 10
43.66515555555555
 20
2.639522222222222
 10
43.66515555555555
 20
2.639522222222222
 10
43.66515555555555
 20
2.639522222222222
 10
40.04996666666666
 20
1.286766666666667
 10
36.44418888888889
 20
0.3205111111111111
 10
32.84785555555555
 20
-0.2592333333333333
 10
29.26093333333333
 20
-0.4524888888888889
 10
29.26093333333333
 20
-0.4524888888888889
 10
29.26093333333333
 20
-0.4524888888888889
 10
22.92137777777778
 20
-0.04713333333333333
 10
17.25113333333333
 20
1.168933333333333
 10
12.25018888888889
 20
3.1957
 10
7.918555555555556
 20
6.033177777777778
 10
7.918555555555556
 20
6.033177777777778
 10
7.918555555555556
 20
6.033177777777778
 10
4.454188888888889
 20
9.577677777777778
 10
1.979633333333333
 20
13.72548888888889
 10
0.4949111111111111
 20
18.47662222222222
 10
0
 20
23.83106666666666
 10
0
 20
23.83106666666666
 10
0
 20
23.83106666666666
 10
0.1225444444444444
 20
26.38103333333333
 10
0.4902
 20
28.8273
 10
1.102944444444445
 20
31.16986666666666
 10
1.960788888888889
 20
33.40874444444444
 10
1.960788888888889
 20
33.40874444444444
 10
1.960788888888889
 20
33.40874444444444
 10
3.092011111111111
 20
35.57692222222222
 10
4.449466666666666
 20
37.63197777777778
 10
6.033177777777778
 20
39.57391111111111
 10
7.843133333333333
 20
41.40271111111111
 10
7.843133333333333
 20
41.40271111111111
 10
7.843133333333333
 20
41.40271111111111
 10
9.799211111111111
 20
43.10897777777778
 10
11.74585555555555
 20
44.68325555555556
 10
13.68306666666667
 20
46.12556666666666
 10
15.61085555555555
 20
47.4359
 10
15.61085555555555
 20
47.4359
 10
15.61085555555555
 20
47.4359
 10
17.67062222222222
 20
48.73208888888888
 10
19.92835555555556
 20
50.05655555555555
 10
22.38404444444445
 20
51.40931111111111
 10
25.03771111111111
 20
52.79034444444444
 10
25.03771111111111
 20
52.79034444444444
 10
25.03771111111111
 20
52.79034444444444
 10
23.72266666666667
 20
55.08106666666667
 10
22.56787777777777
 20
57.1267
 10
21.57334444444444
 20
58.92722222222222
 10
20.73906666666667
 20
60.48265555555555
 10
20.73906666666667
 20
60.48265555555555
 10
20.73906666666667
 20
60.48265555555555
 10
19.98492222222222
 20
62.0805
 10
19.23076666666667
 20
63.93287777777778
 10
18.47662222222222
 20
66.03977777777777
 10
17.72247777777778
 20
68.40121111111111
 10
17.72247777777778
 20
68.40121111111111
 10
17.72247777777778
 20
68.40121111111111
 10
17.09558888888889
 20
70.91346666666666
 10
16.64781111111111
 20
73.39743333333332
 10
16.37914444444445
 20
75.85313333333333
 10
16.28958888888889
 20
78.28054444444444
 10
16.28958888888889
 20
78.28054444444444
 10
16.28958888888889
 20
78.28054444444444
 10
16.68552222222222
 20
82.44721111111112
 10
17.8733
 20
86.27451111111111
 10
19.85294444444444
 20
89.76244444444445
 10
22.62443333333333
 20
92.91101111111111
 10
22.62443333333333
 20
92.91101111111111
 10
22.62443333333333
 20
92.91101111111111
 10
26.0181
 20
95.55053333333333
 10
29.78883333333333
 20
97.43589999999999
 10
33.93665555555555
 20
98.56712222222222
 10
38.46153333333334
 20
98.94418888888889
  0
ENDSEC
  0
SECTION
  2
OBJECTS
  0
DICTIONARY
  5
C
330
0
100
AcDbDictionary
281
    1
  3
ACAD_GROUP
350
D
  0
DICTIONARY
  5
D
330
C
100
AcDbDictionary
281
    1
  0
ENDSEC
  0
EOF
